<?xml version="1.0" standalone="no"?>
<!DOCTYPE svg PUBLIC "-//W3C//DTD SVG 1.1//EN" "http://www.w3.org/Graphics/SVG/1.1/DTD/svg11.dtd" >
<svg>
<metadata>
Created by FontForge 20090914 at Thu Jan 26 16:43:49 2017
 By www-data
Copyright (c) 2010 by Miles Newlyn. All rights reserved. wf-rip
</metadata>
<defs>
<font id="Rubrik-Bold" horiz-adv-x="436" >
  <font-face 
    font-family="Rubrik"
    font-weight="700"
    font-stretch="normal"
    units-per-em="1000"
    panose-1="2 0 5 3 0 0 0 2 0 4"
    ascent="750"
    descent="-250"
    x-height="536.001"
    cap-height="709"
    bbox="-60.1306 -285.002 1252.5 988.002"
    underline-thickness="70"
    underline-position="-30"
    unicode-range="U+0020-U+FB02"
  />
<missing-glyph horiz-adv-x="301" 
 />
    <glyph glyph-name="fi" unicode="fi" horiz-adv-x="693" 
d="M11 432c0 21.333 7.16602 38.833 21.499 52.5s32.166 20.5 53.499 20.5h18v29c0 63.333 19.667 112.333 59 147s86.333 52 141 52c40.667 0 77.334 -5.66699 110.001 -17c38.667 -14 58 -39 58 -75c0 -20 -6.5 -36.5 -19.5 -49.5s-31.167 -19.5 -54.5 -19.5
c-6.66699 0 -17.834 1.83301 -33.501 5.5s-29.5 5.5 -41.5 5.5c-35.333 0 -53 -17.667 -53 -53v-25h61c20.667 0 38.334 -6.83301 53.001 -20.5s22 -31.167 22 -52.5c0 -20 -7.5 -36.833 -22.5 -50.5s-32.5 -20.5 -52.5 -20.5h-61v-279
c0 -24.667 -7.83301 -45.334 -23.5 -62.001s-35.5 -25 -59.5 -25c-23.333 0 -43 8.33301 -59 25s-24 37.334 -24 62.001v279h-18c-21.333 0 -39.166 6.83301 -53.499 20.5s-21.5 30.5 -21.5 50.5zM471.999 460c0 24 7.66699 44.167 23 60.5s35 24.5 59 24.5
c23.333 0 43 -8.16699 59 -24.5s24 -36.5 24 -60.5l2 -380c0 -23.333 -8 -43.333 -24 -60s-35.667 -25 -59 -25c-22 0 -41.167 8.33301 -57.5 25s-24.5 36.667 -24.5 60z" />
    <glyph glyph-name="fl" unicode="fl" horiz-adv-x="762" 
d="M11 433c0 21.333 7.16699 38.832 21.5 52.499s32.166 20.5 53.499 20.5h18v28c0 65.333 17.167 114.833 51.5 148.5s80.5 50.5 138.5 50.5c42.667 0 79 -4.66699 109 -14c42.667 -13.333 64 -39.666 64 -78.999c0 -20 -6.83301 -36.667 -20.5 -50s-32.167 -20 -55.5 -20
c-7.33301 0 -19.333 2.16699 -36 6.5s-30.334 6.5 -41.001 6.5c-29.333 0 -44 -17.667 -44 -53v-24h101c20.667 0 38.334 -6.83301 53.001 -20.5s22 -31.167 22 -52.5c0 -20 -7.5 -36.833 -22.5 -50.5s-32.5 -20.5 -52.5 -20.5h-101v-280
c0 -24.667 -7.83301 -45.334 -23.5 -62.001s-35.5 -25 -59.5 -25c-23.333 0 -43 8.33301 -59 25s-24 37.334 -24 62.001v280h-18c-21.333 0 -39.166 6.83301 -53.499 20.5s-21.5 30.5 -21.5 50.5zM536 79.999v555c0 24 7.83301 44.333 23.5 61s35.167 25 58.5 25
c22.667 0 42.167 -8.33301 58.5 -25s24.5 -37 24.5 -61v-555c0 -24 -7.83301 -44.167 -23.5 -60.5s-35.5 -24.5 -59.5 -24.5c-22.667 0 -42 8.33301 -58 25s-24 36.667 -24 60z" />
    <glyph glyph-name=".notdef" horiz-adv-x="301" 
 />
    <glyph glyph-name="space" unicode=" " horiz-adv-x="240" 
 />
    <glyph glyph-name="exclam" unicode="!" horiz-adv-x="256" 
d="M45 624c-1.33301 22.667 6.16895 42.501 22.502 59.501s36.166 25.5 59.499 25.5c22.667 0 42.5 -8.5 59.5 -25.5s25.167 -36.833 24.5 -59.5l-11 -320c-1.33301 -20.667 -8.83301 -37.334 -22.5 -50.001s-30.834 -19 -51.501 -19c-20 0 -36.667 6.5 -50 19.5
s-20.333 29.5 -21 49.5zM54.002 63.001v43c0 20 6.66699 36.5 20 49.5s31 19.5 53 19.5c21.333 0 38.833 -6.5 52.5 -19.5s20.5 -29.5 20.5 -49.5v-43c0 -20 -6.83301 -36.5 -20.5 -49.5s-31.167 -19.5 -52.5 -19.5c-22 0 -39.667 6.5 -53 19.5s-20 29.5 -20 49.5z" />
    <glyph glyph-name="quotedbl" unicode="&#x22;" horiz-adv-x="418" 
d="M40 475v163.999c0 20 6.83301 36.667 20.5 50s31.167 20 52.5 20c20.667 0 38 -6.83301 52 -20.5s21 -30.167 21 -49.5v-164c0 -19.333 -7 -35.666 -21 -48.999s-31.333 -20 -52 -20c-22 0 -39.667 6.5 -53 19.5s-20 29.5 -20 49.5zM233 474.999v163.999
c0 20 6.83301 36.667 20.5 50s31.167 20 52.5 20c20.667 0 37.834 -6.66699 51.501 -20s20.5 -30 20.5 -50v-164c0 -19.333 -6.83301 -35.666 -20.5 -48.999s-30.834 -20 -51.501 -20c-22 0 -39.667 6.5 -53 19.5s-20 29.5 -20 49.5z" />
    <glyph glyph-name="numbersign" unicode="#" horiz-adv-x="748" 
d="M20 232c0 19.333 7.66504 36.335 22.998 51.002s33.333 22 54 22h73l34 102h-27c-21.333 0 -39.333 7 -54 21s-22 31.333 -22 52c0 19.333 7.66699 36.333 23 51s33.333 22 54 22h73l35 104c4.66699 16 13.834 28.833 27.501 38.5s28.5 14.5 44.5 14.5
c24.667 0 43.667 -10.333 57 -31s16.333 -43.334 9 -68.001l-20 -59h71l34 105c4.66699 16 14 28.833 28 38.5s29 14.5 45 14.5c24 0 42.667 -10.333 56 -31s16.333 -43.334 9 -68.001l-19 -59h23c20.667 0 38.834 -7.16699 54.501 -21.5s23.5 -31.166 23.5 -50.499
c0 -20.667 -7.5 -38 -22.5 -52s-33.5 -21 -55.5 -21h-71l-34 -102h24c20.667 0 38.667 -7.33301 54 -22s23 -31.667 23 -51c0 -20.667 -7.5 -38 -22.5 -52s-33.167 -21 -54.5 -21h-71l-37 -114c-4.66699 -16.667 -13.667 -29.834 -27 -39.501s-28 -14.5 -44 -14.5
c-24 0 -43.333 10.667 -58 32s-17.667 44 -9 68l22 68h-70l-38 -114c-4.66699 -16 -13.5 -29 -26.5 -39s-27.5 -15 -43.5 -15c-24 0 -43.333 10.667 -58 32s-18 44 -10 68l23 68h-27c-21.333 0 -39.333 7 -54 21s-22 31.333 -22 52zM322.998 305.002h70l34 102h-70z" />
    <glyph glyph-name="dollar" unicode="$" horiz-adv-x="611" 
d="M31 157c0 24 8.33301 44.332 25 60.999s36.667 25 60 25c21.333 0 42 -8 62 -24c17.333 -13.333 38.5 -24.5 63.5 -33.5s48.833 -13.5 71.5 -13.5c56 0 84 16.333 84 49c0 15.333 -9.16699 27.166 -27.5 35.499s-46.5 16.5 -84.5 24.5
c-83.333 18 -143.666 42.5 -180.999 73.5s-56 77.833 -56 140.5c0 47.333 16.833 88.666 50.5 123.999s78.167 59.333 133.5 72v23c0 20 7.33301 37.833 22 53.5s31.667 23.5 51 23.5c20.667 0 37.834 -7.5 51.501 -22.5s20.5 -33.167 20.5 -54.5v-18
c62.667 -8 110 -26.333 142 -55c18 -15.333 27 -36.666 27 -63.999c0 -22 -7.5 -40.667 -22.5 -56s-33.833 -23 -56.5 -23c-14.667 0 -34.667 6 -60 18c-30.667 16 -65.667 24 -105 24c-26.667 0 -46.834 -4.5 -60.501 -13.5s-20.5 -20.167 -20.5 -33.5
c0 -7.33301 1.83301 -13.666 5.5 -18.999s11.5 -10.166 23.5 -14.499s23.333 -7.83301 34 -10.5s28 -6.66699 52 -12c86.667 -20 147.667 -46.667 183 -80s53 -78.333 53 -135c0 -52 -17 -97.333 -51 -136s-82 -63 -144 -73v-26c0 -21.333 -6.83301 -39.5 -20.5 -54.5
s-30.834 -22.5 -51.501 -22.5c-19.333 0 -36.333 7.83301 -51 23.5s-22 33.5 -22 53.5v29c-67.333 12 -120 34 -158 66c-28.667 22 -43 47 -43 75z" />
    <glyph glyph-name="percent" unicode="%" horiz-adv-x="899" 
d="M24 494c-0.666992 19.333 -0.666992 37.333 0 54c2.66699 46 20 84.5 52 115.5s71 46.5 117 46.5s85.167 -15.333 117.5 -46s49.833 -69 52.5 -115c0.666992 -18 0.666992 -36 0 -54c-2.66699 -45.333 -20.167 -83.5 -52.5 -114.5s-71.5 -46.5 -117.5 -46.5
s-85 15.5 -117 46.5s-49.333 68.833 -52 113.5zM145 496c1.33301 -13.333 6.33301 -24.166 15 -32.499s19.667 -12.5 33 -12.5c14 0 25.167 4.16699 33.5 12.5s13.166 19.166 14.499 32.499c2.66699 18.667 2.66699 35.667 0 51
c-1.33301 13.333 -6.16602 24.166 -14.499 32.499s-19.5 12.5 -33.5 12.5c-13.333 0 -24.333 -4.16699 -33 -12.5s-13.667 -19.166 -15 -32.499c-2.66699 -14.667 -2.66699 -31.667 0 -51zM207 152.5c-1.33301 22.333 4.66699 41.1689 18 56.502l341 392
c13.333 16 31.166 24.5 53.499 25.5s40.5 -4.83301 54.5 -17.5c16.667 -14 25.667 -32.167 27 -54.5s-5 -40.833 -19 -55.5l-341 -392c-13.333 -15.333 -31 -23.833 -53 -25.5s-40.667 4.16602 -56 17.499s-23.666 31.166 -24.999 53.499zM535 151.003
c-0.666992 18.667 -0.666992 36.667 0 54c2.66699 46 20 84.333 52 115s71 46 117 46s85.167 -15.333 117.5 -46s49.833 -68.667 52.5 -114c0.666992 -18.667 0.666992 -37 0 -55c-2.66699 -45.333 -20.167 -83.333 -52.5 -114s-71.5 -46 -117.5 -46s-85 15.333 -117 46
s-49.333 68.667 -52 114zM656 153.003c1.33301 -13.333 6.33203 -24.167 14.999 -32.5s19.667 -12.5 33 -12.5c28.667 0 44.667 15 48 45c2.66699 17.333 2.66699 34.333 0 51c-1.33301 13.333 -6.16602 24.166 -14.499 32.499s-19.5 12.5 -33.5 12.5
c-13.333 0 -24.333 -4.16699 -33 -12.5s-13.667 -19.166 -15 -32.499c-2.66699 -16 -2.66699 -33 0 -51z" />
    <glyph glyph-name="ampersand" unicode="&#x26;" horiz-adv-x="728" 
d="M37 210c0 74 39.333 130.666 118 169.999c-54 43.333 -81 93.333 -81 150c0 53.333 22 96.5 66 129.5s101 49.5 171 49.5c72.667 0 131 -17.167 175 -51.5s66 -76.5 66 -126.5c0 -54.667 -18 -97.667 -54 -129s-98.667 -62.333 -188 -93
c-40 -13.333 -67.333 -26.5 -82 -39.5s-22 -28.5 -22 -46.5c0 -22 9.33301 -40 28 -54s44.667 -21 78 -21c40.667 0 74 10.167 100 30.5s40 46.833 42 79.5c4 71.333 36.333 107 97 107h69c24 0 44.333 -7.83301 61 -23.5s25 -35.5 25 -59.5
c0 -22.667 -8.16699 -42 -24.5 -58s-36.5 -24 -60.5 -24h-21c-14 -64.667 -47.5 -115.667 -100.5 -153s-114.833 -56 -185.5 -56c-88 0 -156.167 20.333 -204.5 61s-72.5 93.334 -72.5 158.001zM243 506.999c0 -24.667 14.999 -46.334 44.999 -65.001
c34.667 10.667 58.834 21 72.501 31s20.5 22.333 20.5 37c0 12.667 -5.66699 23.334 -17 32.001s-28.666 13 -51.999 13c-22.667 0 -39.834 -4.5 -51.501 -13.5s-17.5 -20.5 -17.5 -34.5z" />
    <glyph glyph-name="quotesingle" unicode="'" horiz-adv-x="225" 
d="M40 475v163.999c0 20 6.83301 36.667 20.5 50s31.167 20 52.5 20c20.667 0 38 -6.83301 52 -20.5s21 -30.167 21 -49.5v-164c0 -19.333 -7 -35.666 -21 -48.999s-31.333 -20 -52 -20c-22 0 -39.667 6.5 -53 19.5s-20 29.5 -20 49.5z" />
    <glyph glyph-name="parenleft" unicode="(" horiz-adv-x="367" 
d="M38 309c0 84.667 15.833 167.496 47.5 248.496s79.834 152.167 144.501 213.5c20.667 18 43 24.667 67 20s42.667 -17 56 -37c10.667 -18 14.5 -36.667 11.5 -56s-11.833 -36.666 -26.5 -51.999c-90 -93.333 -135 -205.666 -135 -336.999s45 -243.666 135 -336.999
c14.667 -15.333 23.5 -32.666 26.5 -51.999s-0.833008 -38 -11.5 -56c-13.333 -20 -32 -32.333 -56 -37s-46.333 2 -67 20c-64.667 61.333 -112.834 132.5 -144.501 213.5s-47.5 163.833 -47.5 248.5z" />
    <glyph glyph-name="parenright" unicode=")" horiz-adv-x="367" 
d="M2.5 -80c3 19.333 11.833 36.6699 26.5 52.0029c90 93.333 135 205.666 135 336.999s-45 243.666 -135 336.999c-14.667 15.333 -23.5 32.666 -26.5 51.999s0.833008 38 11.5 56c13.333 20 32 32.333 56 37s46.333 -2 67 -20
c64.667 -61.333 112.834 -132.5 144.501 -213.5s47.5 -163.833 47.5 -248.5s-15.833 -167.5 -47.5 -248.5s-79.834 -152.167 -144.501 -213.5c-20.667 -18 -43 -24.667 -67 -20s-42.667 17 -56 37c-10.667 18 -14.5 36.667 -11.5 56z" />
    <glyph glyph-name="asterisk" unicode="*" horiz-adv-x="435" 
d="M36 480c7.33301 16 20.6641 26.9961 39.9971 32.9961l63 20l-63 22c-18 6 -30.667 17 -38 33s-6.66602 31.667 2.00098 47c14 26.667 35 35 63 25c6.66699 -2 14.667 -6.66699 24 -14l52 -44l-14 64c-0.666992 9.33301 -0.666992 18.333 0 27
c2.66699 13.333 8.66699 24.166 18 32.499s20.666 12.5 33.999 12.5c14 0 25.833 -4 35.5 -12s15.5 -18.667 17.5 -32c2 -8 1.66699 -17.333 -1 -28l-14 -65l53 45c7.33301 6.66699 15 11.334 23 14.001c12.667 4.66699 24.834 4.83398 36.501 0.500977
s20.834 -12.5 27.501 -24.5c8.66699 -16 9.16699 -32.167 1.5 -48.5s-20.167 -27.166 -37.5 -32.499l-66 -22l66 -20c18.667 -5.33301 31.834 -16.166 39.501 -32.499s6.5 -32.5 -3.5 -48.5c-6.66699 -11.333 -16.167 -19.166 -28.5 -23.499s-24.5 -4.5 -36.5 -0.5
c-8.66699 2.66699 -16.334 7 -23.001 13l-52 45l14 -65c2 -11.333 2.33301 -20.666 1 -27.999c-2 -13.333 -7.83301 -24 -17.5 -32s-21.5 -12 -35.5 -12c-13.333 0 -24.666 4.16699 -33.999 12.5s-15.333 19.166 -18 32.499c-0.666992 8 -0.666992 17 0 27l14 64l-51 -44
c-6 -5.33301 -13.667 -9.66602 -23 -12.999c-12 -4 -24.167 -3.83301 -36.5 0.5s-21.833 12.166 -28.5 23.499c-10 16 -11.333 32 -4 48z" />
    <glyph glyph-name="plus" unicode="+" horiz-adv-x="628" 
d="M59 350c0 22 7.66895 40.5 23.002 55.5s34 22.5 56 22.5h98v98c0 22 7.66699 40.667 23 56s33.666 23 54.999 23c22 0 40.5 -7.66699 55.5 -23s22.5 -34 22.5 -56v-98h97c22 0 40.667 -7.5 56 -22.5s23 -33.5 23 -55.5c0 -21.333 -7.83301 -39.666 -23.5 -54.999
s-34.167 -23 -55.5 -23h-97v-99c0 -22 -7.5 -40.667 -22.5 -56s-33.5 -23 -55.5 -23c-20.667 0 -38.834 8 -54.501 24s-23.5 34.333 -23.5 55v99h-98c-22 0 -40.667 7.66699 -56 23s-23 33.666 -23 54.999z" />
    <glyph glyph-name="comma" unicode="," horiz-adv-x="244" 
d="M24 -57c0 8.66699 4.33301 23.3311 13 43.998s13 40.334 13 59.001v68c0 19.333 7 35.666 21 48.999s31.333 20 52 20s38 -6.66699 52 -20s21 -29.666 21 -48.999v-57c0 -52.667 -10 -95.667 -30 -129c-19.333 -32 -45.333 -48 -78 -48c-18.667 0 -34 6.33301 -46 19
s-18 27.334 -18 44.001z" />
    <glyph glyph-name="hyphen" unicode="-" horiz-adv-x="318" 
d="M25 288c0 23.333 8.16699 43 24.5 59s36.5 24 60.5 24h98c23.333 0 43.333 -8 60 -24s25 -35.667 25 -59c0 -22 -8.33301 -41.333 -25 -58s-36.667 -25 -60 -25h-98c-24 0 -44.167 7.83301 -60.5 23.5s-24.5 35.5 -24.5 59.5z" />
    <glyph glyph-name="period" unicode="." horiz-adv-x="287" 
d="M49 63v54.001c0 20.667 7 38 21 52s31.333 21 52 21c20 0 37.167 -7.16699 51.5 -21.5s21.5 -31.5 21.5 -51.5v-54c0 -20.667 -7 -37.834 -21 -51.501s-31.333 -20.5 -52 -20.5c-20 0 -37.167 7 -51.5 21s-21.5 31 -21.5 51z" />
    <glyph glyph-name="slash" unicode="/" horiz-adv-x="407" 
d="M7 16.5c-8.66699 21 -8.66699 42.5 0 64.5l241 598c8.66699 22 23.334 37.833 44.001 47.5s41.667 10.167 63 1.5c21.333 -8 36.333 -22.833 45 -44.5s8.66699 -43.5 0 -65.5l-240 -598c-8.66699 -22.667 -23.5 -38.5 -44.5 -47.5s-42.5 -9.16699 -64.5 -0.5
c-20.667 8.66699 -35.334 23.5 -44.001 44.5z" />
    <glyph glyph-name="zero" unicode="0" horiz-adv-x="727" 
d="M72 259c-6 62.667 -6.00098 123.334 -0.000976562 182.001c6.66699 82 36 147.333 88 196s119.667 73 203 73c82.667 0 150.5 -24.833 203.5 -74.5s82.833 -114.5 89.5 -194.5c4.66699 -60.667 4.66699 -121.334 0 -182.001c-6.66699 -80.667 -36.5 -145.5 -89.5 -194.5
s-120.833 -73.5 -203.5 -73.5c-83.333 0 -151.166 24.5 -203.499 73.5s-81.5 113.833 -87.5 194.5zM240.999 288c2 -43.333 13.833 -76.666 35.5 -99.999s50.5 -35 86.5 -35s65 11.667 87 35s34.333 56.666 37 99.999c2.66699 42 2.66699 84.667 0 128
c-2.66699 42.667 -15 75.667 -37 99s-51 35 -87 35c-35.333 0 -64 -11.667 -86 -35s-34 -56.333 -36 -99c-2.66699 -52 -2.66699 -94.667 0 -128z" />
    <glyph glyph-name="one" unicode="1" horiz-adv-x="541" 
d="M40.5 520.5c6.33301 22.333 19.501 39.501 39.501 51.501l206 116c14.667 8 29.667 12 45 12c25.333 0 45.5 -9.16699 60.5 -27.5s22.5 -37.833 22.5 -58.5v-533c0 -24 -7.83301 -44.167 -23.5 -60.5s-35.5 -24.5 -59.5 -24.5c-22.667 0 -42 8.33301 -58 25
s-24 36.667 -24 60v395l-88 -50c-20.667 -11.333 -42 -14 -64 -8s-38.667 19.333 -50 40c-10.667 19.333 -12.834 40.166 -6.50098 62.499z" />
    <glyph glyph-name="two" unicode="2" horiz-adv-x="618" 
d="M46 99c0 86.667 55 166.669 165 240.002c71.333 47.333 117 79.666 137 96.999s30 35.333 30 54c0 15.333 -6 29 -18 41s-32.333 18 -61 18c-42 0 -76 -14.667 -102 -44c-17.333 -18 -32 -29 -44 -33c-22 -6.66699 -43.667 -4.83398 -65 5.49902s-35 25.833 -41 46.5
c-7.33301 27.333 -3.66602 52 11.001 74c20.667 31.333 52 57.833 94 79.5s90.333 32.5 145 32.5c79.333 0 141 -20.333 185 -61s66 -92 66 -154c0 -40 -11 -78 -33 -114s-68.667 -78.333 -140 -127l-36 -23c-22 -14 -40.333 -26.667 -55 -38
s-23.334 -20.666 -26.001 -27.999h223c23.333 0 43.333 -8 60 -24s25 -35.333 25 -58c0 -24 -8.16699 -43.833 -24.5 -59.5s-36.5 -23.5 -60.5 -23.5h-335c-30 0 -54.167 8.66699 -72.5 26s-27.5 41.666 -27.5 72.999z" />
    <glyph glyph-name="three" unicode="3" horiz-adv-x="617" 
d="M28 617c0 23.333 8.16406 42.9971 24.4971 58.9971s36.166 24 59.499 24h302c28.667 0 52.5 -9.16699 71.5 -27.5s28.5 -41.833 28.5 -70.5c0 -28 -8.66699 -49.667 -26 -65l-104 -95c52 -8.66699 92.5 -28.5 121.5 -59.5s43.5 -69.833 43.5 -116.5
c0 -90 -40.167 -158.5 -120.5 -205.5s-186.166 -68.5 -317.499 -64.5c-24 0.666992 -43.333 8.33398 -58 23.001s-22.667 33.334 -24 56.001c-1.33301 24.667 7.33398 45.834 26.001 63.501s42 25.167 70 22.5c74 -6.66699 135.5 -0.666992 184.5 18s73.5 45.667 73.5 81
c0 18 -5.83301 32 -17.5 42s-28.167 15 -49.5 15c-10 0 -26.5 -2.5 -49.5 -7.5s-37.833 -7.5 -44.5 -7.5c-19.333 0 -36.666 6.83301 -51.999 20.5s-23 31.167 -23 52.5c0 27.333 12.333 50 37 68l124 89l-1 2h-195c-23.333 0 -43.166 8.16699 -59.499 24.5
s-24.5 35.833 -24.5 58.5z" />
    <glyph glyph-name="four" unicode="4" horiz-adv-x="680" 
d="M48 276c4.66699 16.667 14.668 35.002 30.001 55.002l238 314c28 36.667 61 55 99 55c33.333 0 59.5 -11 78.5 -33s28.5 -49 28.5 -81v-275h39c23.333 0 43 -7.83301 59 -23.5s24 -35.5 24 -59.5c0 -21.333 -8.33301 -40.5 -25 -57.5s-36 -25.5 -58 -25.5h-39v-64
c0 -22.667 -8.16699 -42.334 -24.5 -59.001s-35.833 -25 -58.5 -25c-24 0 -44 8.16699 -60 24.5s-24 36.166 -24 59.499v64h-203c-40.667 0 -70.334 13 -89.001 39s-23.667 56.667 -15 92zM235.001 305.002h120v160z" />
    <glyph glyph-name="five" unicode="5" horiz-adv-x="631" 
d="M60 75c-1.33301 24.667 6.5 45.3291 23.5 61.9961s37.833 25 62.5 25c82 0 147.833 8.83301 197.5 26.5s74.5 45.167 74.5 82.5c0 20.667 -8.5 36.834 -25.5 48.501s-39.167 17.5 -66.5 17.5c-24.667 0 -66 -9.66699 -124 -29c-40.667 -12 -71.834 -10.167 -93.501 5.5
s-32.5 39.834 -32.5 72.501v208c0 37.333 10.333 64.333 31 81s46.334 25 77.001 25h280c24 0 44 -7.66699 60 -23s24 -34.666 24 -57.999c0 -22.667 -8.33301 -42.334 -25 -59.001s-36.334 -25 -59.001 -25h-228v-90c40.667 22.667 87.334 34 140.001 34
c62.667 0 113 -18.167 151 -54.5s57 -83.833 57 -142.5c0 -91.333 -40.833 -161.666 -122.5 -210.999s-187.5 -74 -317.5 -74c-23.333 0 -43 7.33301 -59 22s-24.333 33.334 -25 56.001z" />
    <glyph glyph-name="six" unicode="6" horiz-adv-x="693" 
d="M70 367c5.33301 110.667 36.334 196.169 93.001 256.502s138 90.5 244 90.5c16.667 0 30.167 -0.166992 40.5 -0.5s23.833 -1.33301 40.5 -3s30.167 -4.5 40.5 -8.5s20.833 -9.33301 31.5 -16s18.667 -15.5 24 -26.5s8 -23.833 8 -38.5c0 -24 -7.5 -42.833 -22.5 -56.5
s-35.833 -20.5 -62.5 -20.5c-3.33301 0 -16.5 1.16699 -39.5 3.5s-43.5 3.5 -61.5 3.5c-47.333 0 -84.333 -8.83301 -111 -26.5s-43.334 -46.834 -50.001 -87.501c48 24 96.667 36 146 36c77.333 0 137.333 -21.667 180 -65s64 -97.333 64 -162
c0 -72.667 -24.333 -133.334 -73 -182.001s-117.667 -73 -207 -73c-57.333 0 -105.833 10 -145.5 30s-69.834 48 -90.501 84s-34.667 75.333 -42 118s-9.66602 90.667 -6.99902 144zM236.001 290.002c-1.33301 -89.333 39 -133.999 121 -133.999c36 0 63.333 7.66699 82 23
s28 35.333 28 60c0 27.333 -10.333 47.666 -31 60.999s-47 20 -79 20c-36.667 0 -77 -10 -121 -30z" />
    <glyph glyph-name="seven" unicode="7" horiz-adv-x="557" 
d="M19 619c0 24 7.99902 43.498 23.999 58.498s36 22.5 60 22.5h344c30 0 54.333 -8.66699 73 -26s28 -40.333 28 -69c0 -19.333 -6 -38.666 -18 -57.999c-72 -116.667 -126.5 -210.167 -163.5 -280.5s-64.833 -139.166 -83.5 -206.499
c-8.66699 -30.667 -26.667 -50.5 -54 -59.5s-50.333 -6.5 -69 7.5c-36 19.333 -47.667 52 -35 98c25.333 96 95.333 239.667 210 431h-232c-23.333 0 -43.166 8 -59.499 24s-24.5 35.333 -24.5 58z" />
    <glyph glyph-name="eight" unicode="8" horiz-adv-x="706" 
d="M63 198c0 78 34.668 133.668 104.001 167.001c-60 30 -90 80.667 -90 152c0 62 24.667 109.667 74 143s116.333 50 201 50c85.333 0 152.666 -16.667 201.999 -50s74 -80.666 74 -141.999c0 -70 -29.667 -121 -89 -153c69.333 -33.333 104 -89 104 -167
c0 -60.667 -25.167 -110.334 -75.5 -149.001s-121.833 -58 -214.5 -58c-93.333 0 -165 19.167 -215 57.5s-75 88.166 -75 149.499zM231.001 217.001c0 -22.667 10.1689 -40.5 30.502 -53.5s51.166 -19.5 92.499 -19.5s72.333 6.66699 93 20s31 31 31 53
s-10.5 39.667 -31.5 53s-51.833 20 -92.5 20s-71.334 -6.5 -92.001 -19.5s-31 -30.833 -31 -53.5zM244.003 497.001c0 -20.667 9.50098 -37.333 28.501 -50s45.167 -19 78.5 -19s60.166 6.5 80.499 19.5s30.5 29.833 30.5 50.5c0 20 -9.5 35.667 -28.5 47s-45.5 17 -79.5 17
c-34.667 0 -61.667 -5.83301 -81 -17.5s-29 -27.5 -29 -47.5z" />
    <glyph glyph-name="nine" unicode="9" horiz-adv-x="692" 
d="M58 456c0 72.667 24.3281 133.334 72.9951 182.001s117.667 73 207 73c56.667 0 104.834 -9.83301 144.501 -29.5s69.667 -47.334 90 -83.001s34.333 -74.667 42 -117s10.167 -89.833 7.5 -142.5c-6.66699 -122 -45 -209.833 -115 -263.5s-176 -80.167 -318 -79.5
c-25.333 0 -46.166 7.5 -62.499 22.5s-25.166 33.833 -26.499 56.5c-1.33301 22 5.5 41.667 20.5 59s35.167 26.666 60.5 27.999c5.33301 0.666992 20 1.33398 44 2.00098s42 1.5 54 2.5s28.833 3.66699 50.5 8s38.834 9.83301 51.501 16.5s25.5 16.5 38.5 29.5
s22.833 28.5 29.5 46.5c-39.333 -22.667 -90.666 -34 -153.999 -34c-74 0 -132 21.167 -174 63.5s-63 95.5 -63 159.5zM224.995 463c0 -27.333 10.332 -47.833 30.999 -61.5s47.334 -20.5 80.001 -20.5c38 0 78 8.66699 120 26c0 92.667 -40.333 139 -121 139
c-36 0 -63.333 -7.66699 -82 -23s-28 -35.333 -28 -60z" />
    <glyph glyph-name="colon" unicode=":" horiz-adv-x="254" 
d="M54 63v50c0 20 6.66699 36.833 20 50.5s31 20.5 53 20.5c21.333 0 38.833 -6.83301 52.5 -20.5s20.5 -30.5 20.5 -50.5v-48c0 -20.667 -6.66699 -37.667 -20 -51s-31 -20 -53 -20s-39.667 6.5 -53 19.5s-20 29.5 -20 49.5zM54 390v49c0 20 6.66699 36.833 20 50.5
s31 20.5 53 20.5c21.333 0 38.833 -6.83301 52.5 -20.5s20.5 -30.5 20.5 -50.5v-48c0 -20 -6.83301 -36.833 -20.5 -50.5s-31.167 -20.5 -52.5 -20.5s-38.833 6.66699 -52.5 20s-20.5 30 -20.5 50z" />
    <glyph glyph-name="semicolon" unicode=";" horiz-adv-x="254" 
d="M43 -55c0 8.66699 4.33301 23.001 13 43.001s13 39.333 13 58v68c0 20 6.33301 36.5 19 49.5s29.667 19.5 51 19.5c20 0 36.5 -6.66699 49.5 -20s19.5 -29.666 19.5 -48.999v-60c0 -16.667 -1.83301 -34.334 -5.5 -53.001s-9 -37.334 -16 -56.001
s-17.5 -34.167 -31.5 -46.5s-30.333 -18.5 -49 -18.5c-28 0 -47.667 13.667 -59 41c-2.66699 10.667 -4 18.667 -4 24zM67 390.001v49c0 20 6.66699 36.833 20 50.5s31 20.5 53 20.5c21.333 0 38.833 -6.83301 52.5 -20.5s20.5 -30.5 20.5 -50.5v-48
c0 -20 -6.83301 -36.833 -20.5 -50.5s-31.167 -20.5 -52.5 -20.5s-38.833 6.66699 -52.5 20s-20.5 30 -20.5 50z" />
    <glyph glyph-name="less" unicode="&#x3c;" horiz-adv-x="628" 
d="M96 350c0 35.333 17.667 67.335 53 96.002l250 203c18 14 37.333 20 58 18s38 -11.333 52 -28s19.833 -35.667 17.5 -57s-11.833 -39 -28.5 -53l-205 -165c-6 -4.66699 -9 -9.33398 -9 -14.001s3 -9.33398 9 -14.001l205 -165c16.667 -14 26.167 -31.667 28.5 -53
s-3.5 -40.333 -17.5 -57s-31.333 -26 -52 -28s-40 4 -58 18l-250 203c-35.333 28.667 -53 60.667 -53 96z" />
    <glyph glyph-name="equal" unicode="=" horiz-adv-x="628" 
d="M67 237c0 22 7.66797 40.5029 23.001 55.5029s34 22.5 56 22.5h337c22 0 40.5 -7.33301 55.5 -22s22.5 -33.334 22.5 -56.001c0 -20.667 -7.83301 -38.834 -23.5 -54.501s-33.834 -23.5 -54.501 -23.5h-337c-22 0 -40.667 7.66699 -56 23s-23 33.666 -23 54.999z
M67.001 465.003c0 22 7.66797 40.5 23.001 55.5s34 22.5 56 22.5h337c22 0 40.5 -7.5 55.5 -22.5s22.5 -33.5 22.5 -55.5c0 -21.333 -7.83301 -39.666 -23.5 -54.999s-33.834 -23 -54.501 -23h-337c-22 0 -40.667 7.66699 -56 23s-23 33.666 -23 54.999z" />
    <glyph glyph-name="greater" unicode="&#x3e;" horiz-adv-x="628" 
d="M101.5 118c2.33301 21.333 11.833 38.998 28.5 52.998l205 165c6 4.66699 9 9.33398 9 14.001s-3 9.33398 -9 14.001l-205 165c-16.667 14 -26.167 31.667 -28.5 53s3.5 40.333 17.5 57s31.333 26 52 28s40 -4 58 -18l250 -203c35.333 -28.667 53 -60.667 53 -96
s-17.667 -67.333 -53 -96l-250 -203c-18 -14 -37.333 -20 -58 -18s-38 11.333 -52 28s-19.833 35.667 -17.5 57z" />
    <glyph glyph-name="question" unicode="?" horiz-adv-x="548" 
d="M34 555c0 18.667 7.33594 37.667 22.0029 57c25.333 32 57.666 56.333 96.999 73s80 25 122 25c67.333 0 122.333 -18.5 165 -55.5s64 -85.167 64 -144.5c0 -115.333 -70.667 -205.333 -212 -270c-16.667 -8 -35 -12 -55 -12c-18.667 0 -35.334 6.83301 -50.001 20.5
s-22 29.834 -22 48.501c0 35.333 17.333 61 52 77c39.333 17.333 69.166 35.166 89.499 53.499s30.5 39.5 30.5 63.5c0 16.667 -6.33301 30.667 -19 42s-28.667 17 -48 17c-30 0 -59.333 -15.333 -88 -46c-19.333 -22 -41.333 -33 -66 -33c-23.333 0 -42.833 8.5 -58.5 25.5
s-23.5 36.5 -23.5 58.5zM172.003 64v43c0 20 6.66699 36.5 20 49.5s31 19.5 53 19.5c21.333 0 38.833 -6.5 52.5 -19.5s20.5 -29.5 20.5 -49.5v-43c0 -20 -6.83301 -36.667 -20.5 -50s-31.167 -20 -52.5 -20s-38.833 6.66699 -52.5 20s-20.5 30 -20.5 50z" />
    <glyph glyph-name="at" unicode="@" horiz-adv-x="905" 
d="M51 177c-4 64 -4.00293 128.664 -0.00292969 193.997c5.33301 104.667 46.833 187.334 124.5 248.001s170.834 91 279.501 91c71.333 0 137.166 -13.667 197.499 -41s109.5 -68.333 147.5 -123s57 -117.334 57 -188.001v-136c0 -51.333 -15.833 -91.666 -47.5 -120.999
s-68.5 -44 -110.5 -44c-53.333 0 -95.833 16.5 -127.5 49.5s-47.5 71.167 -47.5 114.5v78c0 20.667 -5.66699 37.5 -17 50.5s-27.666 19.5 -48.999 19.5s-37.666 -6.5 -48.999 -19.5s-17 -29.833 -17 -50.5v-65c0 -23.333 6.33301 -39.833 19 -49.5
s28.334 -12.5 47.001 -8.5c15.333 2.66699 28.833 0.166992 40.5 -7.5s19.167 -18.5 22.5 -32.5c4 -16.667 2.5 -31.667 -4.5 -45s-18.833 -22.666 -35.5 -27.999c-14.667 -4.66699 -31 -7 -49 -7c-53.333 0 -95.5 15.833 -126.5 47.5s-46.5 75.167 -46.5 130.5v87
c0 53.333 18.167 96.333 54.5 129s82.833 49 139.5 49s104.5 -16.5 143.5 -49.5s58.833 -76.167 59.5 -129.5v-98c0 -24 10.333 -36 31 -36c8.66699 0 15.667 3.33301 21 10s8 15.334 8 26.001v111c0 72.667 -26.333 131 -79 175s-114 66 -184 66s-129 -20.5 -177 -61.5
s-74.333 -93.5 -79 -157.5c-4.66699 -48 -4.66699 -102.333 0 -163c4.66699 -64.667 28.667 -116 72 -154s99.333 -57 168 -57c44 0 83 6 117 18c13.333 6.66699 29.5 8.66699 48.5 6s33.5 -11.667 43.5 -27c10 -14.667 13 -31.167 9 -49.5s-14 -32.833 -30 -43.5
c-44 -29.333 -106.333 -44 -187 -44c-64.667 0 -125 12 -181 36s-103.333 62 -142 114s-60 114 -64 186z" />
    <glyph glyph-name="A" unicode="A" horiz-adv-x="700" 
d="M22 112l179.002 496.999c27.333 73.333 77.333 110 150 110c73.333 0 123.666 -36.667 150.999 -110l176 -497c4 -10 6 -20 6 -30c0 -11.333 -2.66699 -22.666 -8 -33.999c-9.33301 -22 -24.333 -37 -45 -45c-10.667 -4 -21.334 -6 -32.001 -6l-34 7
c-22 9.33301 -36.333 24.666 -43 45.999l-43 128h-258l-43 -128c-8.66699 -21.333 -23.667 -36.666 -45 -45.999c-11.333 -5.33301 -22.666 -8 -33.999 -8l-30 6c-20.667 8 -35.667 23 -45 45c-4.66699 11.333 -7.33398 23 -8.00098 35c0 10 2 20 6 30zM270.002 321.999h161
l-70 213c-2 5.33301 -5.33301 8 -10 8s-7.66699 -2.66699 -9 -8z" />
    <glyph glyph-name="B" unicode="B" horiz-adv-x="671" 
d="M66 114v481.999c0 32.667 10.333 60 31 82s49.334 33 86.001 33h227c64 0 114.333 -18.5 151 -55.5s55 -82.5 55 -136.5c0 -69.333 -27.667 -119.333 -83 -150v-2c31.333 -12 56.166 -31.833 74.499 -59.5s27.5 -61.5 27.5 -101.5c0 -65.333 -20.833 -116 -62.5 -152
s-96.5 -54 -164.5 -54h-225c-36 0 -64.5 10.833 -85.5 32.5s-31.5 48.834 -31.5 81.501zM234 154.999h157c50 0 75 23.667 75 71c0 46.667 -25.667 70 -77 70h-155v-141zM234 424.999h144c23.333 0 41 5.83301 53 17.5s18 27.167 18 46.5c0 44 -23.667 66 -71 66h-144v-130z
" />
    <glyph glyph-name="C" unicode="C" horiz-adv-x="670" 
d="M48 273c-2.66699 27.333 -4.00195 54.168 -4.00195 80.501s1.33301 52.166 4 77.499c7.33301 82.667 39 151.334 95 206.001s127 82 213 82c58.667 0 112.334 -13.167 161.001 -39.5s84 -64.166 106 -113.499c6 -16 9 -31.667 9 -47c0 -22 -8.66699 -40.667 -26 -56
s-36.333 -23 -57 -23c-18 0 -32.333 4.16699 -43 12.5s-21 20.166 -31 35.499c-28 46.667 -67.667 70 -119 70c-41.333 0 -74 -14 -98 -42s-37.667 -64.667 -41 -110c-1.33301 -18.667 -1.83301 -37.334 -1.5 -56.001s0.833008 -37.334 1.5 -56.001
c3.33301 -45.333 17 -81 41 -107s56.667 -39 98 -39c51.333 0 91 23.333 119 70c10 16 20.167 28 30.5 36s24.833 12 43.5 12c20.667 0 39.667 -7.66699 57 -23s26 -34 26 -56c0 -15.333 -3 -31 -9 -47c-21.333 -49.333 -56.5 -87.166 -105.5 -113.499
s-102.5 -39.5 -160.5 -39.5c-86 0 -157.167 27.167 -213.5 81.5s-88.166 122.5 -95.499 204.5z" />
    <glyph glyph-name="D" unicode="D" horiz-adv-x="716" 
d="M66 114l0.00195312 481.999c0 33.333 10.167 60.5 30.5 81.5s49.166 31.5 86.499 31.5h145c108 0 190.167 -26.333 246.5 -79s87.833 -124.667 94.5 -216c2 -22.667 3 -44 3 -64c0 -16 -0.666992 -30.667 -2 -44c-6.66699 -94 -37.834 -168.5 -93.501 -223.5
s-138.5 -82.5 -248.5 -82.5h-145c-36 0 -64.5 10.833 -85.5 32.5s-31.5 48.834 -31.5 81.501zM236.002 166.999l97 0.000976562c104 0 159.667 49.667 167 149c1.33301 13.333 2 27 2 41c0 9.33301 -0.333008 18.666 -1 27.999c-4 106 -60 159 -168 159h-97v-377z" />
    <glyph glyph-name="E" unicode="E" horiz-adv-x="631" 
d="M66 115v481.001c0 32.667 10.333 59.667 31 81s49.334 32 86.001 32h321c22.667 0 41.834 -7.33301 57.501 -22s23.5 -33 23.5 -55c0 -21.333 -8.16699 -39.833 -24.5 -55.5s-35.166 -23.5 -56.499 -23.5h-268v-125h230c23.333 0 41.833 -6.5 55.5 -19.5
s20.5 -30.5 20.5 -52.5c0 -20 -7.16699 -37.167 -21.5 -51.5s-32.5 -21.5 -54.5 -21.5h-230v-126h270c21.333 0 40.166 -7.83301 56.499 -23.5s24.5 -33.834 24.5 -54.501c0 -22.667 -7.83301 -41.5 -23.5 -56.5s-34.834 -22.5 -57.501 -22.5h-323
c-36.667 0 -65.334 11 -86.001 33s-31 49.333 -31 82z" />
    <glyph glyph-name="F" unicode="F" horiz-adv-x="611" 
d="M66 83l-0.00390625 513.002c0 32.667 10.333 59.667 31 81s49.334 32 86.001 32h311c22.667 0 41.834 -7.33301 57.501 -22s23.5 -33 23.5 -55c0 -21.333 -8.16699 -39.833 -24.5 -55.5s-35.166 -23.5 -56.499 -23.5h-258v-142h234c22.667 0 41.834 -7.5 57.501 -22.5
s23.5 -33.833 23.5 -56.5c0 -21.333 -8.16699 -39.833 -24.5 -55.5s-35.166 -23.5 -56.499 -23.5h-234v-170c0 -24.667 -8.16699 -45.334 -24.5 -62.001s-36.833 -25 -61.5 -25c-22.667 0 -42.334 8.66699 -59.001 26s-25 37.666 -25 60.999z" />
    <glyph glyph-name="G" unicode="G" horiz-adv-x="698" 
d="M48 273c-2.66699 27.333 -3.99805 54.168 -3.99805 80.501s1.33301 52.166 4 77.499c8 82.667 40.167 151.334 96.5 206.001s127.166 82 212.499 82c116 0 202 -44 258 -132c10.667 -14.667 16 -32.334 16 -53.001c0 -21.333 -8 -39.833 -24 -55.5
s-35.333 -23.5 -58 -23.5c-25.333 0 -47 12.333 -65 37c-15.333 22.667 -31.666 39.667 -48.999 51s-42 17 -74 17c-86.667 0 -134.667 -51.333 -144 -154c-1.33301 -13.333 -2 -29.666 -2 -48.999s0.666992 -41 2 -65c7.33301 -101.333 57.666 -152 150.999 -152
c41.333 0 72.5 9.66699 93.5 29s31.5 41.666 31.5 66.999v19h-68c-21.333 0 -39.5 7.5 -54.5 22.5s-22.5 32.833 -22.5 53.5c0 21.333 7.5 39.333 22.5 54s33.167 22 54.5 22h120c33.333 0 59.666 -10.333 78.999 -31s29 -46 29 -76v-48c0 -78 -28.333 -141.667 -85 -191
s-126.667 -74 -210 -74c-86 0 -157.333 27.167 -214 81.5s-88.667 122.5 -96 204.5z" />
    <glyph glyph-name="H" unicode="H" horiz-adv-x="746" 
d="M66 82l0.00195312 540.001c0 24 8.33301 44.5 25 61.5s36.667 25.5 60 25.5c24.667 0 45 -8.33301 61 -25s24 -37.334 24 -62.001v-191h274v191c0 24 8.16699 44.5 24.5 61.5s36.166 25.5 59.499 25.5c24 0 44.167 -8.5 60.5 -25.5s24.5 -37.5 24.5 -61.5v-538
c0 -24.667 -8.16699 -45.5 -24.5 -62.5s-36.5 -25.5 -60.5 -25.5c-22.667 0 -42.334 8.83301 -59.001 26.5s-25 38.167 -25 61.5v188h-274v-190c0 -24.667 -8 -45.167 -24 -61.5s-36.333 -24.5 -61 -24.5c-22.667 0 -42.5 8.5 -59.5 25.5s-25.5 37.167 -25.5 60.5z" />
    <glyph glyph-name="I" unicode="I" horiz-adv-x="302" 
d="M66 84v538c0 24 8.5 44.5 25.5 61.5s36.833 25.5 59.5 25.5c24 0 44.167 -8.5 60.5 -25.5s24.5 -37.5 24.5 -61.5v-538c0 -24.667 -8.16699 -45.5 -24.5 -62.5s-36.5 -25.5 -60.5 -25.5c-23.333 0 -43.333 8.5 -60 25.5s-25 37.833 -25 62.5z" />
    <glyph glyph-name="J" unicode="J" horiz-adv-x="566" 
d="M23 162c0 21.333 7.33301 40 22 56s33 24 55 24c30 0 55 -14.667 75 -44c22 -32.667 49.667 -49 83 -49c21.333 0 39.5 7.5 54.5 22.5s22.5 36.5 22.5 64.5v386c0 24 8.33301 44.5 25 61.5s36.334 25.5 59.001 25.5c24 0 44.167 -8.5 60.5 -25.5s24.5 -37.5 24.5 -61.5
v-375c0 -76 -24 -138.333 -72 -187s-107 -73 -177 -73c-50.667 0 -95.334 11.833 -134.001 35.5s-68 55.167 -88 94.5c-6.66699 15.333 -10 30.333 -10 45z" />
    <glyph glyph-name="K" unicode="K" horiz-adv-x="665" 
d="M66 84l-0.000976562 538.002c0 24 8.5 44.5 25.5 61.5s36.833 25.5 59.5 25.5c24 0 44.167 -8.5 60.5 -25.5s24.5 -37.5 24.5 -61.5v-186h4c22.667 0 41 7.66699 55 23l201 220c17.333 20 38.5 30 63.5 30s44.833 -8.33301 59.5 -25
c15.333 -16.667 23 -35.334 23 -56.001s-6.66699 -38.334 -20 -53.001l-203 -214l197 -219c16.667 -19.333 25 -40.666 25 -63.999c0 -20.667 -7.33301 -39.334 -22 -56.001c-16 -17.333 -36.167 -26 -60.5 -26s-45.166 9.66699 -62.499 29l-201 225
c-12.667 15.333 -31 23 -55 23h-4v-189c0 -24.667 -8.16699 -45.5 -24.5 -62.5s-36.5 -25.5 -60.5 -25.5c-22.667 0 -42.5 8.83301 -59.5 26.5s-25.5 38.167 -25.5 61.5z" />
    <glyph glyph-name="L" unicode="L" horiz-adv-x="574" 
d="M66 88v534.001c0 24 8.5 44.5 25.5 61.5s36.833 25.5 59.5 25.5c24 0 44.167 -8.5 60.5 -25.5s24.5 -37.5 24.5 -61.5v-455h247c22.667 0 42.667 -8.33301 60 -25s26 -36.334 26 -59.001c0 -23.333 -8.33301 -43 -25 -59s-37 -24 -61 -24h-328
c-27.333 -0 -49 8.33301 -65 25s-24 37.667 -24 63z" />
    <glyph glyph-name="M" unicode="M" horiz-adv-x="963" 
d="M54 103l62.002 462.999c7.33301 48 24 84 50 108s57.667 36 95 36c39.333 0 72.833 -11.5 100.5 -34.5s45.167 -59.167 52.5 -108.5l63 -365c0 -4 1.66699 -6 5 -6c4 0 6 2 6 6l62 365c7.33301 49.333 24.666 85.5 51.999 108.5s60.666 34.5 99.999 34.5
c37.333 0 69 -12 95 -36s42.667 -60 50 -108l62 -462c1.33301 -7.33301 2 -14.333 2 -21c0.666992 -17.333 -3 -33 -11 -47c-10.667 -20 -28 -33 -52 -39c-9.33301 -2 -18.333 -3 -27 -3c-16.667 0 -32.334 4 -47.001 12c-21.333 13.333 -33.333 32.666 -36 57.999l-43 453
c0 2.66699 -1.33301 4 -4 4s-4 -1.33301 -4 -4l-75 -404c-6.66699 -38.667 -22.167 -68 -46.5 -88s-52.166 -30 -83.499 -30s-59 10 -83 30s-39.333 49.333 -46 88l-77 404c0 2.66699 -1.33301 4 -4 4s-4 -1.66699 -4 -5l-43 -453c-2 -24.667 -13.667 -43.667 -35 -57
c-14 -8.66699 -29.667 -12.667 -47 -12c-8.66699 0 -17.667 1 -27 3c-24 6 -41.333 19 -52 39c-8 14.667 -12 30.334 -12 47.001c0 6.66699 0.666992 13.334 2 20.001z" />
    <glyph glyph-name="N" unicode="N" horiz-adv-x="766" 
d="M66 81v493.002c0 37.333 11.667 68.666 35 93.999s53.333 38 90 38c59.333 0 100.333 -23.667 123 -71l224 -419v-1l3 1c-7.33301 76.667 -11 169 -11 277v129c0 24 8.33301 44.5 25 61.5s36.667 25.5 60 25.5c24.667 0 45 -8.33301 61 -25s24 -37.334 24 -62.001v-496
c0 -36.667 -11.5 -67.667 -34.5 -93s-52.833 -38 -89.5 -38c-58 0 -98.667 23.333 -122 70l-229 428l-3 -1c8 -83.333 12 -165.333 12 -246v-165c0 -24.667 -7.83301 -45.5 -23.5 -62.5s-35.5 -25.5 -59.5 -25.5c-22.667 0 -42.5 8.83301 -59.5 26.5
s-25.5 38.167 -25.5 61.5z" />
    <glyph glyph-name="O" unicode="O" horiz-adv-x="737" 
d="M48 273c-2.66699 27.333 -4 54.1689 -4 80.502s1.33301 52.166 4 77.499c7.33301 82 40.833 150.5 100.5 205.5s132.5 82.5 218.5 82.5s159.333 -27.833 220 -83.5s94.667 -123.834 102 -204.501c2 -26.667 3 -53.167 3 -79.5s-1 -52.5 -3 -78.5
c-7.33301 -80.667 -41.333 -148.5 -102 -203.5s-134 -82.5 -220 -82.5s-158.833 27.333 -218.5 82s-93.167 122.667 -100.5 204zM217 298.003c3.33301 -44 18.666 -79.9971 45.999 -107.997s62 -42 104 -42c42.667 0 78 14 106 42s43.333 64 46 108
c2 18.667 3 37.167 3 55.5s-1 37.166 -3 56.499c-2.66699 43.333 -18 79 -46 107s-63.333 42 -106 42c-42 0 -76.667 -13.833 -104 -41.5s-42.666 -63.5 -45.999 -107.5c-1.33301 -18.667 -2 -37.334 -2 -56.001s0.666992 -37.334 2 -56.001z" />
    <glyph glyph-name="P" unicode="P" horiz-adv-x="651" 
d="M66 84l-0.000976562 523.001c0 29.333 9.33301 53.666 28 72.999s44.334 29 77.001 29h200c72 0 132.667 -22 182 -66s74 -104 74 -180c0 -77.333 -24.5 -138 -73.5 -182s-112.833 -66 -191.5 -66h-125v-131c0 -23.333 -8.5 -43.833 -25.5 -61.5
s-36.833 -26.5 -59.5 -26.5s-42.667 8.83301 -60 26.5s-26 38.167 -26 61.5zM236.999 370.001l120 -0.000976562c66 0 99 30.667 99 92c0 28.667 -8 51.334 -24 68.001s-40.333 25 -73 25h-122v-185z" />
    <glyph glyph-name="Q" unicode="Q" horiz-adv-x="737" 
d="M48 273c-2.66699 27.333 -4 54.168 -4 80.501s1.33301 52.166 4 77.499c7.33301 82 40.833 150.5 100.5 205.5s132.5 82.5 218.5 82.5s159.333 -27.833 220 -83.5s94.667 -123.834 102 -204.501c2 -26.667 3 -53.167 3 -79.5s-1 -52.5 -3 -78.5
c-6 -68 -31.333 -127.333 -76 -178l65 -79c8.66699 -11.333 13 -25 13 -41v-9c-2 -20 -9.66699 -35.333 -23 -46c-15.333 -11.333 -31.666 -17 -48.999 -17h-3c-18.667 0.666992 -34.334 8.33398 -47.001 23.001l-70 87c-40.667 -17.333 -84.667 -26 -132 -26
c-86 0 -158.833 27.333 -218.5 82s-93.167 122.667 -100.5 204zM217 290.002c3.33301 -44 18.665 -79.999 45.998 -107.999s62 -42 104 -42c6 0 15 0.666992 27 2l-68 85c-9.33301 10.667 -14 24 -14 40v8c2 19.333 9.33301 35 22 47s28.334 18 47.001 18h5
c20 -1.33301 36.667 -9.66602 50 -24.999l69 -86c7.33301 16 12 36.333 14 61c2 19.333 3 39.166 3 59.499s-1 40.5 -3 60.5c-2.66699 43.333 -18 79 -46 107s-63.333 42 -106 42c-42 0 -76.667 -13.833 -104 -41.5s-42.666 -63.5 -45.999 -107.5
c-0.666992 -20.667 -1 -40.834 -1 -60.501s0.333008 -39.5 1 -59.5z" />
    <glyph glyph-name="R" unicode="R" horiz-adv-x="678" 
d="M66 82v525c0 29.333 9.33301 53.666 28 72.999s44.334 29 77.001 29h206c71.333 0 131 -21 179 -63s72 -100.333 72 -175c0 -54 -12 -97.333 -36 -130s-53 -56 -87 -70l118 -132c14.667 -14.667 22 -34 22 -58c0 -25.333 -8 -45.666 -24 -60.999
c-18.667 -17.333 -39.667 -26 -63 -26c-0.666992 0 -1 -0.333008 -1 -1c-22.667 0 -42 8.33301 -58 25l-144 178c-9.33301 11.333 -17.833 19.5 -25.5 24.5s-17.834 7.5 -30.501 7.5h-62v-146c0 -23.333 -8.5 -43.833 -25.5 -61.5s-37.167 -26.5 -60.5 -26.5
c-22.667 0 -42.5 8.83301 -59.5 26.5s-25.5 38.167 -25.5 61.5zM237 382h121.999c65.333 0 98 28.333 98 85c0 27.333 -7.66699 48.833 -23 64.5s-38.666 23.5 -69.999 23.5h-127v-173z" />
    <glyph glyph-name="S" unicode="S" horiz-adv-x="646" 
d="M39 134c0 24.667 8.16309 45.333 24.4961 62s36.5 25 60.5 25c20.667 0 41.334 -8 62.001 -24c43.333 -31.333 94.666 -47 153.999 -47c30.667 0 54.834 5.16699 72.501 15.5s26.5 24.833 26.5 43.5c0 26.667 -43 49 -129 67l-12 3c-85.333 18 -147 44 -185 78
s-57 82.333 -57 145c0 64 25.167 116.167 75.5 156.5s113.166 60.5 188.499 60.5c50.667 0 96.334 -5.33301 137.001 -16s71.334 -25 92.001 -43c18 -16 27 -37.333 27 -64c0 -22 -7.5 -40.667 -22.5 -56s-33.5 -23 -55.5 -23c-14 0 -34.333 5.66699 -61 17
c-33.333 16.667 -72.666 25 -117.999 25c-30 0 -52.833 -5.66699 -68.5 -17s-23.5 -25 -23.5 -41c0 -17.333 9.33301 -30.666 28 -39.999s50 -18 94 -26c90 -16.667 156 -42.834 198 -78.501s63 -84.5 63 -146.5c0 -64 -25.667 -117.167 -77 -159.5
s-120.333 -63.5 -207 -63.5c-101.333 0 -182.666 24.333 -243.999 73c-28.667 21.333 -43 46 -43 74z" />
    <glyph glyph-name="T" unicode="T" horiz-adv-x="630" 
d="M7 625c0 24 8.33301 44 25 60s37 24 61 24h444c24 0 44.333 -8 61 -24s25 -36 25 -60c0 -22.667 -8.5 -42.334 -25.5 -59.001s-37.167 -25 -60.5 -25h-137v-459c0 -24 -8 -44.333 -24 -61s-36 -25 -60 -25c-22.667 0 -42.667 8.66699 -60 26s-26 37.333 -26 60v459h-137
c-24 0 -44.333 8.33301 -61 25s-25 36.334 -25 59.001z" />
    <glyph glyph-name="U" unicode="U" horiz-adv-x="747" 
d="M61 311l-0.000976562 310.999c0 24 8.33301 44.5 25 61.5s36.334 25.5 59.001 25.5c24 0 44.167 -8.5 60.5 -25.5s24.5 -37.5 24.5 -61.5v-324c0 -46.667 13.5 -83.834 40.5 -111.501s61.5 -41.5 103.5 -41.5s76.333 13.833 103 41.5s40 64.834 40 111.501v324
c0 24.667 8.33301 45.334 25 62.001s36.667 25 60 25c24.667 0 45 -8.33301 61 -25s24 -37.334 24 -62.001v-311c0 -95.333 -29.667 -173.166 -89 -233.499s-134.333 -90.5 -225 -90.5c-90 0 -164.5 30 -223.5 90s-88.5 138 -88.5 234z" />
    <glyph glyph-name="V" unicode="V" horiz-adv-x="696" 
d="M22 590c-3.33301 10.667 -5.00195 21.001 -5.00195 31.001c0 12.667 2.66699 25.667 8 39c10 22.667 26 37.334 48 44.001c9.33301 3.33301 18.333 5 27 5c12.667 0.666992 25.334 -2.33301 38.001 -9c21.333 -10.667 36 -28 44 -52l158 -477c1.33301 -4.66699 4 -7 8 -7
s6.66699 2.33301 8 7l158 474c7.33301 24.667 21.333 43 42 55c12.667 7.33301 26 10.666 40 9.99902c8.66699 0 17.334 -1.33301 26.001 -4c22 -6.66699 38.333 -21.667 49 -45c6 -12.667 9 -25.667 9 -39c0 -10.667 -2 -21.334 -6 -32.001l-174 -479
c-30 -82.667 -81 -124 -153 -124s-123 41.333 -153 124z" />
    <glyph glyph-name="W" unicode="W" horiz-adv-x="967" 
d="M30 602c-2 7.33301 -3.00293 14.666 -3.00293 21.999c0.666992 14 4.33398 28 11.001 42c10.667 20.667 27.334 34 50.001 40c8 2 15.667 3 23 3c15.333 -0.666992 30.333 -5 45 -13c21.333 -12 34.333 -29 39 -51l72 -473c0.666992 -1.33301 1.66699 -2 3 -2
s2.33301 0.666992 3 2l78 412c7.33301 42.667 23.5 74.167 48.5 94.5s53.167 30.5 84.5 30.5c30 0 57.667 -10.5 83 -31.5s42 -52.5 50 -94.5l81 -410c0.666992 -2 1.66699 -3 3 -3s2.33301 1 3 3l73 472c6.66699 22.667 20 40 40 52c13.333 8 27.333 12 42 12
c7.33301 0 15 -1 23 -3c24 -6 41.333 -19.333 52 -40c6.66699 -13.333 10 -27.333 10 -42c0 -7.33301 -1 -14.666 -3 -21.999l-111 -501c-7.33301 -35.333 -23 -62.833 -47 -82.5s-50.667 -29.5 -80 -29.5c-30.667 0 -58.667 9.66699 -84 29s-41.333 46 -48 80l-85 410
c-0.666992 1.33301 -1.5 2 -2.5 2s-1.83301 -0.666992 -2.5 -2l-80 -407c-6.66699 -36 -22.667 -64 -48 -84s-53.666 -30 -84.999 -30c-32 0 -61 10.167 -87 30.5s-42.333 48.833 -49 85.5z" />
    <glyph glyph-name="X" unicode="X" horiz-adv-x="673" 
d="M28 75c-0.666992 3.33301 -0.999023 6.66602 -0.999023 9.99902c0 20 7 38.667 21 56l172 209l-171 212c-14.667 18 -22 37.333 -22 58c0 2.66699 0.333008 6 1 10c2.66699 25.333 15 46 37 62c16.667 12 34.334 18 53.001 18c4.66699 0 9.33398 -0.666992 14.001 -2
c24 -4 43.667 -15.333 59 -34l146 -182l149 182c17.333 20 38 31.333 62 34c4 0.666992 7.66699 1 11 1c20 0 38 -6.66699 54 -20c19.333 -15.333 30.333 -35 33 -59c0.666992 -4 0.666992 -8 0 -12c0 -20 -7 -38.667 -21 -56l-173 -211l169 -209c15.333 -18 23 -38 23 -60
v-8c-2.66699 -25.333 -15.334 -45.666 -38.001 -60.999c-16.667 -11.333 -34.667 -17 -54 -17c-4.66699 0 -9.33398 0.333008 -14.001 1c-24.667 3.33301 -44 14 -58 32l-145 180l-146 -179c-15.333 -18.667 -36 -29.667 -62 -33c-4.66699 -0.666992 -9.33398 -1 -14.001 -1
c-20 0 -37.333 6 -52 18c-19.333 16.667 -30.333 37 -33 61z" />
    <glyph glyph-name="Y" unicode="Y" horiz-adv-x="668" 
d="M8 630c2 23.333 12.335 43.001 31.002 59.001c15.333 14 33.333 21 54 21c3.33301 0 7 -0.333008 11 -1c24.667 -2.66699 44.334 -13.667 59.001 -33l170 -215l173 215c15.333 18.667 35 29.334 59 32.001c4 0.666992 8 1 12 1c19.333 0 36.666 -6.33301 51.999 -19
c18 -16 28.333 -36 31 -60c0.666992 -3.33301 1 -6.66602 1 -9.99902c0 -20 -7 -38.333 -21 -55l-194 -230c-7.33301 -8.66699 -12.333 -14.834 -15 -18.501s-5.33398 -9 -8.00098 -16s-4 -14.5 -4 -22.5v-195c0 -24.667 -8.16699 -45.334 -24.5 -62.001
s-36.833 -25 -61.5 -25c-22.667 0 -42.334 8.66699 -59.001 26s-25 37.666 -25 60.999v195c0 16.667 -9.33301 36 -28 58l-192 228c-14 18 -21 37.333 -21 58v8z" />
    <glyph glyph-name="Z" unicode="Z" horiz-adv-x="599" 
d="M25 102c0 31.333 12.333 61.334 37 90.001l281 349h-227c-23.333 0 -43.333 8.33301 -60 25s-25 36.334 -25 59.001c0 24 8.16699 44 24.5 60s36.5 24 60.5 24h336c33.333 0 60 -9.5 80 -28.5s30 -42.167 30 -69.5c0 -30.667 -13 -62 -39 -94l-278 -350h245
c23.333 0 43.5 -8.33301 60.5 -25s25.5 -36.334 25.5 -59.001c0 -23.333 -8.33301 -43 -25 -59s-37 -24 -61 -24h-348c-36 0 -64.5 9.66699 -85.5 29s-31.5 43.666 -31.5 72.999z" />
    <glyph glyph-name="bracketleft" unicode="[" horiz-adv-x="403" 
d="M39 -95l0.000976562 806.003c0 25.333 6.66699 45.166 20 59.499s32.666 21.5 57.999 21.5h199c24 0 44.333 -7.33301 61 -22s25 -34 25 -58c0 -23.333 -8.33301 -42.833 -25 -58.5s-37 -23.5 -61 -23.5h-111v-643h111c24 0 44.333 -7.33301 61 -22
s25 -34.334 25 -59.001c0 -22.667 -8.33301 -41.834 -25 -57.501s-37 -23.5 -61 -23.5h-199c-24 0 -43 7.16699 -57 21.5s-21 33.833 -21 58.5z" />
    <glyph glyph-name="backslash" unicode="\" horiz-adv-x="430" 
d="M5 652c-8.66699 22 -8.66699 43.833 0 65.5s23.667 36.834 45 45.501c22 8.66699 43.333 8 64 -2s35.334 -26 44.001 -48l267 -660c8.66699 -22 8.66699 -43.667 0 -65s-23.334 -36.333 -44.001 -45c-22 -8.66699 -43.333 -8.33398 -64 0.999023s-35.667 25.333 -45 48z
" />
    <glyph glyph-name="bracketright" unicode="]" horiz-adv-x="403" 
d="M1 -94c0 24 8.33398 43.4961 25.001 58.4961s37 22.5 61 22.5h112v643h-112c-24 0 -44.333 7.83301 -61 23.5s-25 34.834 -25 57.501c0 24.667 8.33301 44.334 25 59.001s37 22 61 22h199c25.333 0 44.666 -7.16699 57.999 -21.5s20 -34.166 20 -59.499v-806
c0 -24.667 -7 -44.167 -21 -58.5s-33 -21.5 -57 -21.5h-199c-24 0 -44.333 7.83301 -61 23.5s-25 34.834 -25 57.501z" />
    <glyph glyph-name="asciicircum" unicode="^" horiz-adv-x="480" 
d="M42 399l84.001 219c22.667 58 60.667 87 114 87s91.333 -29 114 -87l85 -219c7.33301 -18.667 6.33301 -38.167 -3 -58.5s-23.333 -34.5 -42 -42.5c-20.667 -8 -41.667 -7.5 -63 1.5s-34.333 23.167 -39 42.5l-42 156c-2 5.33301 -5.33301 8 -10 8s-8 -2.66699 -10 -8
l-42 -156c-4.66699 -19.333 -17.667 -33.5 -39 -42.5s-42.333 -9.5 -63 -1.5c-19.333 8 -33.333 22.167 -42 42.5s-9.33398 39.833 -2.00098 58.5z" />
    <glyph glyph-name="underscore" unicode="_" horiz-adv-x="472" 
d="M0 -80h472v-126h-472v126z" />
    <glyph glyph-name="grave" unicode="`" 
d="M83 888c0 17.333 6.16895 32.833 18.502 46.5s27.166 20.5 44.499 20.5c11.333 0 22.666 -3.33301 33.999 -10l134 -70c25.333 -13.333 38 -32 38 -56c0 -17.333 -6.16699 -32.5 -18.5 -45.5s-26.833 -19.5 -43.5 -19.5c-10.667 0 -21.667 3 -33 9l-136 69
c-25.333 14 -38 32.667 -38 56z" />
    <glyph glyph-name="a" unicode="a" horiz-adv-x="555" 
d="M39 166c0 46.667 16.501 85.501 49.501 116.501s83.5 46.5 151.5 46.5c40.667 0 75 -4.33301 103 -13v34c0 18.667 -5.83301 33 -17.5 43s-31.834 15 -60.501 15c-19.333 0 -47 -4.66699 -83 -14c-13.333 -3.33301 -25.333 -5 -36 -5c-17.333 -0.666992 -32.333 3 -45 11
c-20.667 12 -31 30.667 -31 56c0 33.333 19.333 57.666 58 72.999c40 16 85.667 24 137 24c156.667 0 235 -70.667 235 -212v-242c0 -24 -9.33301 -42.333 -28 -55c-56 -36 -127.667 -54 -215 -54c-72 0 -126.333 16.833 -163 50.5s-55 75.5 -55 125.5zM194.001 171.001
c0 -18 6.50195 -31.501 19.502 -40.501s29.833 -13.5 50.5 -13.5c30.667 0 57 7.33301 79 22v74c-24.667 8 -51.334 12 -80.001 12c-22.667 0 -39.834 -5.16699 -51.501 -15.5s-17.5 -23.166 -17.5 -38.499z" />
    <glyph glyph-name="b" unicode="b" horiz-adv-x="599" 
d="M61 109v529c0 24 7.83301 44.167 23.5 60.5s35.167 24.5 58.5 24.5c22.667 0 42.167 -8.33301 58.5 -25s24.5 -36.667 24.5 -60v-105c30 13.333 64.333 20 103 20c65.333 0 117.333 -18.667 156 -56s61 -87.333 67 -150c2 -24 3 -47.833 3 -71.5s-1 -47.5 -3 -71.5
c-5.33301 -62 -30.333 -113.167 -75 -153.5s-101.667 -60.5 -171 -60.5c-84.667 0 -157 21.333 -217 64c-18.667 12.667 -28 31 -28 55zM226 177c21.333 -16.667 46.666 -25 75.999 -25c26 0 46.5 7.16699 61.5 21.5s23.167 34.5 24.5 60.5c0.666992 15.333 1 29.833 1 43.5
s-0.333008 26.5 -1 38.5c-3.33301 53.333 -29.666 80 -78.999 80c-33.333 0 -61 -7 -83 -21v-198z" />
    <glyph glyph-name="c" unicode="c" horiz-adv-x="561" 
d="M48 204c-2 20.667 -3.00098 42.8311 -3.00098 66.498s1 49.167 3 76.5c4 60 29 109.333 75 148s102.333 58 169 58c70 0 126 -16 168 -48s63 -65.667 63 -101c0 -23.333 -7.33301 -43.166 -22 -59.499s-34 -24.5 -58 -24.5c-27.333 0 -48 10.667 -62 32
c-20 29.333 -47.667 44 -83 44c-51.333 0 -80.333 -25.667 -87 -77c-1.33301 -14.667 -2 -29.167 -2 -43.5s0.666992 -28.5 2 -42.5c6.66699 -54.667 35.667 -82 87 -82c35.333 0 63 14.667 83 44c14 21.333 34.667 32 62 32c24 0 43.333 -8.16699 58 -24.5
s22 -36.166 22 -59.499c0 -36 -21.167 -70.5 -63.5 -103.5s-98.166 -49.5 -167.499 -49.5c-65.333 0 -121 20.5 -167 61.5s-71.667 91.833 -77 152.5z" />
    <glyph glyph-name="d" unicode="d" horiz-adv-x="604" 
d="M48 204c-2 26.667 -3.16992 51.832 -3.50293 75.499s0.833984 45.834 3.50098 66.501c5.33301 63.333 27.333 113.666 66 150.999s91 56 157 56c38 0 72 -6.66699 102 -20v105c0 23.333 8.16699 43.333 24.5 60s35.833 25 58.5 25c24 0 43.833 -8.16699 59.5 -24.5
s23.5 -36.5 23.5 -60.5v-529c0 -23.333 -9.33301 -41.666 -28 -54.999c-59.333 -42 -132 -63 -218 -63c-69.333 0 -126.166 20 -170.499 60s-69.166 91 -74.499 153zM211.997 233.998c1.33301 -26 9.33301 -46.167 24 -60.5s35 -21.5 61 -21.5c13.333 0 27.5 2.66699 42.5 8
s26.167 11 33.5 17v198c-22 14 -49.667 21 -83 21c-50 0 -76 -26 -78 -78c-1.33301 -13.333 -2 -27 -2 -41s0.666992 -28.333 2 -43z" />
    <glyph glyph-name="e" unicode="e" horiz-adv-x="569" 
d="M48 202c-2 25.333 -2.99902 49.167 -2.99902 71.5s1 43.5 3 63.5c6 65.333 31.167 117.666 75.5 156.999s100.166 59 167.499 59c70.667 0 128 -21.667 172 -65s66 -101.666 66 -174.999v-23c0 -22.667 -6.16699 -41 -18.5 -55s-30.833 -21 -55.5 -21l-251 -1v-6
c0 -23.333 9.33301 -41.333 28 -54s42 -19 70 -19c28.667 0 61.667 8.33301 99 25c13.333 6 26 9 38 9c14 0 26.333 -4 37 -12c21.333 -15.333 31.666 -35.333 30.999 -60c0 -28 -16 -51.333 -48 -70c-39.333 -23.333 -93.666 -35 -162.999 -35
c-68 0 -124.833 19.833 -170.5 59.5s-71.5 90.167 -77.5 151.5zM204.001 320.001h167.001c6.66699 0 10 5 10 15c-0.666992 24.667 -8.33398 45 -23.001 61c-16 16 -37.333 24 -64 24c-30 0 -52.5 -9 -67.5 -27s-22.5 -42.333 -22.5 -73z" />
    <glyph glyph-name="f" unicode="f" horiz-adv-x="468" 
d="M11 433c0 21.333 7.16699 38.832 21.5 52.499s32.166 20.5 53.499 20.5h18v28c0 65.333 17.167 114.833 51.5 148.5s80.5 50.5 138.5 50.5c42.667 0 79 -4.66699 109 -14c42.667 -13.333 64 -39.666 64 -78.999c0 -20 -6.83301 -36.667 -20.5 -50s-32.167 -20 -55.5 -20
c-7.33301 0 -19.333 2.16699 -36 6.5s-30.334 6.5 -41.001 6.5c-29.333 0 -44 -17.667 -44 -53v-24h101c20.667 0 38.334 -6.83301 53.001 -20.5s22 -31.167 22 -52.5c0 -20 -7.5 -36.833 -22.5 -50.5s-32.5 -20.5 -52.5 -20.5h-101v-280
c0 -24.667 -7.83301 -45.334 -23.5 -62.001s-35.5 -25 -59.5 -25c-23.333 0 -43 8.33301 -59 25s-24 37.334 -24 62.001v280h-18c-21.333 0 -39.166 6.83301 -53.499 20.5s-21.5 30.5 -21.5 50.5z" />
    <glyph glyph-name="g" unicode="g" horiz-adv-x="599" 
d="M48 208c-2 18.667 -2.99902 39.001 -2.99902 61.001s1 45.667 3 71c5.33301 62 30 113 74 153s100.333 60 169 60c84.667 0 157.667 -20.667 219 -62c18.667 -12.667 28 -31.334 28 -56.001v-409c0 -74 -24.333 -131.333 -73 -172s-114.334 -61 -197.001 -61
c-40 0 -80.667 4.66699 -122 14c-46.667 10.667 -70 35.667 -70 75c0 22.667 8.66699 42 26 58c12 10.667 27.667 16 47 16c8 0 16.667 -1 26 -3c32.667 -7.33301 62.667 -11 90 -11c42.667 0 71.5 8.33301 86.5 25s22.5 39.667 22.5 69
c-33.333 -14.667 -68.333 -22 -105 -22c-66 0 -118 17.167 -156 51.5s-59.667 81.833 -65 142.5zM211.001 240.001c1.33301 -26 8.50098 -46.665 21.501 -61.998s31.833 -23 56.5 -23c34 0 62 7.66699 84 23v195c-18.667 15.333 -44.334 23 -77.001 23
c-25.333 0 -45.5 -7.83301 -60.5 -23.5s-23.167 -36.5 -24.5 -62.5c-0.666992 -12.667 -1 -24.834 -1 -36.501s0.333008 -22.834 1 -33.501z" />
    <glyph glyph-name="h" unicode="h" horiz-adv-x="593" 
d="M61 80v557c0 24.667 7.83301 45.167 23.5 61.5s35.167 24.5 58.5 24.5s43 -8.16699 59 -24.5s24 -36.833 24 -61.5v-109c26.667 16.667 62 25 106 25c66.667 0 117.834 -19.5 153.501 -58.5s53.5 -95.167 53.5 -168.5v-244c0 -24.667 -7.83301 -45.334 -23.5 -62.001
s-35.834 -25 -60.501 -25c-22.667 0 -41.834 8.33301 -57.501 25s-23.5 37.334 -23.5 62.001v236c0 23.333 -6.66699 41.333 -20 54s-30.666 19 -51.999 19c-30 0 -55.333 -8.33301 -76 -25v-286c0 -24 -7.83301 -44.167 -23.5 -60.5s-35.167 -24.5 -58.5 -24.5
c-22.667 0 -42.167 8.33301 -58.5 25s-24.5 36.667 -24.5 60z" />
    <glyph glyph-name="i" unicode="i" horiz-adv-x="297" 
d="M64 673c0 23.333 8.00098 43.166 24.001 59.499s36 24.5 60 24.5c23.333 0 43.166 -8.16699 59.499 -24.5s24.5 -36.166 24.5 -59.499s-8.33301 -43.5 -25 -60.5s-36.334 -25.5 -59.001 -25.5c-23.333 0 -43.166 8.5 -59.499 25.5s-24.5 37.167 -24.5 60.5zM66.001 80
v382c0 24 7.66699 44.167 23 60.5s35 24.5 59 24.5c23.333 0 43 -8.16699 59 -24.5s24 -36.5 24 -60.5v-382c0 -23.333 -8 -43.333 -24 -60s-35.667 -25 -59 -25c-22 0 -41.167 8.33301 -57.5 25s-24.5 36.667 -24.5 60z" />
    <glyph glyph-name="j" unicode="j" horiz-adv-x="295" 
d="M-24 -118c-0.666992 3.33301 -1.00098 6.66602 -1.00098 9.99902c0 18.667 7 37.667 21 57c26.667 31.333 44.667 59.333 54 84s14 54.667 14 90v339c0 24 7.66699 44.167 23 60.5s35 24.5 59 24.5c23.333 0 43 -8.16699 59 -24.5s24 -36.5 24 -60.5v-301
c0 -141.333 -38.333 -248.666 -115 -321.999c-15.333 -14.667 -33.666 -23 -54.999 -25h-8c-18 0 -33 5 -45 15c-16.667 13.333 -26.667 31 -30 53zM61.999 672c0 24 8 44.167 24 60.5s35.667 24.5 59 24.5s43.333 -8.16699 60 -24.5s25 -36.5 25 -60.5
c0 -22.667 -8.33301 -42.5 -25 -59.5s-36.667 -25.5 -60 -25.5s-43 8.5 -59 25.5s-24 36.833 -24 59.5z" />
    <glyph glyph-name="k" unicode="k" horiz-adv-x="580" 
d="M61 80v555.999c0 24 7.83301 44.167 23.5 60.5s35.167 24.5 58.5 24.5s43 -8.16699 59 -24.5s24 -36.5 24 -60.5v-286h6c10.667 0 18.834 1.16699 24.501 3.5s13.167 8.5 22.5 18.5l136 146c18 19.333 39.333 29.333 64 30h3c23.333 0 42 -8 56 -24
c16 -18 24 -37.667 24 -59c0 -20.667 -7 -37.667 -21 -51l-137 -137l127 -136c17.333 -18.667 26 -39.667 26 -63c0 -21.333 -8 -40.666 -24 -57.999c-15.333 -16.667 -35.333 -25 -60 -25s-45.334 9.66699 -62.001 29l-132 148c-8.66699 10 -15.667 16.167 -21 18.5
s-13 3.5 -23 3.5h-9v-114c0 -24 -7.83301 -44.167 -23.5 -60.5s-35.5 -24.5 -59.5 -24.5c-22 0 -41.167 8.5 -57.5 25.5s-24.5 36.833 -24.5 59.5z" />
    <glyph glyph-name="l" unicode="l" horiz-adv-x="287" 
d="M61 80v555c0 24 7.83301 44.333 23.5 61s35.167 25 58.5 25c22.667 0 42.167 -8.33301 58.5 -25s24.5 -37 24.5 -61v-555c0 -24 -7.83301 -44.167 -23.5 -60.5s-35.5 -24.5 -59.5 -24.5c-22.667 0 -42 8.33301 -58 25s-24 36.667 -24 60z" />
    <glyph glyph-name="m" unicode="m" horiz-adv-x="848" 
d="M56 80v357.999c0 22.667 9.66699 41.334 29 56.001c51.333 39.333 113.666 59 186.999 59c56.667 0 104 -18 142 -54c52 36 106.667 54 164 54c74.667 0 129.334 -19.167 164.001 -57.5s52 -94.833 52 -169.5v-246c0 -24 -7.83301 -44.167 -23.5 -60.5
s-35.5 -24.5 -59.5 -24.5c-22 0 -41.167 8.33301 -57.5 25s-24.5 36.667 -24.5 60v238c0 25.333 -4.83301 43.833 -14.5 55.5s-25.5 17.5 -47.5 17.5c-21.333 0 -41 -7.33301 -59 -22v-289c0 -23.333 -8 -43.333 -24 -60s-35.667 -25 -59 -25
c-22 0 -41.167 8.33301 -57.5 25s-24.5 36.667 -24.5 60v240c0 47.333 -20.667 71 -62 71c-19.333 0 -39 -6.33301 -59 -19v-292c0 -23.333 -8 -43.333 -24 -60s-35.667 -25 -59 -25c-22 0 -41.333 8.33301 -58 25s-25 36.667 -25 60z" />
    <glyph glyph-name="n" unicode="n" horiz-adv-x="589" 
d="M56 80l0.000976562 362c0 24 9.33301 42.667 28 56c53.333 36.667 125.333 55 216 55c77.333 0 135.833 -19.5 175.5 -58.5s59.5 -95.167 59.5 -168.5v-246c0 -24 -7.83301 -44.167 -23.5 -60.5s-35.5 -24.5 -59.5 -24.5c-22 0 -41.167 8.33301 -57.5 25
s-24.5 36.667 -24.5 60v238c0 24 -7 42.167 -21 54.5s-31.667 18.5 -53 18.5c-30.667 0 -55.334 -6.33301 -74.001 -19v-292c0 -23.333 -8 -43.333 -24 -60s-35.667 -25 -59 -25c-22 0 -41.333 8.33301 -58 25s-25 36.667 -25 60z" />
    <glyph glyph-name="o" unicode="o" horiz-adv-x="594" 
d="M48 201c-2 24 -3.16797 48.167 -3.50098 72.5s0.833984 48.833 3.50098 73.5c5.33301 60.667 31.333 110.167 78 148.5s103.667 57.5 171 57.5c68 0 125.167 -19.167 171.5 -57.5s72.166 -87.833 77.499 -148.5c2 -24.667 3 -49.167 3 -73.5s-1 -48.5 -3 -72.5
c-5.33301 -61.333 -31.166 -111.833 -77.499 -151.5s-103.5 -59.5 -171.5 -59.5c-67.333 0 -124.333 20 -171 60s-72.667 90.333 -78 151zM210.999 229c2.66699 -24.667 11.501 -44.167 26.501 -58.5s34.833 -21.5 59.5 -21.5c25.333 0 45.666 7.16699 60.999 21.5
s23.333 33.833 24 58.5c0.666992 14.667 1 29.5 1 44.5s-0.333008 30.167 -1 45.5c-1.33301 23.333 -9.5 42 -24.5 56s-35.167 21 -60.5 21c-24.667 0 -44.5 -7 -59.5 -21s-23.833 -32.667 -26.5 -56c-1.33301 -15.333 -2 -30.5 -2 -45.5s0.666992 -29.833 2 -44.5z" />
    <glyph glyph-name="p" unicode="p" horiz-adv-x="595" 
d="M56 -121l0.000976562 571.001c0 16 6 28 18 36c61.333 44.667 137.333 67 228 67c69.333 0 126 -19.5 170 -58.5s69 -89.5 75 -151.5c2 -26.667 3 -51.834 3 -75.501s-1 -45.834 -3 -66.501c-6 -63.333 -28.333 -113.666 -67 -150.999s-91 -56 -157 -56
c-38.667 0 -72.334 6.66699 -101.001 20v-135c0 -23.333 -8.16699 -43.333 -24.5 -60s-35.833 -25 -58.5 -25c-24 0 -43.833 8.16699 -59.5 24.5s-23.5 36.5 -23.5 60.5zM222.001 172.001c20 -14 47.001 -21 81.001 -21c51.333 0 78 26 80 78c0.666992 18 1 34 1 48
s-0.333008 25.667 -1 35c-3.33301 54.667 -31.333 82 -84 82c-30.667 0 -56.334 -8 -77.001 -24v-198z" />
    <glyph glyph-name="q" unicode="q" horiz-adv-x="604" 
d="M48 200c-2 20.667 -3.16602 42.833 -3.49902 66.5s0.833984 49.167 3.50098 76.5c5.33301 62 30.166 112.5 74.499 151.5s101.166 58.5 170.499 58.5c88.667 0 164.667 -22.333 228 -67c12 -8.66699 18 -20.667 18 -36v-571c0 -24 -7.83301 -44.167 -23.5 -60.5
s-35.5 -24.5 -59.5 -24.5c-22.667 0 -42.167 8.33301 -58.5 25s-24.5 36.667 -24.5 60v135c-28.667 -13.333 -62.667 -20 -102 -20c-66 0 -118.333 18.667 -157 56s-60.667 87.333 -66 150zM212.001 229.999c2 -52.667 28.334 -78.998 79.001 -78.998c32.667 0 60 7 82 21
v198c-20.667 16 -46.334 24 -77.001 24c-25.333 0 -45.5 -7 -60.5 -21s-22.833 -34.333 -23.5 -61c-1.33301 -14.667 -2 -28.834 -2 -42.501s0.666992 -26.834 2 -39.501z" />
    <glyph glyph-name="r" unicode="r" horiz-adv-x="400" 
d="M51 78v297c0 55.333 15.833 98.833 47.5 130.5s77.167 47.5 136.5 47.5c38 0 71.333 -4 100 -12c42 -10.667 63 -36.667 63 -78c0 -20 -6.5 -38.333 -19.5 -55s-31.167 -25 -54.5 -25c-3.33301 0 -12.5 1.33301 -27.5 4s-27.833 4 -38.5 4c-27.333 0 -41 -17 -41 -51
v-262c0 -23.333 -8 -43 -24 -59s-35.667 -24 -59 -24c-22.667 0 -42.167 8.16699 -58.5 24.5s-24.5 35.833 -24.5 58.5z" />
    <glyph glyph-name="s" unicode="s" horiz-adv-x="511" 
d="M35 96c-0.666992 4 -0.99707 8.00098 -0.99707 12.001c0 15.333 4.33301 28.666 13 39.999c12 16.667 27.333 26.334 46 29.001c3.33301 0.666992 6.66602 1 9.99902 1c15.333 0 31.666 -5 48.999 -15c33.333 -20.667 69.666 -31 108.999 -31c38.667 0 58 10.667 58 32
c0 16 -15.333 27 -46 33c-29.333 6 -54.333 11.667 -75 17c-43.333 11.333 -79 30.333 -107 57s-42 62 -42 106c0 54 21 96.833 63 128.5s94.333 47.5 157 47.5c31.333 0 62.166 -4.5 92.499 -13.5s54.833 -21.167 73.5 -36.5c15.333 -14 23.666 -31.667 24.999 -53v-5
c0 -18.667 -5.33301 -33.667 -16 -45c-10.667 -14.667 -26 -22.667 -46 -24h-9c-16.667 0 -33.667 4.33301 -51 13c-25.333 12.667 -51.666 19 -78.999 19c-36 0 -54 -9.66699 -54 -29c0 -14 16.667 -24.667 50 -32c10 -2 31.333 -6.66699 64 -14
c54.667 -12.667 94.834 -32.334 120.501 -59.001s38.5 -62.667 38.5 -108c0 -53.333 -21.167 -96 -63.5 -128s-94.166 -48 -155.499 -48c-82.667 0 -148.667 19.333 -198 58c-14.667 12 -23.334 28 -26.001 48z" />
    <glyph glyph-name="t" unicode="t" horiz-adv-x="438" 
d="M56 203v378c0 24 7.83301 44.333 23.5 61s35.167 25 58.5 25c22.667 0 42.167 -8.5 58.5 -25.5s24.5 -37.167 24.5 -60.5v-61h114c21.333 0 39.5 -7.16699 54.5 -21.5s22.5 -32.5 22.5 -54.5c0 -20 -7.66699 -37.167 -23 -51.5s-33.333 -21.5 -54 -21.5h-114v-164
c0 -44.667 19.333 -67 58 -67c10.667 0 28 3 52 9c9.33301 2 18 3 26 3c16.667 0 31 -4.66699 43 -14c17.333 -14.667 26.333 -34 27 -58c0 -32 -14.333 -55 -43 -69c-30.667 -15.333 -74.667 -23 -132 -23c-64.667 0 -113.5 19.833 -146.5 59.5s-49.5 91.5 -49.5 155.5z
" />
    <glyph glyph-name="u" unicode="u" horiz-adv-x="589" 
d="M54 221l0.000976562 238c0 26 7 47.167 21 63.5s33.667 24.5 59 24.5c24 0 44.167 -8.5 60.5 -25.5s24.5 -37.833 24.5 -62.5v-231c0 -23.333 6.83301 -41.166 20.5 -53.499s31.5 -18.5 53.5 -18.5c29.333 0 54 6.33301 74 19v286c0 24 7.83301 44.333 23.5 61
s35.167 25 58.5 25s43 -8.33301 59 -25s24 -37 24 -61v-356c0 -24.667 -9.33301 -43.334 -28 -56.001c-19.333 -14 -47.833 -26.667 -85.5 -38s-80.834 -17 -129.501 -17c-76.667 0 -135 19.5 -175 58.5s-60 95.167 -60 168.5z" />
    <glyph glyph-name="v" unicode="v" horiz-adv-x="551" 
d="M19 423c-4.66699 12.667 -7 24.999 -7 36.999c0 17.333 5.33301 33.666 16 48.999c17.333 25.333 41.666 38 72.999 38c18.667 0 36 -6 52 -18s27 -28 33 -48c46.667 -158 74 -264 82 -318c0 -4 2.33301 -6 7 -6s7 2 7 6c4 32.667 11.333 69.167 22 109.5
s31 109.5 61 207.5c6 20 17 36.167 33 48.5s33.333 18.5 52 18.5c32 0 56.667 -12.667 74 -38c10.667 -15.333 15.667 -31.666 15 -48.999c0 -12 -2.33301 -24.667 -7 -38l-117 -312c-29.333 -77.333 -76.666 -116 -141.999 -116c-31.333 0 -59 9.83301 -83 29.5
s-42.333 47.834 -55 84.501z" />
    <glyph glyph-name="w" unicode="w" horiz-adv-x="808" 
d="M18 424c-2.66699 11.333 -4.00195 22.333 -4.00195 33c0 20 4.66699 38 14 54c14.667 24 37.334 36 68.001 36c19.333 0 36.5 -5.83301 51.5 -17.5s24.5 -27.834 28.5 -48.501c26 -133.333 43 -240 51 -320c0 -2.66699 1.66699 -4 5 -4
c2.66699 0 4.33398 1.33301 5.00098 4c22 134 40 231.333 54 292c6.66699 28.667 20.167 51.5 40.5 68.5s44.5 25.5 72.5 25.5c27.333 0 51.333 -9 72 -27s34.334 -40.333 41.001 -67c13.333 -54 31.333 -151.333 54 -292c0 -2.66699 1.66699 -4 5 -4
c2.66699 0 4.33398 1.33301 5.00098 4c15.333 134 32 240.667 50 320c3.33301 20.667 12.666 36.834 27.999 48.501s33 17.5 53 17.5c30.667 0 53.334 -12 68.001 -36c9.33301 -15.333 13.666 -32.666 12.999 -51.999c0 -10.667 -1.33301 -22.334 -4 -35.001l-75 -317
c-8.66699 -37.333 -24.667 -65.5 -48 -84.5s-51 -28.5 -83 -28.5c-32.667 0 -60.667 9.66699 -84 29s-39 48 -47 86l-43 221c-0.666992 2.66699 -2.33398 4 -5.00098 4c-3.33301 0 -5 -1.33301 -5 -4l-44 -221c-8 -38 -23.5 -66.667 -46.5 -86s-50.833 -29 -83.5 -29
c-32 0 -59.667 9.5 -83 28.5s-39.333 47.167 -48 84.5z" />
    <glyph glyph-name="x" unicode="x" horiz-adv-x="565" 
d="M30 74c0 22 7.33301 41.333 22 58l120 139l-118 137c-15.333 17.333 -23 36.666 -23 57.999v3c0.666992 22.667 10 41.667 28 57c15.333 14 33.333 21 54 21c2 -0.666992 4.33301 -1 7 -1c23.333 -1.33301 42.333 -11 57 -29l105 -121l105 121c15.333 18 35 27.667 59 29
c2 0 4 0.333008 6 1c20.667 0 38.667 -7 54 -21c18 -15.333 27.333 -34.333 28 -57v-3c0 -21.333 -7.66699 -40.666 -23 -57.999l-119 -137l122 -139c14.667 -16.667 22 -36 22 -58v-2c-0.666992 -22.667 -10 -42 -28 -58c-14.667 -13.333 -32.667 -20 -54 -20h-7
c-24 1.33301 -43.333 11 -58 29l-107 123l-106 -123c-14.667 -18 -34 -27.667 -58 -29h-7c-20.667 0 -38.667 6.66699 -54 20c-18 16 -27 36 -27 60z" />
    <glyph glyph-name="y" unicode="y" horiz-adv-x="553" 
d="M20 425c-5.33301 13.333 -8 25.999 -8 37.999c0 16.667 5.33301 32.334 16 47.001c17.333 26 42 39 74 39c18.667 0 35.834 -6 51.501 -18s26.834 -28 33.501 -48c42.667 -122.667 70.667 -214.667 84 -276c1.33301 -4 3.66602 -6 6.99902 -6s5.66602 2 6.99902 6
c15.333 69.333 42.333 161 81 275c6.66699 20 17.834 36.167 33.501 48.5s32.5 18.5 50.5 18.5c32 0 57.333 -13 76 -39c10 -15.333 15 -31 15 -47c0 -12.667 -3 -25.667 -9 -39l-185 -422c-40 -90 -83.667 -151.333 -131 -184c-20.667 -15.333 -42.334 -23 -65.001 -23
c-23.333 0 -42.333 7.16699 -57 21.5s-22 32.833 -22 55.5c0 26.667 10.667 48.667 32 66c28.667 24 54.667 59 78 105z" />
    <glyph glyph-name="z" unicode="z" horiz-adv-x="499" 
d="M26 83c0 22.667 7.33301 42.667 22 60l207 241h-134c-24 0 -44.167 6.83301 -60.5 20.5s-24.5 31.834 -24.5 54.501c0 22 8.16699 40.333 24.5 55s36.5 22 60.5 22h264c36.667 0 62.667 -14.667 78 -44c7.33301 -12.667 11 -25.334 11 -38.001
c0 -21.333 -9.66699 -43 -29 -65l-202 -236h146c24 0 44.167 -7 60.5 -21s24.5 -32.667 24.5 -56c0 -22 -8.16699 -40.167 -24.5 -54.5s-36.5 -21.5 -60.5 -21.5h-274c-26 -0 -47.333 7.83301 -64 23.5s-25 35.5 -25 59.5z" />
    <glyph glyph-name="braceleft" unicode="{" horiz-adv-x="468" 
d="M31 315c0 12.667 6.66797 24.3398 20.001 35.0068c20 16 33.833 32.667 41.5 50s11.5 38.666 11.5 63.999v228c0 27.333 9.83301 50.833 29.5 70.5s43.167 29.5 70.5 29.5h176c24 0 44.333 -7.83301 61 -23.5s25 -34.834 25 -57.501
c0 -24.667 -8.16699 -44.334 -24.5 -59.001s-36.833 -22 -61.5 -22h-81c-8.66699 0 -15.834 -2.83301 -21.501 -8.5s-8.5 -12.834 -8.5 -21.501v-136c0 -69.333 -22.333 -119 -67 -149c44.667 -32 67 -81.667 67 -149v-150c0 -8 2.5 -15 7.5 -21s11.5 -9 19.5 -9h84
c24.667 0 45.167 -7.33301 61.5 -22s24.5 -34.334 24.5 -59.001c0 -22.667 -8.33301 -41.834 -25 -57.501s-37 -23.5 -61 -23.5h-142c-36 0 -67.333 13.333 -94 40s-40 58 -40 94v207c0 25.333 -3.83301 46.666 -11.5 63.999s-21.5 34 -41.5 50
c-13.333 10.667 -20 22.667 -20 36z" />
    <glyph glyph-name="bar" unicode="|" horiz-adv-x="302" 
d="M68 -55v804c0 24 7.83301 44.333 23.5 61s35.167 25 58.5 25c22.667 0 42.167 -8.33301 58.5 -25s24.5 -37 24.5 -61v-804c0 -24 -7.83301 -44.167 -23.5 -60.5s-35.5 -24.5 -59.5 -24.5c-22.667 0 -42 8.33301 -58 25s-24 36.667 -24 60z" />
    <glyph glyph-name="braceright" unicode="}" horiz-adv-x="468" 
d="M1 -95c0 24.667 8.33496 44.3281 25.002 58.9951s37 22 61 22h85c7.33301 0 13.666 3 18.999 9s8 13 8 21v150c0 67.333 22.333 117 67 149c-44.667 30 -67 79.667 -67 149v136c0 8.66699 -2.83301 15.834 -8.5 21.501s-12.834 8.5 -21.501 8.5h-82
c-24 0 -44.333 7.33301 -61 22s-25 34.334 -25 59.001c0 22.667 8.33301 41.834 25 57.501s37 23.5 61 23.5h177c27.333 0 50.833 -9.83301 70.5 -29.5s29.5 -43.167 29.5 -70.5v-228c0 -25.333 3.83301 -46.666 11.5 -63.999s21.5 -34 41.5 -50
c13.333 -10.667 20 -22.334 20 -35.001c0 -13.333 -6.66699 -25.333 -20 -36c-20 -16 -33.833 -32.667 -41.5 -50s-11.5 -38.666 -11.5 -63.999v-207c0 -36 -13.333 -67.333 -40 -94s-58 -40 -94 -40h-143c-24 0 -44.333 7.83301 -61 23.5s-25 34.834 -25 57.501z" />
    <glyph glyph-name="asciitilde" unicode="~" horiz-adv-x="668" 
d="M28 361c0 41.333 21.998 71.001 65.998 89.001c62.667 26.667 110 40 142 40c25.333 0 58.333 -8.33301 99 -25s73.334 -25 98.001 -25c24 0 47.333 5.66699 70 17c39.333 19.333 72 19.5 98 0.5s39 -42.5 39 -70.5c0 -40 -22.333 -69.667 -67 -89
c-1.33301 -0.666992 -7 -3.33398 -17 -8.00098l-22 -8c-4 -2 -11.167 -4.83301 -21.5 -8.5s-19 -6.33398 -26 -8.00098s-15.667 -3.16699 -26 -4.5s-20.166 -2 -29.499 -2c-26 0 -59.667 8.16699 -101 24.5s-73.333 24.5 -96 24.5c-19.333 0 -41 -6 -65 -18
c-40 -19.333 -73.5 -19.666 -100.5 -0.999023s-40.5 42.667 -40.5 72z" />
    <glyph glyph-name="exclamdown" unicode="&#xa1;" horiz-adv-x="256" 
d="M45 79l9.99805 320.001c0.666992 20 7.66699 36.5 21 49.5s30 19.5 50 19.5c20.667 0 37.834 -6.33301 51.501 -19s21.167 -29.334 22.5 -50.001l11 -320c0.666992 -22.667 -7.5 -42.5 -24.5 -59.5s-36.833 -25.5 -59.5 -25.5c-23.333 0 -43.166 8.5 -59.499 25.5
s-23.833 36.833 -22.5 59.5zM53.998 597.001v43c0 20 6.66699 36.5 20 49.5s31 19.5 53 19.5c21.333 0 38.833 -6.5 52.5 -19.5s20.5 -29.5 20.5 -49.5v-43c0 -20 -6.83301 -36.5 -20.5 -49.5s-31.167 -19.5 -52.5 -19.5c-22 0 -39.667 6.5 -53 19.5s-20 29.5 -20 49.5z" />
    <glyph glyph-name="cent" unicode="&#xa2;" horiz-adv-x="463" 
d="M42 305c-2 30 -1.99902 59.335 0.000976562 88.002c2.66699 41.333 15.167 77.166 37.5 107.499s53.166 52.833 92.499 67.5v65c0 20 7.33301 37.833 22 53.5s31.334 23.5 50.001 23.5c20.667 0 38 -7.5 52 -22.5s21 -33.167 21 -54.5v-65
c26.667 -9.33301 49.167 -22.5 67.5 -39.5s31.166 -35.167 38.499 -54.5c5.33301 -13.333 8 -25 8 -35c0 -18.667 -7.16699 -34.834 -21.5 -48.501s-30.166 -20.5 -47.499 -20.5c-30 0 -52 14 -66 42c-11.333 21.333 -29 32 -53 32c-30.667 0 -48 -20.333 -52 -61
c-1.33301 -7.33301 -2 -18.666 -2 -33.999s0.666992 -26.333 2 -33c4 -40.667 21.333 -61 52 -61c25.333 0 43 10.667 53 32c13.333 28 35.333 42 66 42c17.333 0 33.166 -6.83301 47.499 -20.5s21.5 -29.834 21.5 -48.501c0 -10 -2.33301 -20 -7 -30
c-21.333 -48 -57 -81.333 -107 -100v-62c0 -21.333 -7 -39.5 -21 -54.5s-31.333 -22.5 -52 -22.5c-18.667 0 -35.334 7.83301 -50.001 23.5s-22 33.5 -22 53.5v64c-81.333 28 -124.666 85.667 -129.999 173z" />
    <glyph glyph-name="sterling" unicode="&#xa3;" horiz-adv-x="607" 
d="M10 335c0 23.333 8.16602 42.333 24.499 57s36.5 22 60.5 22h22c-8.66699 37.333 -13 66.333 -13 87c0 58 20.167 107.333 60.5 148s98.5 61 174.5 61c85.333 0 154.666 -26.667 207.999 -80c21.333 -20.667 32 -42.667 32 -66s-8.16699 -42.833 -24.5 -58.5
s-35.833 -23.5 -58.5 -23.5c-19.333 0 -39.666 8.33301 -60.999 25c-31.333 26 -64.333 39 -99 39c-22.667 0 -39.334 -6 -50.001 -18s-16 -25.667 -16 -41c0 -11.333 1.83301 -25 5.5 -41s5.83398 -26.667 6.50098 -32h91c24 0 44.167 -7.16699 60.5 -21.5
s24.5 -33.5 24.5 -57.5c0 -22.667 -8.16699 -41.5 -24.5 -56.5s-36.5 -22.5 -60.5 -22.5h-74c0 -31.333 -7.66699 -61.333 -23 -90h237c22.667 0 42.334 -8.16699 59.001 -24.5s25 -36.166 25 -59.499c0 -22.667 -8.16699 -42 -24.5 -58s-36.166 -24 -59.499 -24h-325
c-30.667 0 -55.334 8.66699 -74.001 26s-28 38.333 -28 63c0 17.333 7.33301 41.666 22 72.999c14.667 30 23 61.333 25 94h-38c-24 0 -44.167 7.16699 -60.5 21.5s-24.5 33.5 -24.5 57.5z" />
    <glyph glyph-name="currency" unicode="&#xa4;" horiz-adv-x="617" 
d="M42 157c0.666992 19.333 8.32812 36.667 22.9951 52l65 66c-3.33301 11.333 -5.66602 25.333 -6.99902 42c-1.33301 21.333 -1.33301 42.333 0 63c0.666992 14 3.33398 29.333 8.00098 46l-65 67c-15.333 15.333 -23.333 32.5 -24 51.5s6.33301 36.167 21 51.5
c13.333 14 30.333 20.667 51 20s38 -8.66699 52 -24l55 -53c26 14.667 55 22 87 22c32.667 0 62 -7.33301 88 -22l55 53c14 15.333 31.333 23.333 52 24s37.667 -6 51 -20c14.667 -15.333 21.667 -32.5 21 -51.5s-8.66699 -36.167 -24 -51.5l-64 -65
c4.66699 -18 7.33398 -34 8.00098 -48c1.33301 -20.667 1.33301 -41.667 0 -63c0 -12.667 -2.33301 -27.334 -7 -44.001l64 -64c14.667 -15.333 22.334 -32.666 23.001 -51.999s-6.33301 -36.666 -21 -51.999c-13.333 -13.333 -30.166 -19.666 -50.499 -18.999
s-37.833 8 -52.5 22l-54 51c-26.667 -14 -56.334 -21 -89.001 -21s-62 7.33301 -88 22l-54 -52c-14.667 -14 -32.167 -21.333 -52.5 -22s-37.166 5.66602 -50.499 18.999c-14.667 15.333 -21.667 32.666 -21 51.999zM251.994 325.001
c0.666992 -15.333 6.33105 -28.5 16.998 -39.5s23.667 -16.5 39 -16.5s28.333 5.5 39 16.5s16.667 24.167 18 39.5v47c-1.33301 15.333 -7.33301 28.833 -18 40.5s-23.667 17.5 -39 17.5s-28.166 -5.83301 -38.499 -17.5s-16.166 -25.167 -17.499 -40.5
c-0.666992 -15.333 -0.666992 -31 0 -47z" />
    <glyph glyph-name="yen" unicode="&#xa5;" horiz-adv-x="668" 
d="M7.5 629c2.33301 24 12.835 44.002 31.502 60.002c18 16 39.5 22.667 64.5 20s44.833 -13.667 59.5 -33l170 -210l173 210c15.333 18.667 35 29.5 59 32.5s45.333 -3.16699 64 -18.5c18 -16 28.333 -36 31 -60s-4 -45.667 -20 -65l-224 -251v-9h48
c24 0 44.167 -7.16699 60.5 -21.5s24.5 -33.5 24.5 -57.5c0 -22.667 -8.16699 -41.5 -24.5 -56.5s-36.5 -22.5 -60.5 -22.5h-45v-64c0 -24.667 -8.16699 -45.334 -24.5 -62.001s-36.833 -25 -61.5 -25c-22.667 0 -42.334 8.66699 -59.001 26s-25 37.666 -25 60.999v64h-45
c-24.667 0 -45 7.16699 -61 21.5s-24 33.5 -24 57.5c0 23.333 8.16699 42.333 24.5 57s36.5 22 60.5 22h49v10l-224 249c-16.667 19.333 -23.834 41 -21.501 65z" />
    <glyph glyph-name="brokenbar" unicode="&#xa6;" horiz-adv-x="302" 
d="M68 -55v280c0 24 7.83301 44.333 23.5 61s35.167 25 58.5 25c22.667 0 42.167 -8.33301 58.5 -25s24.5 -37 24.5 -61v-280c0 -24 -7.83301 -44.167 -23.5 -60.5s-35.5 -24.5 -59.5 -24.5c-22.667 0 -42 8.33301 -58 25s-24 36.667 -24 60zM68 469v280
c0 24 7.83301 44.333 23.5 61s35.167 25 58.5 25c22.667 0 42.167 -8.33301 58.5 -25s24.5 -37 24.5 -61v-280c0 -24 -7.83301 -44.167 -23.5 -60.5s-35.5 -24.5 -59.5 -24.5c-22.667 0 -42 8.33301 -58 25s-24 36.667 -24 60z" />
    <glyph glyph-name="section" unicode="&#xa7;" horiz-adv-x="560" 
d="M46 28c0 22.667 8.33398 42.167 25.001 58.5s37 24.5 61 24.5c9.33301 0 20.666 -3 33.999 -9c48 -26.667 86.667 -40 116 -40c40.667 0 61 13 61 39c0 12.667 -6.83301 22.334 -20.5 29.001s-36.834 14 -69.501 22c-70 18.667 -119.5 41.167 -148.5 67.5
s-43.5 59.166 -43.5 98.499c0 31.333 12.333 60.333 37 87c-27.333 33.333 -41 68.666 -41 105.999c0 56 21.667 103.333 65 142s98.666 58 165.999 58c75.333 0 140.333 -21.333 195 -64c20.667 -17.333 31 -39.666 31 -66.999c0 -22.667 -8.33301 -42.167 -25 -58.5
s-37 -24.5 -61 -24.5c-14.667 0 -27 4 -37 12c-37.333 24.667 -72.666 37 -105.999 37c-38 0 -57 -12.333 -57 -37c0 -10 4.16699 -18.5 12.5 -25.5s17.666 -12.167 27.999 -15.5s26.833 -8 49.5 -14c70 -18 119.5 -40 148.5 -66s43.5 -58.667 43.5 -98
c0 -32 -12.667 -61.333 -38 -88c27.333 -30.667 41 -66 41 -106c0 -56 -21.667 -103.167 -65 -141.5s-98.333 -57.5 -165 -57.5c-41.333 0 -81.166 6.33301 -119.499 19s-67.166 27 -86.499 43c-20.667 17.333 -31 40.333 -31 69zM193.001 329
c0 -11.333 8.33398 -21.3311 25.001 -29.998s44 -17.667 82 -27c21.333 -5.33301 46 -13 74 -23l2 4c4 7.33301 6 14.666 6 21.999c0 12 -8.16699 22.167 -24.5 30.5s-43.5 17.166 -81.5 26.499c-24.667 6 -49.334 13.667 -74.001 23l-2 -4c-4.66699 -8.66699 -7 -16 -7 -22
z" />
    <glyph glyph-name="dieresis" unicode="&#xa8;" 
d="M45 831c0 21.333 7.33301 39.5 22 54.5s32.667 22.5 54 22.5s39.333 -7.5 54 -22.5s22 -33.167 22 -54.5s-7.33301 -39.333 -22 -54s-32.667 -22 -54 -22s-39.333 7.33301 -54 22s-22 32.667 -22 54zM239 831c0 21.333 7.33301 39.5 22 54.5s32.667 22.5 54 22.5
s39.333 -7.5 54 -22.5s22 -33.167 22 -54.5s-7.33301 -39.333 -22 -54s-32.667 -22 -54 -22s-39.333 7.33301 -54 22s-22 32.667 -22 54z" />
    <glyph glyph-name="copyright" unicode="&#xa9;" horiz-adv-x="774" 
d="M67 306c-1.33301 30 -1.33301 60 0 90c3.33301 92.667 35.666 168.167 96.999 226.5s135.666 87.5 222.999 87.5s161.666 -29.167 222.999 -87.5s93.666 -133.833 96.999 -226.5c1.33301 -30 1.33301 -60 0 -90c-3.33301 -91.333 -35.666 -166.166 -96.999 -224.499
s-135.666 -87.5 -222.999 -87.5s-161.666 29.167 -222.999 87.5s-93.666 133.166 -96.999 224.499zM177 350.5c0 -24.333 0.333008 -41.166 1 -50.499c2.66699 -57.333 24.334 -105.166 65.001 -143.499s88.667 -57.5 144 -57.5s103.333 19.167 144 57.5
s62.334 86.166 65.001 143.499c0.666992 9.33301 1 26.166 1 50.499s-0.333008 41.5 -1 51.5c-2.66699 58 -24.334 106 -65.001 144s-88.667 57 -144 57s-103.333 -19 -144 -57s-62.334 -86 -65.001 -144c-0.666992 -10 -1 -27.167 -1 -51.5zM223 299
c-3.33301 35.333 -3.33398 70.333 -0.000976562 105c3.33301 46 20.333 83.333 51 112s69 43 115 43c35.333 0 65.833 -8.16699 91.5 -24.5s43.5 -36.5 53.5 -60.5c6.66699 -14.667 10 -25 10 -31c0 -16 -5.16699 -28 -15.5 -36s-22.166 -12 -35.499 -12
c-17.333 0 -31.666 10.333 -42.999 31c-11.333 22.667 -31.333 34 -60 34c-16.667 0 -30.167 -6.33301 -40.5 -19s-15.833 -29 -16.5 -49c-1.33301 -28 -1.33301 -55 0 -81c0 -20 5.33301 -36.333 16 -49s24.334 -19 41.001 -19c28.667 0 48.667 11.333 60 34
c11.333 20.667 25.666 31 42.999 31c13.333 0 25.166 -4 35.499 -12s15.5 -20 15.5 -36c0 -6 -3.33301 -16.333 -10 -31c-10 -24 -27.833 -44.167 -53.5 -60.5s-56.167 -24.5 -91.5 -24.5c-46 0 -84.167 14.333 -114.5 43s-47.5 66 -51.5 112z" />
    <glyph glyph-name="ordfeminine" unicode="&#xaa;" horiz-adv-x="479" 
d="M43 442c-2 32 -2.00098 63.667 -0.000976562 95c2.66699 52.667 20.334 94.667 53.001 126s74 47 124 47c59.333 0 110 -14.333 152 -43c20 -12.667 30 -32 30 -58v-152c0 -6 0.5 -11.833 1.5 -17.5s2 -10.167 3 -13.5s3.16699 -8.16602 6.5 -14.499
s5.5 -10.166 6.5 -11.499s4 -5.83301 9 -13.5s7.83301 -11.834 8.5 -12.501c12 -19.333 16 -38 12 -56s-13 -30.667 -27 -38c-14.667 -7.33301 -29.5 -10 -44.5 -8s-27.833 9 -38.5 21c-8 10.667 -13 18 -15 22c-28.667 -29.333 -63.334 -44 -104.001 -44
c-52 0 -93.667 15.667 -125 47s-48.666 72.666 -51.999 123.999zM170.999 442c1.33301 -12 6.5 -21.832 15.5 -29.499s20.833 -11.5 35.5 -11.5c22.667 0 40.667 5.66699 54 17c-2 15.333 -3 45.666 -3 90.999v63c-12.667 4.66699 -29.667 7 -51 7
c-14.667 0 -26.5 -4 -35.5 -12s-14.167 -18.667 -15.5 -32c-2.66699 -30 -2.66699 -61 0 -93z" />
    <glyph glyph-name="guillemotleft" unicode="&#xab;" horiz-adv-x="653" 
d="M33 361c0 40.667 17.333 73.3301 52 97.9971l125 86c17.333 12 35.666 17.333 54.999 16s35 -9.66602 47 -24.999c13.333 -16 19.166 -34.167 17.499 -54.5s-10.5 -35.833 -26.5 -46.5l-88 -61c-6 -4.66699 -9 -9 -9 -13s3 -8.33301 9 -13l88 -61
c16 -10.667 24.833 -26.167 26.5 -46.5s-4.16602 -38.5 -17.499 -54.5c-12 -15.333 -27.667 -23.666 -47 -24.999s-37.666 4 -54.999 16l-125 86c-34.667 24.667 -52 57.334 -52 98.001zM326 360.996c0 40.667 17.667 73.3301 53 97.9971l125 86
c17.333 12 35.666 17.333 54.999 16s35 -9.66602 47 -24.999c13.333 -16 19 -34.167 17 -54.5s-11 -35.833 -27 -46.5l-87 -61c-6 -4.66699 -9 -9 -9 -13s3 -8.33301 9 -13l87 -61c16 -10.667 25 -26.167 27 -46.5s-3.66699 -38.5 -17 -54.5
c-12 -15.333 -27.667 -23.666 -47 -24.999s-37.666 4 -54.999 16l-125 86c-35.333 24.667 -53 57.334 -53 98.001z" />
    <glyph glyph-name="logicalnot" unicode="&#xac;" horiz-adv-x="628" 
d="M59 349c0 22 7.66602 40.501 22.999 55.501s34 22.5 56 22.5h338c29.333 0 52 -8.66699 68 -26s24 -39 24 -65v-164c0 -22 -7.5 -40.667 -22.5 -56s-33.5 -23 -55.5 -23c-21.333 0 -39.666 8 -54.999 24s-23 34.333 -23 55v99h-274c-22 0 -40.667 7.66699 -56 23
s-23 33.666 -23 54.999z" />
    <glyph glyph-name="registered" unicode="&#xae;" horiz-adv-x="626" 
d="M52 381c-2 26 -1.99805 52.667 0.00195312 80c3.33301 71.333 29.666 131 78.999 179s110 72 182 72s132.667 -24 182 -72s75.666 -107.667 78.999 -179c1.33301 -27.333 1.33301 -54 0 -80c-3.33301 -71.333 -29.833 -131.166 -79.5 -179.499
s-110.167 -72.5 -181.5 -72.5s-131.833 24.167 -181.5 72.5s-76.167 108.166 -79.5 179.499zM142.002 377c4 -50 21.5 -89 52.5 -117s70.5 -42 118.5 -42s87.333 14 118 42s48 67 52 117c2.66699 29.333 2.66699 58.666 0 87.999c-4 50 -21.333 89 -52 117s-70 42 -118 42
s-87.5 -14 -118.5 -42s-48.5 -67 -52.5 -117c-2.66699 -29.333 -2.66699 -58.666 0 -87.999zM209.002 322v194.002c0 11.333 3.66699 20.833 11 28.5s17 11.5 29 11.5h79c27.333 0 49.333 -7.66699 66 -23s25 -35 25 -59c0 -31.333 -12.667 -55 -38 -71l36 -54
c6 -10.667 9 -20.334 9 -29.001c0 -10.667 -4 -19.834 -12 -27.501s-18.333 -11.5 -31 -11.5c-14 0 -24.667 6.33301 -32 19l-40 67c-3.33301 5.33301 -7.33301 8 -12 8h-8v-53c0 -12 -3.83301 -21.833 -11.5 -29.5s-17.5 -11.5 -29.5 -11.5c-11.333 0 -21 4 -29 12
s-12 17.667 -12 29zM288.002 437.002h24c20 0 30 8.33301 30 25c0 18 -9.33301 27 -28 27h-26v-52z" />
    <glyph glyph-name="macron" unicode="&#xaf;" 
d="M75 822c0 19.333 6.33496 35.333 19.002 48s28.334 19 47.001 19h154c19.333 0 35.166 -6.33301 47.499 -19s18.5 -28.667 18.5 -48c0 -18.667 -6.33301 -34.334 -19 -47.001s-28.334 -19 -47.001 -19h-154c-18.667 0 -34.334 6.33301 -47.001 19s-19 28.334 -19 47.001z
" />
    <glyph glyph-name="degree" unicode="&#xb0;" horiz-adv-x="440" 
d="M72 587c0 40.667 14.5 75.5 43.5 104.5s63.833 43.5 104.5 43.5s75.5 -14.5 104.5 -43.5s43.5 -63.833 43.5 -104.5s-14.5 -75.5 -43.5 -104.5s-63.833 -43.5 -104.5 -43.5s-75.5 14.5 -104.5 43.5s-43.5 63.833 -43.5 104.5zM172 587
c0 -13.333 4.66699 -24.666 14 -33.999s20.666 -14 33.999 -14s24.666 4.66699 33.999 14s14 20.666 14 33.999s-4.66699 24.666 -14 33.999s-20.666 14 -33.999 14s-24.666 -4.66699 -33.999 -14s-14 -20.666 -14 -33.999z" />
    <glyph glyph-name="plusminus" unicode="&#xb1;" horiz-adv-x="628" 
d="M59 78c0 22 7.66699 40.5 23 55.5s34 22.5 56 22.5h351c22 0 40.667 -7.5 56 -22.5s23 -33.5 23 -55.5c0 -21.333 -7.83301 -39.666 -23.5 -54.999s-34.167 -23 -55.5 -23h-351c-22 0 -40.667 7.66699 -56 23s-23 33.666 -23 54.999zM59 424
c0 22 7.66895 40.5 23.002 55.5s34 22.5 56 22.5h98v98c0 22 7.66699 40.667 23 56s33.666 23 54.999 23c22 0 40.5 -7.66699 55.5 -23s22.5 -34 22.5 -56v-98h97c22 0 40.667 -7.5 56 -22.5s23 -33.5 23 -55.5c0 -21.333 -7.83301 -39.666 -23.5 -54.999
s-34.167 -23 -55.5 -23h-97v-99c0 -22 -7.5 -40.667 -22.5 -56s-33.5 -23 -55.5 -23c-20.667 0 -38.834 8 -54.501 24s-23.5 34.333 -23.5 55v99h-98c-22 0 -40.667 7.66699 -56 23s-23 33.666 -23 54.999z" />
    <glyph glyph-name="twosuperior" unicode="&#xb2;" horiz-adv-x="437" 
d="M36 597c0 14.667 5.33301 29.0049 16 43.0049c14 19.333 35.5 35.833 64.5 49.5s60.833 20.5 95.5 20.5c53.333 0 93.333 -12.667 120 -38s40 -57.333 40 -96c0 -32.667 -7 -58.834 -21 -78.501s-40.667 -41.834 -80 -66.501c-32 -20.667 -49.667 -35.667 -53 -45h93
c21.333 0 39.333 -6.33301 54 -19s22 -29.667 22 -51s-7.33301 -38.333 -22 -51s-32.667 -19 -54 -19h-195c-22.667 0 -40.5 7 -53.5 21s-19.5 31 -19.5 51c0 25.333 6.83301 48.666 20.5 69.999s36.834 43.666 69.501 66.999c3.33301 2 9.33301 6.33301 18 13l19 14l18 12
c8 6 14 11.167 18 15.5s8.16699 9.16602 12.5 14.499s7.5 10.5 9.5 15.5s3 10.167 3 15.5c0 17.333 -10 26 -30 26c-14 0 -30.667 -9 -50 -27c-16.667 -14.667 -32.334 -22 -47.001 -22c-19.333 0 -35.5 6 -48.5 18s-19.5 27.667 -19.5 47z" />
    <glyph glyph-name="threesuperior" unicode="&#xb3;" horiz-adv-x="418" 
d="M35 306c0 19.333 6.49902 34.998 19.499 46.998s30.5 18 52.5 18l15 -1c9.33301 -1.33301 18.333 -2 27 -2c26 0 46.333 4.33301 61 13s22 19 22 31c0 17.333 -10.667 26 -32 26c-4 0 -11.667 -1.16699 -23 -3.5s-18.666 -3.5 -21.999 -3.5
c-12 0 -22.5 3.83301 -31.5 11.5s-13.5 17.834 -13.5 30.501c0 14.667 5.33301 26.334 16 35.001l58 46h-75c-19.333 0 -35.666 7 -48.999 21s-20 30.667 -20 50c0 20 6.66699 36.5 20 49.5s29.666 19.5 48.999 19.5h164c20.667 0 38.167 -6 52.5 -18s21.5 -28 21.5 -48
c0 -20.667 -10.333 -42 -31 -64l-30 -29c58.667 -21.333 88 -62.333 88 -123c0 -54.667 -21.333 -98 -64 -130s-101 -48 -175 -48c-14.667 0 -24.667 0.333008 -30 1c-20 1.33301 -36.667 8.5 -50 21.5s-20 29.5 -20 49.5z" />
    <glyph glyph-name="acute" unicode="&#xb4;" 
d="M83 819c0 24 12.667 42.667 38 56l135 70c10.667 6.66699 22 10 34 10c16.667 0 31.167 -6.83301 43.5 -20.5s18.5 -29.167 18.5 -46.5c0 -23.333 -12.667 -42 -38 -56l-135 -69c-12 -6 -23.333 -9 -34 -9c-16.667 0 -31.167 6.5 -43.5 19.5s-18.5 28.167 -18.5 45.5z
" />
    <glyph glyph-name="mu" unicode="&#xb5;" horiz-adv-x="601" 
d="M66 -119l0.000976562 581.999c0 23.333 7.83301 43.5 23.5 60.5s35.167 25.5 58.5 25.5c22.667 0 42.167 -8.5 58.5 -25.5s24.5 -37.167 24.5 -60.5v-238c0 -23.333 6.66699 -41.166 20 -53.499s31 -18.5 53 -18.5c28.667 0 53 6.66699 73 20v290
c0 23.333 8.16699 43.5 24.5 60.5s36.166 25.5 59.499 25.5c22.667 0 42.5 -8.5 59.5 -25.5s25.5 -37.167 25.5 -60.5v-373c0 -16.667 -6 -28.667 -18 -36c-59.333 -42 -128.666 -63 -207.999 -63c-34.667 0 -64.334 6 -89.001 18v-128c0 -24 -7.83301 -44.167 -23.5 -60.5
s-35.5 -24.5 -59.5 -24.5c-22.667 0 -42 8.33301 -58 25s-24 36.667 -24 60z" />
    <glyph glyph-name="mu" unicode="&#x3bc;" horiz-adv-x="601" 
d="M66 -119l0.000976562 581.999c0 23.333 7.83301 43.5 23.5 60.5s35.167 25.5 58.5 25.5c22.667 0 42.167 -8.5 58.5 -25.5s24.5 -37.167 24.5 -60.5v-238c0 -23.333 6.66699 -41.166 20 -53.499s31 -18.5 53 -18.5c28.667 0 53 6.66699 73 20v290
c0 23.333 8.16699 43.5 24.5 60.5s36.166 25.5 59.499 25.5c22.667 0 42.5 -8.5 59.5 -25.5s25.5 -37.167 25.5 -60.5v-373c0 -16.667 -6 -28.667 -18 -36c-59.333 -42 -128.666 -63 -207.999 -63c-34.667 0 -64.334 6 -89.001 18v-128c0 -24 -7.83301 -44.167 -23.5 -60.5
s-35.5 -24.5 -59.5 -24.5c-22.667 0 -42 8.33301 -58 25s-24 36.667 -24 60z" />
    <glyph glyph-name="paragraph" unicode="&#xb6;" horiz-adv-x="793" 
d="M32 452c0 76.667 24.499 137.167 73.499 181.5s110.167 66.5 183.5 66.5h325c32 0 58.667 -10.833 80 -32.5s32 -49.167 32 -82.5v-692c0 -24 -7.83301 -44.167 -23.5 -60.5s-35.5 -24.5 -59.5 -24.5c-22.667 0 -42 8.33301 -58 25s-24 36.667 -24 60v642h-55v-642
c0 -24 -8 -44.167 -24 -60.5s-36 -24.5 -60 -24.5c-22 0 -41.167 8.16699 -57.5 24.5s-24.5 36.5 -24.5 60.5v311h-50c-75.333 0 -137.166 22.167 -185.499 66.5s-72.5 104.833 -72.5 181.5zM199.999 452c0 -58 37.667 -87 113 -87h27v178h-28
c-74.667 0 -112 -30.333 -112 -91z" />
    <glyph glyph-name="periodcentered" unicode="&#xb7;" horiz-adv-x="287" 
d="M70 326v54.001c0 20.667 7 38 21 52s31.333 21 52 21c20 0 37.167 -7.16699 51.5 -21.5s21.5 -31.5 21.5 -51.5v-54c0 -20.667 -7 -37.834 -21 -51.501s-31.333 -20.5 -52 -20.5c-20 0 -37.167 7 -51.5 21s-21.5 31 -21.5 51z" />
    <glyph glyph-name="cedilla" unicode="&#xb8;" 
d="M121 -234c0 23.333 12.001 39.666 36.001 48.999c30 12 49.167 21.333 57.5 28s12.5 14.334 12.5 23.001c0 16 -9 24 -27 24c-5.33301 0 -11.333 -0.666992 -18 -2s-12.667 -2 -18 -2c-15.333 0 -27.5 6.66699 -36.5 20s-10.833 27.333 -5.5 42l26 69
c9.33301 25.333 24 38 44 38c14 0 25 -4.16699 33 -12.5s12 -19.166 12 -32.499c0 -2.66699 -1 -8 -3 -16l-13 -26c35.333 -3.33301 62.5 -14.5 81.5 -33.5s28.5 -42.833 28.5 -71.5c0 -64 -43 -111.667 -129 -143c-8.66699 -3.33301 -17.334 -5 -26.001 -5
c-15.333 0 -28.333 4.16699 -39 12.5s-16 21.166 -16 38.499z" />
    <glyph glyph-name="onesuperior" unicode="&#xb9;" horiz-adv-x="362" 
d="M14.5 566c6.33301 19.333 17.167 33.667 32.5 43l145 82c10.667 6 23.334 9 38.001 9c21.333 0 39 -7.16699 53 -21.5s21 -32.166 21 -53.499v-308c0 -21.333 -6.66699 -39 -20 -53s-30.666 -21 -51.999 -21c-20.667 0 -38.334 7.5 -53.001 22.5s-22 32.167 -22 51.5v191
l-42 -21c-18 -8.66699 -35.833 -10.5 -53.5 -5.5s-31.834 15.833 -42.501 32.5c-9.33301 15.333 -10.833 32.666 -4.5 51.999z" />
    <glyph glyph-name="ordmasculine" unicode="&#xba;" horiz-adv-x="440" 
d="M32 446c-2 28.667 -1.99414 57.667 0.00585938 87c3.33301 50.667 22.166 92.834 56.499 126.501s78.166 50.5 131.499 50.5s97.166 -16.833 131.499 -50.5s53.166 -75.834 56.499 -126.501c2 -29.333 2 -58.333 0 -87c-3.33301 -53.333 -21.833 -96.166 -55.5 -128.499
s-77.834 -48.5 -132.501 -48.5s-98.834 16.167 -132.501 48.5s-52.167 75.166 -55.5 128.499zM172.006 451c0.666992 -14.667 5.5 -26.667 14.5 -36s20.167 -14 33.5 -14c12.667 0 23.5 4.66699 32.5 14s13.833 21.333 14.5 36c0.666992 26 0.666992 51.333 0 76
c-0.666992 14.667 -5.5 26.667 -14.5 36s-19.833 14 -32.5 14c-13.333 0 -24.5 -4.66699 -33.5 -14s-13.833 -21.333 -14.5 -36c-0.666992 -24.667 -0.666992 -50 0 -76z" />
    <glyph glyph-name="guillemotright" unicode="&#xbb;" horiz-adv-x="653" 
d="M30.5 240.5c1.66699 20.333 10.5 35.8369 26.5 46.5039l87 61c6 4.66699 9 9 9 13s-3 8.33301 -9 13l-87 61c-16 10.667 -24.833 26.167 -26.5 46.5s4.16602 38.5 17.499 54.5c12 15.333 27.5 23.666 46.5 24.999s37.167 -4 54.5 -16l125 -86
c35.333 -24.667 53 -57.334 53 -98.001s-17.667 -73.334 -53 -98.001l-125 -86c-17.333 -12 -35.5 -17.333 -54.5 -16s-34.5 9.66602 -46.5 24.999c-13.333 16 -19.166 34.167 -17.499 54.5zM323.5 240.504c1.66699 20.333 10.5 35.8369 26.5 46.5039l88 61
c6 4.66699 9 9 9 13s-3 8.33301 -9 13l-88 61c-16 10.667 -24.833 26.167 -26.5 46.5s4.16602 38.5 17.499 54.5c12 15.333 27.667 23.666 47 24.999s37.666 -4 54.999 -16l125 -86c34.667 -24.667 52 -57.334 52 -98.001s-17.333 -73.334 -52 -98.001l-125 -86
c-17.333 -12 -35.666 -17.333 -54.999 -16s-35 9.66602 -47 24.999c-13.333 16 -19.166 34.167 -17.499 54.5z" />
    <glyph glyph-name="onequarter" unicode="&#xbc;" horiz-adv-x="1036" 
d="M14.5 566c6.33301 19.333 17.167 33.667 32.5 43l145 82c10.667 6 23.334 9 38.001 9c21.333 0 39 -7.16699 53 -21.5s21 -32.166 21 -53.499v-308c0 -21.333 -6.66699 -39 -20 -53s-30.666 -21 -51.999 -21c-20.667 0 -38.334 7.5 -53.001 22.5s-22 32.167 -22 51.5v191
l-42 -21c-18 -8.66699 -35.833 -10.5 -53.5 -5.5s-31.834 15.833 -42.501 32.5c-9.33301 15.333 -10.833 32.666 -4.5 51.999zM283.001 72.001l244.999 615c7.33301 18 21.666 31.5 42.999 40.5s41 10.167 59 3.5c20 -8.66699 33.833 -22.5 41.5 -41.5
s7.83398 -38.5 0.500977 -58.5l-246 -615c-8 -18.667 -21.5 -32.667 -40.5 -42s-37.833 -10 -56.5 -2c-19.333 6.66699 -33.666 20.5 -42.999 41.5s-10.333 40.5 -3 58.5zM571 161.001c0 20.667 13 45.6689 39 75.002l162 185c20.667 24 45 36 73 36
c26 0 47.167 -8.5 63.5 -25.5s24.5 -37.833 24.5 -62.5v-168h26c15.333 0 29 -5.66699 41 -17s18 -25.333 18 -42c0 -17.333 -5.66699 -31.5 -17 -42.5s-25.333 -16.5 -42 -16.5h-27v-23c0 -16 -5.66699 -30 -17 -42s-25.333 -18 -42 -18c-17.333 0 -31.5 5.66699 -42.5 17
s-16.5 25.666 -16.5 42.999v20h-153c-26 0 -47.5 7.16699 -64.5 21.5s-25.5 34.166 -25.5 59.499zM726 201.003h87v98z" />
    <glyph glyph-name="onehalf" unicode="&#xbd;" horiz-adv-x="1028" 
d="M14.5 566c6.33301 19.333 17.167 33.667 32.5 43l145 82c10.667 6 23.334 9 38.001 9c21.333 0 39 -7.16699 53 -21.5s21 -32.166 21 -53.499v-308c0 -21.333 -6.66699 -39 -20 -53s-30.666 -21 -51.999 -21c-20.667 0 -38.334 7.5 -53.001 22.5s-22 32.167 -22 51.5v191
l-42 -21c-18 -8.66699 -35.833 -10.5 -53.5 -5.5s-31.834 15.833 -42.501 32.5c-9.33301 15.333 -10.833 32.666 -4.5 51.999zM283.001 72.001l244.999 615c7.33301 18 21.666 31.5 42.999 40.5s41 10.167 59 3.5c20 -8.66699 33.833 -22.5 41.5 -41.5
s7.83398 -38.5 0.500977 -58.5l-246 -615c-8 -18.667 -21.5 -32.667 -40.5 -42s-37.833 -10 -56.5 -2c-19.333 6.66699 -33.666 20.5 -42.999 41.5s-10.333 40.5 -3 58.5zM627 351.001c0 14.667 5.33301 29.0049 16 43.0049c14 19.333 35.5 35.833 64.5 49.5
s60.833 20.5 95.5 20.5c53.333 0 93.333 -12.667 120 -38s40 -57.333 40 -96c0 -32.667 -7 -58.834 -21 -78.501s-40.667 -41.834 -80 -66.501c-32 -20.667 -49.667 -35.667 -53 -45h93c21.333 0 39.333 -6.33301 54 -19s22 -29.667 22 -51s-7.33301 -38.333 -22 -51
s-32.667 -19 -54 -19h-195c-22.667 0 -40.5 7 -53.5 21s-19.5 31 -19.5 51c0 25.333 6.83301 48.666 20.5 69.999s36.834 43.666 69.501 66.999c3.33301 2 9.33301 6.33301 18 13l20 14l18 12c7.33301 6 13 11.167 17 15.5s8.16699 9.16602 12.5 14.499s7.5 10.5 9.5 15.5
s3 10.167 3 15.5c0 17.333 -10 26 -30 26c-14 0 -30.667 -9 -50 -27c-16.667 -14.667 -32.334 -22 -47.001 -22c-19.333 0 -35.5 6 -48.5 18s-19.5 27.667 -19.5 47z" />
    <glyph glyph-name="threequarters" unicode="&#xbe;" horiz-adv-x="1083" 
d="M35 306c0 19.333 6.49902 34.998 19.499 46.998s30.5 18 52.5 18l15 -1c9.33301 -1.33301 18.333 -2 27 -2c26 0 46.333 4.33301 61 13s22 19 22 31c0 17.333 -10.667 26 -32 26c-4 0 -11.667 -1.16699 -23 -3.5s-18.666 -3.5 -21.999 -3.5
c-12 0 -22.5 3.83301 -31.5 11.5s-13.5 17.834 -13.5 30.501c0 14.667 5.33301 26.334 16 35.001l53 46h-70c-19.333 0 -35.666 7 -48.999 21s-20 30.667 -20 50c0 20 6.66699 36.5 20 49.5s29.666 19.5 48.999 19.5h164c20.667 0 38.167 -6 52.5 -18s21.5 -28 21.5 -48
s-10.333 -41.333 -31 -64l-27 -29c56.667 -20.667 85 -61.667 85 -123c0 -54.667 -21.333 -98 -64 -130s-101 -48 -175 -48c-66.667 0 -100 24 -100 72zM329.999 71.998l245.003 614.999c7.33301 18 21.666 31.5 42.999 40.5s41 10.167 59 3.5
c20 -8.66699 34 -22.667 42 -42s8 -38.666 0 -57.999l-246 -615c-7.33301 -18.667 -20.5 -32.667 -39.5 -42s-38.167 -10 -57.5 -2c-18.667 6.66699 -32.834 20.5 -42.501 41.5s-10.834 40.5 -3.50098 58.5zM620.002 160.997c0 21.333 13.668 47.3311 41.001 77.998l155 176
c22 25.333 46.667 39 74 41c7.33301 0.666992 17.666 -0.333008 30.999 -3c19.333 -5.33301 34.333 -16 45 -32s16 -34.667 16 -56v-164h26c15.333 0 29 -5.66699 41 -17s18 -25.333 18 -42c0 -17.333 -5.5 -31.5 -16.5 -42.5s-25.167 -16.5 -42.5 -16.5h-27v-20
c0 -17.333 -5.5 -32.166 -16.5 -44.499s-25.167 -18.5 -42.5 -18.5c-18 0 -32.333 5.83301 -43 17.5s-16 26.834 -16 45.501v17h-149c-27.333 0 -49.833 7 -67.5 21s-26.5 34 -26.5 60zM776.003 200.995h86v98z" />
    <glyph glyph-name="questiondown" unicode="&#xbf;" horiz-adv-x="548" 
d="M43 194c0 115.333 70.6641 205.333 211.997 270c16.667 8 35 12 55 12c18.667 0 35.334 -6.83301 50.001 -20.5s22 -29.834 22 -48.501c0 -35.333 -17.333 -61 -52 -77c-39.333 -17.333 -69.166 -35.166 -89.499 -53.499s-30.5 -39.5 -30.5 -63.5
c0 -16.667 6.33301 -30.667 19 -42s28.667 -17 48 -17c30 0 59.333 15.333 88 46c19.333 22 41.333 33 66 33c23.333 0 42.833 -8.5 58.5 -25.5s23.5 -36.5 23.5 -58.5c0 -18.667 -7.33301 -37.667 -22 -57c-25.333 -32 -57.666 -56.333 -96.999 -73s-80 -25 -122 -25
c-67.333 0 -122.333 18.5 -165 55.5s-64 85.167 -64 144.5zM228.997 597v43c0 20 6.83301 36.667 20.5 50s31.167 20 52.5 20s38.833 -6.66699 52.5 -20s20.5 -30 20.5 -50v-43c0 -20 -6.66699 -36.5 -20 -49.5s-31 -19.5 -53 -19.5c-21.333 0 -38.833 6.5 -52.5 19.5
s-20.5 29.5 -20.5 49.5z" />
    <glyph glyph-name="Agrave" unicode="&#xc0;" horiz-adv-x="700" 
d="M22 112l179 497.002c27.333 73.333 77.333 110 150 110c73.333 0 123.666 -36.667 150.999 -110l176 -497c8 -20.667 7.5 -42 -1.5 -64s-24.167 -37 -45.5 -45c-22 -8.66699 -44 -8.33398 -66 0.999023s-36.333 24.666 -43 45.999l-43 128h-258l-43 -128
c-8.66699 -21.333 -23.667 -36.833 -45 -46.5s-42.666 -10.167 -63.999 -1.5c-21.333 8 -36.5 23 -45.5 45s-9.5 43.667 -1.5 65zM156 887.002c0 17.333 6.16895 32.833 18.502 46.5s27.166 20.5 44.499 20.5c11.333 0 22.666 -3.33301 33.999 -10l134 -70
c25.333 -13.333 38 -32 38 -56c0 -17.333 -6.16699 -32.5 -18.5 -45.5s-26.833 -19.5 -43.5 -19.5c-11.333 0 -22.333 3 -33 9l-136 69c-25.333 14 -38 32.667 -38 56zM270.002 322.002h161l-70 213c-2 5.33301 -5.33301 8 -10 8s-7.66699 -2.66699 -9 -8z" />
    <glyph glyph-name="Aacute" unicode="&#xc1;" horiz-adv-x="700" 
d="M22 112l179 497.002c27.333 73.333 77.333 110 150 110c73.333 0 123.666 -36.667 150.999 -110l176 -497c8 -20.667 7.5 -42 -1.5 -64s-24.167 -37 -45.5 -45c-22 -8.66699 -44 -8.33398 -66 0.999023s-36.333 24.666 -43 45.999l-43 128h-258l-43 -128
c-8.66699 -21.333 -23.667 -36.833 -45 -46.5s-42.666 -10.167 -63.999 -1.5c-21.333 8 -36.5 23 -45.5 45s-9.5 43.667 -1.5 65zM267 818.002c0 24 12.667 42.667 38 56l135 70c10.667 6.66699 22 10 34 10c16.667 0 31.167 -6.83301 43.5 -20.5s18.5 -29.167 18.5 -46.5
c0 -23.333 -12.667 -42 -38 -56l-135 -69c-12 -6 -23.333 -9 -34 -9c-16.667 0 -31.167 6.5 -43.5 19.5s-18.5 28.167 -18.5 45.5zM270 322.002h161l-70 213c-2 5.33301 -5.33301 8 -10 8s-7.66699 -2.66699 -9 -8z" />
    <glyph glyph-name="Acircumflex" unicode="&#xc2;" horiz-adv-x="700" 
d="M22 112l179 497.002c27.333 73.333 77.333 110 150 110c73.333 0 123.666 -36.667 150.999 -110l176 -497c8 -20.667 7.5 -42 -1.5 -64s-24.167 -37 -45.5 -45c-22 -8.66699 -44 -8.33398 -66 0.999023s-36.333 24.666 -43 45.999l-43 128h-258l-43 -128
c-8.66699 -21.333 -23.667 -36.833 -45 -46.5s-42.666 -10.167 -63.999 -1.5c-21.333 8 -36.5 23 -45.5 45s-9.5 43.667 -1.5 65zM165 819.002c0 20.667 9.66797 38 29.001 52l115 90c16 11.333 30.333 17 43 17c13.333 0 27.333 -5.66699 42 -17l115 -90
c20 -14.667 30 -32 30 -52c0 -16.667 -6.66699 -31.5 -20 -44.5s-28.333 -19.5 -45 -19.5c-12.667 0 -26.334 5.33301 -41.001 16l-81 62l-81 -62c-14.667 -10.667 -28.667 -16 -42 -16c-16 0 -30.667 6.5 -44 19.5s-20 27.833 -20 44.5zM270.001 322.002h161l-70 213
c-2 5.33301 -5.33301 8 -10 8s-7.66699 -2.66699 -9 -8z" />
    <glyph glyph-name="Atilde" unicode="&#xc3;" horiz-adv-x="700" 
d="M22 112l179 497.002c27.333 73.333 77.333 110 150 110c73.333 0 123.666 -36.667 150.999 -110l176 -497c8 -20.667 7.5 -42 -1.5 -64s-24.167 -37 -45.5 -45c-22 -8.66699 -44 -8.33398 -66 0.999023s-36.333 24.666 -43 45.999l-43 128h-258l-43 -128
c-8.66699 -21.333 -23.667 -36.833 -45 -46.5s-42.666 -10.167 -63.999 -1.5c-21.333 8 -36.5 23 -45.5 45s-9.5 43.667 -1.5 65zM162 817.002c0 15.333 8 31 24 47c34 32.667 65.333 49 94 49c20.667 0 45.334 -6.33301 74.001 -19s47.334 -19 56.001 -19
c11.333 0 24.166 5.5 38.499 16.5s26.5 16.5 36.5 16.5c16 0 29.167 -6 39.5 -18s15.5 -25.667 15.5 -41s-8 -31 -24 -47c-32.667 -32.667 -63.667 -49 -93 -49c-17.333 0 -40.833 6.33301 -70.5 19s-49.834 19 -60.501 19c-11.333 0 -24 -5.5 -38 -16.5
s-26.333 -16.5 -37 -16.5c-15.333 0 -28.333 6 -39 18s-16 25.667 -16 41zM270 322.002h161l-70 213c-2 5.33301 -5.33301 8 -10 8s-7.66699 -2.66699 -9 -8z" />
    <glyph glyph-name="Adieresis" unicode="&#xc4;" horiz-adv-x="700" 
d="M22 112l179 497.002c27.333 73.333 77.333 110 150 110c73.333 0 123.666 -36.667 150.999 -110l176 -497c8 -20.667 7.5 -42 -1.5 -64s-24.167 -37 -45.5 -45c-22 -8.66699 -44 -8.33398 -66 0.999023s-36.333 24.666 -43 45.999l-43 128h-258l-43 -128
c-8.66699 -21.333 -23.667 -36.833 -45 -46.5s-42.666 -10.167 -63.999 -1.5c-21.333 8 -36.5 23 -45.5 45s-9.5 43.667 -1.5 65zM178 831.002c0 21.333 7.33301 39.5 22 54.5s32.667 22.5 54 22.5s39.333 -7.5 54 -22.5s22 -33.167 22 -54.5s-7.33301 -39.333 -22 -54
s-32.667 -22 -54 -22s-39.333 7.33301 -54 22s-22 32.667 -22 54zM270 322.002h161l-70 213c-2 5.33301 -5.33301 8 -10 8s-7.66699 -2.66699 -9 -8zM372 831.002c0 21.333 7.33301 39.5 22 54.5s32.667 22.5 54 22.5s39.333 -7.5 54 -22.5s22 -33.167 22 -54.5
s-7.33301 -39.333 -22 -54s-32.667 -22 -54 -22s-39.333 7.33301 -54 22s-22 32.667 -22 54z" />
    <glyph glyph-name="Aring" unicode="&#xc5;" horiz-adv-x="700" 
d="M22 112l179 497.002c27.333 73.333 77.333 110 150 110c73.333 0 123.666 -36.667 150.999 -110l176 -497c8 -20.667 7.5 -42 -1.5 -64s-24.167 -37 -45.5 -45c-22 -8.66699 -44 -8.33398 -66 0.999023s-36.333 24.666 -43 45.999l-43 128h-258l-43 -128
c-8.66699 -21.333 -23.667 -36.833 -45 -46.5s-42.666 -10.167 -63.999 -1.5c-21.333 8 -36.5 23 -45.5 45s-9.5 43.667 -1.5 65zM231 868.002c0 33.333 11.833 61.666 35.5 84.999s51.5 35 83.5 35c33.333 0 62 -11.667 86 -35s36 -51.666 36 -84.999
c0 -32.667 -12 -60.5 -36 -83.5s-52.667 -34.5 -86 -34.5c-32 0 -59.833 11.5 -83.5 34.5s-35.5 50.833 -35.5 83.5zM270 322.002h161l-70 213c-2 5.33301 -5.33301 8 -10 8s-7.66699 -2.66699 -9 -8zM315 868.002c0 -10.667 3.33301 -19.5 10 -26.5s15 -10.5 25 -10.5
s18.5 3.5 25.5 10.5s10.5 15.833 10.5 26.5s-3.5 19.5 -10.5 26.5s-15.5 10.5 -25.5 10.5s-18.333 -3.5 -25 -10.5s-10 -15.833 -10 -26.5z" />
    <glyph glyph-name="AE" unicode="&#xc6;" horiz-adv-x="1086" 
d="M18.5 61.5c-5.66699 23 -2.5 43.167 9.5 60.5l341 498c23.333 34.667 47.333 58.5 72 71.5s60 19.5 106 19.5h412c22.667 0 41.834 -7.5 57.501 -22.5s23.5 -33.833 23.5 -56.5c0 -21.333 -8.16699 -39.833 -24.5 -55.5s-35.166 -23.5 -56.499 -23.5h-268v-125h241
c21.333 0 39.333 -6.66699 54 -20s22 -30.666 22 -51.999c0 -19.333 -7.66699 -36.333 -23 -51s-33 -22 -53 -22h-241v-126h270c21.333 0 40.166 -7.83301 56.499 -23.5s24.5 -33.834 24.5 -54.501c0 -22.667 -7.83301 -41.5 -23.5 -56.5s-34.834 -22.5 -57.501 -22.5h-322
c-37.333 0 -66.333 11 -87 33s-31 49.333 -31 82v82h-244l-110 -164c-12 -18 -29 -29.167 -51 -33.5s-42 -0.833008 -60 10.5c-19.333 11.333 -31.833 28.5 -37.5 51.5zM373 343h148v210c-8 -4 -17.333 -14.667 -28 -32z" />
    <glyph glyph-name="Ccedilla" unicode="&#xc7;" horiz-adv-x="670" 
d="M48 273c-5.33301 54.667 -5.33203 107.333 0.000976562 158c7.33301 82.667 39 151.334 95 206.001s127 82 213 82c58.667 0 112.334 -13.167 161.001 -39.5s84 -64.166 106 -113.499c6 -16 9 -31.667 9 -47c0 -22 -8.66699 -40.667 -26 -56s-36.333 -23 -57 -23
c-18 0 -32.333 4.16699 -43 12.5s-21 20.166 -31 35.499c-28 46.667 -67.667 70 -119 70c-41.333 0 -74 -14 -98 -42s-37.667 -64.667 -41 -110c-2 -37.333 -2 -74.666 0 -111.999c3.33301 -45.333 17 -81 41 -107s56.667 -39 98 -39c51.333 0 91 23.333 119 70
c10 16 20.167 28 30.5 36s24.833 12 43.5 12c20.667 0 39.667 -7.66699 57 -23s26 -34 26 -56c0 -15.333 -3 -31 -9 -47c-20 -44.667 -51.5 -80.167 -94.5 -106.5s-90.833 -41.5 -143.5 -45.5l-8 -20c35.333 -3.33301 62.166 -14.833 80.499 -34.5
s27.833 -45.167 28.5 -76.5c0 -32 -11.5 -58.667 -34.5 -80s-57.167 -40.333 -102.5 -57c-18.667 -6.66699 -36.834 -6.33398 -54.501 0.999023s-26.5 22.333 -26.5 45c0 23.333 12 39.666 36 48.999c42 16.667 65 27.334 69 32.001c3.33301 3.33301 5 8.33301 5 15
c0 5.33301 -2.33301 10.333 -7 15s-11.334 7 -20.001 7c-4.66699 0 -10.5 -0.666992 -17.5 -2s-13.167 -2 -18.5 -2c-15.333 0 -27.5 6.66699 -36.5 20s-10.5 27.333 -4.5 42l20 51c-69.333 12.667 -126.166 44.667 -170.499 96s-69.5 112.666 -75.5 183.999z" />
    <glyph glyph-name="Egrave" unicode="&#xc8;" horiz-adv-x="631" 
d="M66 115v481.001c0 32.667 10.333 59.667 31 81s49.334 32 86.001 32h321c22.667 0 41.834 -7.33301 57.501 -22s23.5 -33 23.5 -55c0 -21.333 -8.16699 -39.833 -24.5 -55.5s-35.166 -23.5 -56.499 -23.5h-268v-125h230c23.333 0 41.833 -6.5 55.5 -19.5
s20.5 -30.5 20.5 -52.5c0 -20 -7.16699 -37.167 -21.5 -51.5s-32.5 -21.5 -54.5 -21.5h-230v-126h270c21.333 0 40.166 -7.83301 56.499 -23.5s24.5 -33.834 24.5 -54.501c0 -22.667 -7.83301 -41.5 -23.5 -56.5s-34.834 -22.5 -57.501 -22.5h-323
c-36.667 0 -65.334 11 -86.001 33s-31 49.333 -31 82zM138 887.001c0 17.333 6.16895 32.833 18.502 46.5s27.166 20.5 44.499 20.5c11.333 0 22.666 -3.33301 33.999 -10l134 -70c25.333 -13.333 38 -32 38 -56c0 -17.333 -6.16699 -32.5 -18.5 -45.5
s-26.833 -19.5 -43.5 -19.5c-11.333 0 -22.333 3 -33 9l-136 69c-25.333 14 -38 32.667 -38 56z" />
    <glyph glyph-name="Eacute" unicode="&#xc9;" horiz-adv-x="631" 
d="M66 115v481.001c0 32.667 10.333 59.667 31 81s49.334 32 86.001 32h321c22.667 0 41.834 -7.33301 57.501 -22s23.5 -33 23.5 -55c0 -21.333 -8.16699 -39.833 -24.5 -55.5s-35.166 -23.5 -56.499 -23.5h-268v-125h230c23.333 0 41.833 -6.5 55.5 -19.5
s20.5 -30.5 20.5 -52.5c0 -20 -7.16699 -37.167 -21.5 -51.5s-32.5 -21.5 -54.5 -21.5h-230v-126h270c21.333 0 40.166 -7.83301 56.499 -23.5s24.5 -33.834 24.5 -54.501c0 -22.667 -7.83301 -41.5 -23.5 -56.5s-34.834 -22.5 -57.501 -22.5h-323
c-36.667 0 -65.334 11 -86.001 33s-31 49.333 -31 82zM233 818.001c0 24 12.667 42.667 38 56l135 70c10.667 6.66699 22 10 34 10c16.667 0 31.167 -6.83301 43.5 -20.5s18.5 -29.167 18.5 -46.5c0 -23.333 -12.667 -42 -38 -56l-135 -69c-12 -6 -23.333 -9 -34 -9
c-16.667 0 -31.167 6.5 -43.5 19.5s-18.5 28.167 -18.5 45.5z" />
    <glyph glyph-name="Ecircumflex" unicode="&#xca;" horiz-adv-x="631" 
d="M66 115v481.001c0 32.667 10.333 59.667 31 81s49.334 32 86.001 32h321c22.667 0 41.834 -7.33301 57.501 -22s23.5 -33 23.5 -55c0 -21.333 -8.16699 -39.833 -24.5 -55.5s-35.166 -23.5 -56.499 -23.5h-268v-125h230c23.333 0 41.833 -6.5 55.5 -19.5
s20.5 -30.5 20.5 -52.5c0 -20 -7.16699 -37.167 -21.5 -51.5s-32.5 -21.5 -54.5 -21.5h-230v-126h270c21.333 0 40.166 -7.83301 56.499 -23.5s24.5 -33.834 24.5 -54.501c0 -22.667 -7.83301 -41.5 -23.5 -56.5s-34.834 -22.5 -57.501 -22.5h-323
c-36.667 0 -65.334 11 -86.001 33s-31 49.333 -31 82zM144 819.001c0 20.667 9.66797 38 29.001 52l115 90c16 11.333 30.333 17 43 17c13.333 0 27.333 -5.66699 42 -17l115 -90c20 -14.667 30 -32 30 -52c0 -16.667 -6.66699 -31.5 -20 -44.5s-28.333 -19.5 -45 -19.5
c-12.667 0 -26.334 5.33301 -41.001 16l-81 62l-81 -62c-14.667 -10.667 -28.667 -16 -42 -16c-16 0 -30.667 6.5 -44 19.5s-20 27.833 -20 44.5z" />
    <glyph glyph-name="Edieresis" unicode="&#xcb;" horiz-adv-x="631" 
d="M66 115v481.001c0 32.667 10.333 59.667 31 81s49.334 32 86.001 32h321c22.667 0 41.834 -7.33301 57.501 -22s23.5 -33 23.5 -55c0 -21.333 -8.16699 -39.833 -24.5 -55.5s-35.166 -23.5 -56.499 -23.5h-268v-125h230c23.333 0 41.833 -6.5 55.5 -19.5
s20.5 -30.5 20.5 -52.5c0 -20 -7.16699 -37.167 -21.5 -51.5s-32.5 -21.5 -54.5 -21.5h-230v-126h270c21.333 0 40.166 -7.83301 56.499 -23.5s24.5 -33.834 24.5 -54.501c0 -22.667 -7.83301 -41.5 -23.5 -56.5s-34.834 -22.5 -57.501 -22.5h-323
c-36.667 0 -65.334 11 -86.001 33s-31 49.333 -31 82zM159 830.001c0 21.333 7.33301 39.5 22 54.5s32.667 22.5 54 22.5s39.333 -7.5 54 -22.5s22 -33.167 22 -54.5s-7.33301 -39.333 -22 -54s-32.667 -22 -54 -22s-39.333 7.33301 -54 22s-22 32.667 -22 54zM353 830.001
c0 21.333 7.33301 39.5 22 54.5s32.667 22.5 54 22.5s39.333 -7.5 54 -22.5s22 -33.167 22 -54.5s-7.33301 -39.333 -22 -54s-32.667 -22 -54 -22s-39.333 7.33301 -54 22s-22 32.667 -22 54z" />
    <glyph glyph-name="Igrave" unicode="&#xcc;" horiz-adv-x="294" 
d="M-44 887c0 17.333 6.16895 32.833 18.502 46.5s27.166 20.5 44.499 20.5c11.333 0 22.666 -3.33301 33.999 -10l134 -70c25.333 -13.333 38 -32 38 -56c0 -17.333 -6.16699 -32.5 -18.5 -45.5s-26.833 -19.5 -43.5 -19.5c-11.333 0 -22.333 3 -33 9l-136 69
c-25.333 14 -38 32.667 -38 56zM62.002 84v538c0 24 8.5 44.5 25.5 61.5s36.833 25.5 59.5 25.5c24 0 44.167 -8.5 60.5 -25.5s24.5 -37.5 24.5 -61.5v-538c0 -24.667 -8.16699 -45.5 -24.5 -62.5s-36.5 -25.5 -60.5 -25.5c-23.333 0 -43.333 8.5 -60 25.5
s-25 37.833 -25 62.5z" />
    <glyph glyph-name="Iacute" unicode="&#xcd;" horiz-adv-x="294" 
d="M49 818c0 24 12.667 42.667 38 56l135 70c10.667 6.66699 22 10 34 10c16.667 0 31.167 -6.83301 43.5 -20.5s18.5 -29.167 18.5 -46.5c0 -23.333 -12.667 -42 -38 -56l-135 -69c-12 -6 -23.333 -9 -34 -9c-16.667 0 -31.167 6.5 -43.5 19.5s-18.5 28.167 -18.5 45.5z
M62 84v538c0 24 8.5 44.5 25.5 61.5s36.833 25.5 59.5 25.5c24 0 44.167 -8.5 60.5 -25.5s24.5 -37.5 24.5 -61.5v-538c0 -24.667 -8.16699 -45.5 -24.5 -62.5s-36.5 -25.5 -60.5 -25.5c-23.333 0 -43.333 8.5 -60 25.5s-25 37.833 -25 62.5z" />
    <glyph glyph-name="Icircumflex" unicode="&#xce;" horiz-adv-x="294" 
d="M-43 819c0 20.667 9.66797 38 29.001 52l115 90c16 11.333 30.333 17 43 17c13.333 0 27.333 -5.66699 42 -17l115 -90c20 -14.667 30 -32 30 -52c0 -16.667 -6.66699 -31.5 -20 -44.5s-28.333 -19.5 -45 -19.5c-12.667 0 -26.334 5.33301 -41.001 16l-81 62l-81 -62
c-14.667 -10.667 -28.667 -16 -42 -16c-16 0 -30.667 6.5 -44 19.5s-20 27.833 -20 44.5zM62.001 84v538c0 24 8.5 44.5 25.5 61.5s36.833 25.5 59.5 25.5c24 0 44.167 -8.5 60.5 -25.5s24.5 -37.5 24.5 -61.5v-538c0 -24.667 -8.16699 -45.5 -24.5 -62.5
s-36.5 -25.5 -60.5 -25.5c-23.333 0 -43.333 8.5 -60 25.5s-25 37.833 -25 62.5z" />
    <glyph glyph-name="Idieresis" unicode="&#xcf;" horiz-adv-x="294" 
d="M-24 831c0 21.333 7.33301 39.5 22 54.5s32.667 22.5 54 22.5s39.333 -7.5 54 -22.5s22 -33.167 22 -54.5s-7.33301 -39.333 -22 -54s-32.667 -22 -54 -22s-39.333 7.33301 -54 22s-22 32.667 -22 54zM62 84v538c0 24 8.5 44.5 25.5 61.5s36.833 25.5 59.5 25.5
c24 0 44.167 -8.5 60.5 -25.5s24.5 -37.5 24.5 -61.5v-538c0 -24.667 -8.16699 -45.5 -24.5 -62.5s-36.5 -25.5 -60.5 -25.5c-23.333 0 -43.333 8.5 -60 25.5s-25 37.833 -25 62.5zM170 831c0 21.333 7.33301 39.5 22 54.5s32.667 22.5 54 22.5s39.333 -7.5 54 -22.5
s22 -33.167 22 -54.5s-7.33301 -39.333 -22 -54s-32.667 -22 -54 -22s-39.333 7.33301 -54 22s-22 32.667 -22 54z" />
    <glyph glyph-name="Eth" unicode="&#xd0;" horiz-adv-x="718" 
d="M-23 355c0 20 6.83594 36.999 20.5029 50.999s30.834 21 51.501 21h17v169c0 33.333 10.167 60.5 30.5 81.5s49.166 31.5 86.499 31.5h145c108 0 190.167 -26.333 246.5 -79s87.833 -124.667 94.5 -216c3.33301 -41.333 3.66602 -77.333 0.999023 -108
c-6.66699 -94 -37.834 -168.5 -93.501 -223.5s-138.5 -82.5 -248.5 -82.5h-145c-36 0 -64.5 10.833 -85.5 32.5s-31.5 48.834 -31.5 81.501v168h-17c-20.667 0 -37.834 7 -51.501 21s-20.5 31.333 -20.5 52zM236.003 166.999h97c104 0 159.667 49.667 167 149
c2 22 2.33301 45 1 69c-4 106 -60 159 -168 159h-97v-117h87c20.667 0 38 -7 52 -21s21 -31 21 -51c0 -20.667 -7 -38 -21 -52s-31.333 -21 -52 -21h-87v-115z" />
    <glyph glyph-name="Ntilde" unicode="&#xd1;" horiz-adv-x="766" 
d="M66 81v493.002c0 37.333 11.667 68.666 35 93.999s53.333 38 90 38c59.333 0 100.333 -23.667 123 -71l224 -419v-1l3 1c-7.33301 76.667 -11 169 -11 277v129c0 24 8.33301 44.5 25 61.5s36.667 25.5 60 25.5c24.667 0 45 -8.33301 61 -25s24 -37.334 24 -62.001v-496
c0 -36.667 -11.5 -67.667 -34.5 -93s-52.833 -38 -89.5 -38c-58 0 -98.667 23.333 -122 70l-229 428l-3 -1c8 -83.333 12 -165.333 12 -246v-165c0 -24.667 -7.83301 -45.5 -23.5 -62.5s-35.5 -25.5 -59.5 -25.5c-22.667 0 -42.5 8.83301 -59.5 26.5
s-25.5 38.167 -25.5 61.5zM214 819.002c0 15.333 8 31 24 47c34 32.667 65.333 49 94 49c20.667 0 45.334 -6.33301 74.001 -19s47.334 -19 56.001 -19c11.333 0 24.166 5.5 38.499 16.5s26.5 16.5 36.5 16.5c16 0 29.167 -6 39.5 -18s15.5 -25.667 15.5 -41s-8 -31 -24 -47
c-32.667 -32.667 -63.667 -49 -93 -49c-17.333 0 -40.833 6.33301 -70.5 19s-49.834 19 -60.501 19c-11.333 0 -24 -5.5 -38 -16.5s-26.333 -16.5 -37 -16.5c-15.333 0 -28.333 6 -39 18s-16 25.667 -16 41z" />
    <glyph glyph-name="Ograve" unicode="&#xd2;" horiz-adv-x="737" 
d="M48 273c-5.33301 54.667 -5.33301 107.335 0 158.002c7.33301 82 40.833 150.5 100.5 205.5s132.5 82.5 218.5 82.5s159.333 -27.833 220 -83.5s94.667 -123.834 102 -204.501c4 -52.667 4 -105.334 0 -158.001c-7.33301 -80.667 -41.333 -148.5 -102 -203.5
s-134 -82.5 -220 -82.5s-158.833 27.333 -218.5 82s-93.167 122.667 -100.5 204zM193 887.001c0 17.333 6.16895 32.833 18.502 46.5s27.166 20.5 44.499 20.5c11.333 0 22.666 -3.33301 33.999 -10l134 -70c25.333 -13.333 38 -32 38 -56
c0 -17.333 -6.16699 -32.5 -18.5 -45.5s-26.833 -19.5 -43.5 -19.5c-10.667 0 -21.667 3 -33 9l-136 69c-25.333 14 -38 32.667 -38 56zM217.002 298.001c3.33301 -44 18.666 -80 45.999 -108s62 -42 104 -42c42.667 0 78 14 106 42s43.333 64 46 108
c3.33301 36.667 3.33301 74 0 112c-2.66699 43.333 -18 79 -46 107s-63.333 42 -106 42c-42 0 -76.667 -13.833 -104 -41.5s-42.666 -63.5 -45.999 -107.5c-2 -38 -2 -75.333 0 -112z" />
    <glyph glyph-name="Oacute" unicode="&#xd3;" horiz-adv-x="737" 
d="M48 273c-5.33301 54.667 -5.33301 107.335 0 158.002c7.33301 82 40.833 150.5 100.5 205.5s132.5 82.5 218.5 82.5s159.333 -27.833 220 -83.5s94.667 -123.834 102 -204.501c4 -52.667 4 -105.334 0 -158.001c-7.33301 -80.667 -41.333 -148.5 -102 -203.5
s-134 -82.5 -220 -82.5s-158.833 27.333 -218.5 82s-93.167 122.667 -100.5 204zM217 298.001c3.33301 -44 18.666 -80 45.999 -108s62 -42 104 -42c42.667 0 78 14 106 42s43.333 64 46 108c3.33301 36.667 3.33301 74 0 112c-2.66699 43.333 -18 79 -46 107
s-63.333 42 -106 42c-42 0 -76.667 -13.833 -104 -41.5s-42.666 -63.5 -45.999 -107.5c-2 -38 -2 -75.333 0 -112zM266 818.001c0 24 12.667 42.667 38 56l135 70c10.667 6.66699 22 10 34 10c16.667 0 31.167 -6.83301 43.5 -20.5s18.5 -29.167 18.5 -46.5
c0 -23.333 -12.667 -42 -38 -56l-135 -69c-12 -6 -23.333 -9 -34 -9c-16.667 0 -31.167 6.5 -43.5 19.5s-18.5 28.167 -18.5 45.5z" />
    <glyph glyph-name="Ocircumflex" unicode="&#xd4;" horiz-adv-x="737" 
d="M48 273c-5.33301 54.667 -5.33301 107.335 0 158.002c7.33301 82 40.833 150.5 100.5 205.5s132.5 82.5 218.5 82.5s159.333 -27.833 220 -83.5s94.667 -123.834 102 -204.501c4 -52.667 4 -105.334 0 -158.001c-7.33301 -80.667 -41.333 -148.5 -102 -203.5
s-134 -82.5 -220 -82.5s-158.833 27.333 -218.5 82s-93.167 122.667 -100.5 204zM186 819.001c0 20.667 9.66797 38 29.001 52l115 90c16 11.333 30.333 17 43 17c13.333 0 27.333 -5.66699 42 -17l115 -90c20 -14.667 30 -32 30 -52c0 -16.667 -6.66699 -31.5 -20 -44.5
s-28.333 -19.5 -45 -19.5c-12.667 0 -26.334 5.33301 -41.001 16l-81 62l-81 -62c-14.667 -10.667 -28.667 -16 -42 -16c-16 0 -30.667 6.5 -44 19.5s-20 27.833 -20 44.5zM217.001 298.001c3.33301 -44 18.666 -80 45.999 -108s62 -42 104 -42c42.667 0 78 14 106 42
s43.333 64 46 108c3.33301 36.667 3.33301 74 0 112c-2.66699 43.333 -18 79 -46 107s-63.333 42 -106 42c-42 0 -76.667 -13.833 -104 -41.5s-42.666 -63.5 -45.999 -107.5c-2 -38 -2 -75.333 0 -112z" />
    <glyph glyph-name="Otilde" unicode="&#xd5;" horiz-adv-x="737" 
d="M48 273c-5.33301 54.667 -5.33301 107.335 0 158.002c7.33301 82 40.833 150.5 100.5 205.5s132.5 82.5 218.5 82.5s159.333 -27.833 220 -83.5s94.667 -123.834 102 -204.501c4 -52.667 4 -105.334 0 -158.001c-7.33301 -80.667 -41.333 -148.5 -102 -203.5
s-134 -82.5 -220 -82.5s-158.833 27.333 -218.5 82s-93.167 122.667 -100.5 204zM176 815.001c0 15.333 8 31 24 47c34 32.667 65.333 49 94 49c20.667 0 45.334 -6.33301 74.001 -19s47.334 -19 56.001 -19c11.333 0 24.166 5.5 38.499 16.5s26.5 16.5 36.5 16.5
c16 0 29.167 -6 39.5 -18s15.5 -25.667 15.5 -41s-8 -31 -24 -47c-32.667 -32.667 -63.667 -49 -93 -49c-17.333 0 -40.833 6.33301 -70.5 19s-49.834 19 -60.501 19c-11.333 0 -24 -5.5 -38 -16.5s-26.333 -16.5 -37 -16.5c-15.333 0 -28.333 6 -39 18s-16 25.667 -16 41z
M217 298.001c3.33301 -44 18.666 -80 45.999 -108s62 -42 104 -42c42.667 0 78 14 106 42s43.333 64 46 108c3.33301 36.667 3.33301 74 0 112c-2.66699 43.333 -18 79 -46 107s-63.333 42 -106 42c-42 0 -76.667 -13.833 -104 -41.5s-42.666 -63.5 -45.999 -107.5
c-2 -38 -2 -75.333 0 -112z" />
    <glyph glyph-name="Odieresis" unicode="&#xd6;" horiz-adv-x="737" 
d="M48 273c-5.33301 54.667 -5.33301 107.335 0 158.002c7.33301 82 40.833 150.5 100.5 205.5s132.5 82.5 218.5 82.5s159.333 -27.833 220 -83.5s94.667 -123.834 102 -204.501c4 -52.667 4 -105.334 0 -158.001c-7.33301 -80.667 -41.333 -148.5 -102 -203.5
s-134 -82.5 -220 -82.5s-158.833 27.333 -218.5 82s-93.167 122.667 -100.5 204zM196 831.001c0 21.333 7.33301 39.5 22 54.5s32.667 22.5 54 22.5s39.333 -7.5 54 -22.5s22 -33.167 22 -54.5s-7.33301 -39.333 -22 -54s-32.667 -22 -54 -22s-39.333 7.33301 -54 22
s-22 32.667 -22 54zM217 298.001c3.33301 -44 18.666 -80 45.999 -108s62 -42 104 -42c42.667 0 78 14 106 42s43.333 64 46 108c3.33301 36.667 3.33301 74 0 112c-2.66699 43.333 -18 79 -46 107s-63.333 42 -106 42c-42 0 -76.667 -13.833 -104 -41.5
s-42.666 -63.5 -45.999 -107.5c-2 -38 -2 -75.333 0 -112zM390 831.001c0 21.333 7.33301 39.5 22 54.5s32.667 22.5 54 22.5s39.333 -7.5 54 -22.5s22 -33.167 22 -54.5s-7.33301 -39.333 -22 -54s-32.667 -22 -54 -22s-39.333 7.33301 -54 22s-22 32.667 -22 54z" />
    <glyph glyph-name="multiply" unicode="&#xd7;" horiz-adv-x="628" 
d="M80 194c0 22.667 7.66797 41.666 23.001 56.999l101 100l-101 101c-15.333 15.333 -23 34.166 -23 56.499s7.66699 40.833 23 55.5c16 15.333 34.5 22.833 55.5 22.5s39.167 -8.16602 54.5 -23.499l101 -102l100 100c15.333 15.333 34.166 23 56.499 23
s41.166 -8.33301 56.499 -25c14.667 -15.333 21.667 -33.666 21 -54.999s-8.33398 -39 -23.001 -53l-100 -100l98 -96c15.333 -14.667 23.333 -32.834 24 -54.501s-6 -40.167 -20 -55.5c-15.333 -16.667 -34.166 -25.167 -56.499 -25.5s-41.166 7.16699 -56.499 22.5
l-100 100l-101 -102c-15.333 -15.333 -33.5 -23.166 -54.5 -23.499s-39.5 7.16699 -55.5 22.5c-15.333 14 -23 32.333 -23 55z" />
    <glyph glyph-name="Oslash" unicode="&#xd8;" horiz-adv-x="743" 
d="M54 273c-5.33301 54.667 -5.33203 107.334 0.000976562 158.001c7.33301 82 40.833 150.5 100.5 205.5s132.5 82.5 218.5 82.5c58.667 0 113 -14 163 -42l12 15c13.333 15.333 29.666 24 48.999 26s37 -3.33301 53 -16c16 -12 25 -27.833 27 -47.5
s-3.66699 -37.5 -17 -53.5l-18 -23c30.667 -45.333 48.334 -94.333 53.001 -147c4 -52.667 4 -105.334 0 -158.001c-7.33301 -80.667 -41.333 -148.5 -102 -203.5s-134 -82.5 -220 -82.5c-61.333 0 -117 14.667 -167 44l-14 -17c-12.667 -16 -28.667 -25 -48 -27
s-37.333 3.66699 -54 17c-16.667 12.667 -25.834 28.5 -27.501 47.5s4.5 37.167 18.5 54.5l20 26c-27.333 43.333 -43 90.333 -47 141zM223.001 298c0 -5.33301 0.332031 -9.33301 0.999023 -12l209 261c-18 8 -38 12 -60 12c-42 0 -76.667 -13.833 -104 -41.5
s-42.666 -63.5 -45.999 -107.5c-2 -38 -2 -75.333 0 -112zM309 161c20.667 -8.66699 42 -13 64 -13c42.667 0 78 14 106 42s43.333 64 46 108c3.33301 36.667 3.33301 74 0 112l-2 19z" />
    <glyph glyph-name="Ugrave" unicode="&#xd9;" horiz-adv-x="747" 
d="M61 311l-0.000976562 310.999c0 24 8.33301 44.5 25 61.5s36.334 25.5 59.001 25.5c24 0 44.167 -8.5 60.5 -25.5s24.5 -37.5 24.5 -61.5v-324c0 -46.667 13.5 -83.834 40.5 -111.501s61.5 -41.5 103.5 -41.5s76.333 13.833 103 41.5s40 64.834 40 111.501v324
c0 24.667 8.33301 45.334 25 62.001s36.667 25 60 25c24.667 0 45 -8.33301 61 -25s24 -37.334 24 -62.001v-311c0 -95.333 -29.667 -173.166 -89 -233.499s-134.333 -90.5 -225 -90.5c-90 0 -164.5 30 -223.5 90s-88.5 138 -88.5 234zM186.999 886.999
c0 17.333 6.16895 32.833 18.502 46.5s27.166 20.5 44.499 20.5c11.333 0 22.666 -3.33301 33.999 -10l134 -70c25.333 -13.333 38 -32 38 -56c0 -17.333 -6.16699 -32.5 -18.5 -45.5s-26.833 -19.5 -43.5 -19.5c-10.667 0 -21.667 3 -33 9l-136 69
c-25.333 14 -38 32.667 -38 56z" />
    <glyph glyph-name="Uacute" unicode="&#xda;" horiz-adv-x="747" 
d="M61 311l-0.000976562 310.999c0 24 8.33301 44.5 25 61.5s36.334 25.5 59.001 25.5c24 0 44.167 -8.5 60.5 -25.5s24.5 -37.5 24.5 -61.5v-324c0 -46.667 13.5 -83.834 40.5 -111.501s61.5 -41.5 103.5 -41.5s76.333 13.833 103 41.5s40 64.834 40 111.501v324
c0 24.667 8.33301 45.334 25 62.001s36.667 25 60 25c24.667 0 45 -8.33301 61 -25s24 -37.334 24 -62.001v-311c0 -95.333 -29.667 -173.166 -89 -233.499s-134.333 -90.5 -225 -90.5c-90 0 -164.5 30 -223.5 90s-88.5 138 -88.5 234zM281.999 817.999
c0 24 12.667 42.667 38 56l135 70c10.667 6.66699 22 10 34 10c16.667 0 31.167 -6.83301 43.5 -20.5s18.5 -29.167 18.5 -46.5c0 -23.333 -12.667 -42 -38 -56l-135 -69c-12 -6 -23.333 -9 -34 -9c-16.667 0 -31.167 6.5 -43.5 19.5s-18.5 28.167 -18.5 45.5z" />
    <glyph glyph-name="Ucircumflex" unicode="&#xdb;" horiz-adv-x="747" 
d="M61 311l-0.000976562 310.999c0 24 8.33301 44.5 25 61.5s36.334 25.5 59.001 25.5c24 0 44.167 -8.5 60.5 -25.5s24.5 -37.5 24.5 -61.5v-324c0 -46.667 13.5 -83.834 40.5 -111.501s61.5 -41.5 103.5 -41.5s76.333 13.833 103 41.5s40 64.834 40 111.501v324
c0 24.667 8.33301 45.334 25 62.001s36.667 25 60 25c24.667 0 45 -8.33301 61 -25s24 -37.334 24 -62.001v-311c0 -95.333 -29.667 -173.166 -89 -233.499s-134.333 -90.5 -225 -90.5c-90 0 -164.5 30 -223.5 90s-88.5 138 -88.5 234zM190.999 818.999
c0 20.667 9.66797 38 29.001 52l115 90c16 11.333 30.333 17 43 17c13.333 0 27.333 -5.66699 42 -17l115 -90c20 -14.667 30 -32 30 -52c0 -16.667 -6.66699 -31.5 -20 -44.5s-28.333 -19.5 -45 -19.5c-12.667 0 -26.334 5.33301 -41.001 16l-81 62l-81 -62
c-14.667 -10.667 -28.667 -16 -42 -16c-16 0 -30.667 6.5 -44 19.5s-20 27.833 -20 44.5z" />
    <glyph glyph-name="Udieresis" unicode="&#xdc;" horiz-adv-x="747" 
d="M61 311l-0.000976562 310.999c0 24 8.33301 44.5 25 61.5s36.334 25.5 59.001 25.5c24 0 44.167 -8.5 60.5 -25.5s24.5 -37.5 24.5 -61.5v-324c0 -46.667 13.5 -83.834 40.5 -111.501s61.5 -41.5 103.5 -41.5s76.333 13.833 103 41.5s40 64.834 40 111.501v324
c0 24.667 8.33301 45.334 25 62.001s36.667 25 60 25c24.667 0 45 -8.33301 61 -25s24 -37.334 24 -62.001v-311c0 -95.333 -29.667 -173.166 -89 -233.499s-134.333 -90.5 -225 -90.5c-90 0 -164.5 30 -223.5 90s-88.5 138 -88.5 234zM200.999 830.999
c0 21.333 7.33301 39.5 22 54.5s32.667 22.5 54 22.5s39.333 -7.5 54 -22.5s22 -33.167 22 -54.5s-7.33301 -39.333 -22 -54s-32.667 -22 -54 -22s-39.333 7.33301 -54 22s-22 32.667 -22 54zM394.999 830.999c0 21.333 7.33301 39.5 22 54.5s32.667 22.5 54 22.5
s39.333 -7.5 54 -22.5s22 -33.167 22 -54.5s-7.33301 -39.333 -22 -54s-32.667 -22 -54 -22s-39.333 7.33301 -54 22s-22 32.667 -22 54z" />
    <glyph glyph-name="Yacute" unicode="&#xdd;" horiz-adv-x="668" 
d="M8 629.5c2 23.667 12.335 43.5029 31.002 59.5029c18 16 39.5 22.667 64.5 20s44.833 -13.667 59.5 -33l170 -215l173 215c15.333 18.667 35 29.5 59 32.5s45.333 -3.16699 64 -18.5c18 -16 28.333 -36 31 -60s-4 -45.667 -20 -65l-194 -230
c-7.33301 -8.66699 -12.333 -14.834 -15 -18.501s-5.33398 -9 -8.00098 -16s-4 -14.5 -4 -22.5v-195c0 -24.667 -8.16699 -45.334 -24.5 -62.001s-36.833 -25 -61.5 -25c-22.667 0 -42.334 8.66699 -59.001 26s-25 37.666 -25 60.999v195c0 16.667 -9.33301 36 -28 58
l-192 228c-16 20 -23 41.833 -21 65.5zM199.002 818.003c0 24 12.667 42.667 38 56l135 70c10.667 6.66699 22 10 34 10c16.667 0 31.167 -6.83301 43.5 -20.5s18.5 -29.167 18.5 -46.5c0 -23.333 -12.667 -42 -38 -56l-135 -69c-12 -6 -23.333 -9 -34 -9
c-16.667 0 -31.167 6.5 -43.5 19.5s-18.5 28.167 -18.5 45.5z" />
    <glyph glyph-name="Thorn" unicode="&#xde;" horiz-adv-x="650" 
d="M66 82v540c0 23.333 8.5 43.833 25.5 61.5s36.833 26.5 59.5 26.5c24 0 44.167 -8.5 60.5 -25.5s24.5 -37.833 24.5 -62.5v-22h134c72 0 132.667 -22.167 182 -66.5s74 -104.5 74 -180.5c0 -77.333 -24.5 -138 -73.5 -182s-112.833 -66 -191.5 -66h-125v-23
c0 -24 -8.16699 -44.667 -24.5 -62s-36.5 -26 -60.5 -26c-22.667 0 -42.5 8.83301 -59.5 26.5s-25.5 38.167 -25.5 61.5zM236 265l120.001 -0.000976562c33.333 0 58.166 8.16699 74.499 24.5s24.5 38.833 24.5 67.5s-8 51.334 -24 68.001s-40.333 25 -73 25h-122v-185z" />
    <glyph glyph-name="germandbls" unicode="&#xdf;" horiz-adv-x="715" 
d="M61 81l-0.00195312 419.999c0 72 23.5 128.5 70.5 169.5s114.833 61.5 203.5 61.5c66.667 0 119.5 -13.833 158.5 -41.5s58.5 -66.167 58.5 -115.5c0 -22 -3.66699 -42.167 -11 -60.5s-15.166 -32.666 -23.499 -42.999s-16.166 -21.5 -23.499 -33.5s-11 -23 -11 -33
s3.33301 -17.667 10 -23s20.167 -12.5 40.5 -21.5s37.166 -17.5 50.499 -25.5c36.667 -20.667 61.167 -43.834 73.5 -69.501s18.5 -55.167 18.5 -88.5c0 -46 -18.167 -88 -54.5 -126s-89.166 -57 -158.499 -57c-64 0 -117 16.333 -159 49c-20 16 -32.167 34.833 -36.5 56.5
s-1.16602 39.834 9.50098 54.501c12 17.333 28.5 27.333 49.5 30s43.167 -4.66602 66.5 -21.999c18 -14 37.333 -21 58 -21c17.333 0 31.666 5.16699 42.999 15.5s17 24.166 17 41.499c0 27.333 -27 48.666 -81 63.999c-40.667 12 -69.667 27.167 -87 45.5
s-26 41.5 -26 69.5c0 28.667 11.667 58.334 35 89.001s35 53.667 35 69c0 13.333 -5.5 24.5 -16.5 33.5s-27.167 13.5 -48.5 13.5c-64 0 -96 -32.667 -96 -98v-403c0 -24 -7.83301 -44.5 -23.5 -61.5s-35.5 -25.5 -59.5 -25.5c-22.667 0 -42 8.5 -58 25.5s-24 37.5 -24 61.5
z" />
    <glyph glyph-name="agrave" unicode="&#xe0;" horiz-adv-x="555" 
d="M39 166c0 46.667 16.501 85.501 49.501 116.501s83.5 46.5 151.5 46.5c40.667 0 75 -4.33301 103 -13v34c0 18.667 -5.83301 33 -17.5 43s-31.834 15 -60.501 15c-19.333 0 -47 -4.66699 -83 -14c-33.333 -8 -60.333 -5.83301 -81 6.5s-31 30.833 -31 55.5
c0 33.333 19.333 57.666 58 72.999c40 16 85.667 24 137 24c156.667 0 235 -70.667 235 -212v-242c0 -24 -9.33301 -42.333 -28 -55c-56 -36 -127.667 -54 -215 -54c-72 0 -126.333 16.833 -163 50.5s-55 75.5 -55 125.5zM116.001 723.001
c0 17.333 6.16895 32.833 18.502 46.5s27.166 20.5 44.499 20.5c11.333 0 22.666 -3.33301 33.999 -10l134 -70c25.333 -13.333 38 -32 38 -56c0 -17.333 -6.16699 -32.5 -18.5 -45.5s-26.833 -19.5 -43.5 -19.5c-11.333 0 -22.333 3 -33 9l-136 69
c-25.333 14 -38 32.667 -38 56zM194.003 171.001c0 -18 6.50195 -31.501 19.502 -40.501s29.833 -13.5 50.5 -13.5c30.667 0 57 7.33301 79 22v74c-24.667 8 -51.334 12 -80.001 12c-22.667 0 -39.834 -5.16699 -51.501 -15.5s-17.5 -23.166 -17.5 -38.499z" />
    <glyph glyph-name="aacute" unicode="&#xe1;" horiz-adv-x="555" 
d="M39 166c0 46.667 16.501 85.501 49.501 116.501s83.5 46.5 151.5 46.5c40.667 0 75 -4.33301 103 -13v34c0 18.667 -5.83301 33 -17.5 43s-31.834 15 -60.501 15c-19.333 0 -47 -4.66699 -83 -14c-33.333 -8 -60.333 -5.83301 -81 6.5s-31 30.833 -31 55.5
c0 33.333 19.333 57.666 58 72.999c40 16 85.667 24 137 24c156.667 0 235 -70.667 235 -212v-242c0 -24 -9.33301 -42.333 -28 -55c-56 -36 -127.667 -54 -215 -54c-72 0 -126.333 16.833 -163 50.5s-55 75.5 -55 125.5zM186.001 654.001c0 24 12.667 42.667 38 56l135 70
c10.667 6.66699 22 10 34 10c16.667 0 31.167 -6.83301 43.5 -20.5s18.5 -29.167 18.5 -46.5c0 -23.333 -12.667 -42 -38 -56l-135 -69c-12 -6 -23.333 -9 -34 -9c-16.667 0 -31.167 6.5 -43.5 19.5s-18.5 28.167 -18.5 45.5zM194.001 171.001
c0 -18 6.50195 -31.501 19.502 -40.501s29.833 -13.5 50.5 -13.5c30.667 0 57 7.33301 79 22v74c-24.667 8 -51.334 12 -80.001 12c-22.667 0 -39.834 -5.16699 -51.501 -15.5s-17.5 -23.166 -17.5 -38.499z" />
    <glyph glyph-name="acircumflex" unicode="&#xe2;" horiz-adv-x="555" 
d="M39 166c0 46.667 16.501 85.501 49.501 116.501s83.5 46.5 151.5 46.5c40.667 0 75 -4.33301 103 -13v34c0 18.667 -5.83301 33 -17.5 43s-31.834 15 -60.501 15c-19.333 0 -47 -4.66699 -83 -14c-33.333 -8 -60.333 -5.83301 -81 6.5s-31 30.833 -31 55.5
c0 33.333 19.333 57.666 58 72.999c40 16 85.667 24 137 24c156.667 0 235 -70.667 235 -212v-242c0 -24 -9.33301 -42.333 -28 -55c-56 -36 -127.667 -54 -215 -54c-72 0 -126.333 16.833 -163 50.5s-55 75.5 -55 125.5zM101.001 642.001c0 20.667 9.66797 38 29.001 52
l115 90c16 11.333 30.333 17 43 17c13.333 0 27.333 -5.66699 42 -17l115 -90c20 -14.667 30 -32 30 -52c0 -16.667 -6.66699 -31.5 -20 -44.5s-28.333 -19.5 -45 -19.5c-12.667 0 -26.334 5.33301 -41.001 16l-81 62l-81 -62c-14.667 -10.667 -28.667 -16 -42 -16
c-16 0 -30.667 6.5 -44 19.5s-20 27.833 -20 44.5zM194.002 171.001c0 -18 6.50195 -31.501 19.502 -40.501s29.833 -13.5 50.5 -13.5c30.667 0 57 7.33301 79 22v74c-24.667 8 -51.334 12 -80.001 12c-22.667 0 -39.834 -5.16699 -51.501 -15.5
s-17.5 -23.166 -17.5 -38.499z" />
    <glyph glyph-name="atilde" unicode="&#xe3;" horiz-adv-x="555" 
d="M39 166c0 46.667 16.501 85.501 49.501 116.501s83.5 46.5 151.5 46.5c40.667 0 75 -4.33301 103 -13v34c0 18.667 -5.83301 33 -17.5 43s-31.834 15 -60.501 15c-19.333 0 -47 -4.66699 -83 -14c-33.333 -8 -60.333 -5.83301 -81 6.5s-31 30.833 -31 55.5
c0 33.333 19.333 57.666 58 72.999c40 16 85.667 24 137 24c156.667 0 235 -70.667 235 -212v-242c0 -24 -9.33301 -42.333 -28 -55c-56 -36 -127.667 -54 -215 -54c-72 0 -126.333 16.833 -163 50.5s-55 75.5 -55 125.5zM92.001 655.001c0 15.333 8 31 24 47
c34 32.667 65.333 49 94 49c20.667 0 45.334 -6.33301 74.001 -19s47.334 -19 56.001 -19c11.333 0 24.166 5.5 38.499 16.5s26.5 16.5 36.5 16.5c16 0 29.167 -6 39.5 -18s15.5 -25.667 15.5 -41s-8 -31 -24 -47c-32.667 -32.667 -63.667 -49 -93 -49
c-17.333 0 -40.833 6.33301 -70.5 19s-49.834 19 -60.501 19c-11.333 0 -24 -5.5 -38 -16.5s-26.333 -16.5 -37 -16.5c-15.333 0 -28.333 6 -39 18s-16 25.667 -16 41zM194.001 171.001c0 -18 6.50195 -31.501 19.502 -40.501s29.833 -13.5 50.5 -13.5
c30.667 0 57 7.33301 79 22v74c-24.667 8 -51.334 12 -80.001 12c-22.667 0 -39.834 -5.16699 -51.501 -15.5s-17.5 -23.166 -17.5 -38.499z" />
    <glyph glyph-name="adieresis" unicode="&#xe4;" horiz-adv-x="555" 
d="M39 166c0 46.667 16.501 85.501 49.501 116.501s83.5 46.5 151.5 46.5c40.667 0 75 -4.33301 103 -13v34c0 18.667 -5.83301 33 -17.5 43s-31.834 15 -60.501 15c-19.333 0 -47 -4.66699 -83 -14c-33.333 -8 -60.333 -5.83301 -81 6.5s-31 30.833 -31 55.5
c0 33.333 19.333 57.666 58 72.999c40 16 85.667 24 137 24c156.667 0 235 -70.667 235 -212v-242c0 -24 -9.33301 -42.333 -28 -55c-56 -36 -127.667 -54 -215 -54c-72 0 -126.333 16.833 -163 50.5s-55 75.5 -55 125.5zM112.001 669.001c0 21.333 7.33301 39.5 22 54.5
s32.667 22.5 54 22.5s39.333 -7.5 54 -22.5s22 -33.167 22 -54.5s-7.33301 -39.333 -22 -54s-32.667 -22 -54 -22s-39.333 7.33301 -54 22s-22 32.667 -22 54zM194.001 171.001c0 -18 6.50195 -31.501 19.502 -40.501s29.833 -13.5 50.5 -13.5c30.667 0 57 7.33301 79 22v74
c-24.667 8 -51.334 12 -80.001 12c-22.667 0 -39.834 -5.16699 -51.501 -15.5s-17.5 -23.166 -17.5 -38.499zM306.003 669c0 21.333 7.33301 39.5 22 54.5s32.667 22.5 54 22.5s39.333 -7.5 54 -22.5s22 -33.167 22 -54.5s-7.33301 -39.333 -22 -54s-32.667 -22 -54 -22
s-39.333 7.33301 -54 22s-22 32.667 -22 54z" />
    <glyph glyph-name="aring" unicode="&#xe5;" horiz-adv-x="555" 
d="M39 166c0 46.667 16.501 85.501 49.501 116.501s83.5 46.5 151.5 46.5c40.667 0 75 -4.33301 103 -13v34c0 18.667 -5.83301 33 -17.5 43s-31.834 15 -60.501 15c-19.333 0 -47 -4.66699 -83 -14c-33.333 -8 -60.333 -5.83301 -81 6.5s-31 30.833 -31 55.5
c0 33.333 19.333 57.666 58 72.999c40 16 85.667 24 137 24c156.667 0 235 -70.667 235 -212v-242c0 -24 -9.33301 -42.333 -28 -55c-56 -36 -127.667 -54 -215 -54c-72 0 -126.333 16.833 -163 50.5s-55 75.5 -55 125.5zM165.001 690.001
c0 33.333 11.833 61.666 35.5 84.999s51.5 35 83.5 35c33.333 0 62 -11.667 86 -35s36 -51.666 36 -84.999c0 -32.667 -12 -60.5 -36 -83.5s-52.667 -34.5 -86 -34.5c-32 0 -59.833 11.5 -83.5 34.5s-35.5 50.833 -35.5 83.5zM194.001 171.001
c0 -18 6.50195 -31.501 19.502 -40.501s29.833 -13.5 50.5 -13.5c30.667 0 57 7.33301 79 22v74c-24.667 8 -51.334 12 -80.001 12c-22.667 0 -39.834 -5.16699 -51.501 -15.5s-17.5 -23.166 -17.5 -38.499zM249.003 690c0 -10.667 3.33301 -19.5 10 -26.5
s15 -10.5 25 -10.5s18.5 3.5 25.5 10.5s10.5 15.833 10.5 26.5s-3.5 19.5 -10.5 26.5s-15.5 10.5 -25.5 10.5s-18.333 -3.5 -25 -10.5s-10 -15.833 -10 -26.5z" />
    <glyph glyph-name="ae" unicode="&#xe6;" horiz-adv-x="860" 
d="M39 174c0 45.333 17.002 83.667 51.002 115s86.667 47 158 47c20.667 0 52.334 -3.66699 95.001 -11v27c0 37.333 -26 56 -78 56c-18 0 -45.667 -4.66699 -83 -14c-34 -8 -61.167 -5.66699 -81.5 7s-30.5 32 -30.5 58c0 31.333 19.333 54.666 58 69.999
c40 16 85.667 24 137 24c70.667 0 126 -18 166 -54c41.333 36 91.666 54 150.999 54c70 0 127 -21 171 -63s66.333 -99.333 67 -172v-27c0 -49.333 -25 -74 -75 -74h-246v-8c0 -23.333 8.66699 -41.166 26 -53.499s40 -18.5 68 -18.5c23.333 0 55.666 7.66699 96.999 23
c30 11.333 55.333 9.5 76 -5.5s31 -34.5 31 -58.5c0 -32 -19.333 -57 -58 -75s-86.667 -27 -144 -27s-107.333 15.333 -150 46c-52.667 -30.667 -115.334 -46 -188.001 -46c-72 0 -126.333 17.5 -163 52.5s-55 77.5 -55 127.5zM198.002 178.001
c0 -16 6.66797 -28.668 20.001 -38.001s30.666 -14 51.999 -14c25.333 0 52.333 7.66699 81 23c-8 22 -12 45 -12 69c-26 7.33301 -50.667 11 -74 11c-22 0 -38.667 -4.66699 -50 -14s-17 -21.666 -17 -36.999zM498.003 324h155c4.66699 0 7.66699 3 9 9
c0.666992 24 -6 43.333 -20 58s-34 22 -60 22c-27.333 0 -48.333 -8.33301 -63 -25s-21.667 -38 -21 -64z" />
    <glyph glyph-name="ccedilla" unicode="&#xe7;" horiz-adv-x="561" 
d="M48 204c-4 41.333 -3.99512 89 0.00488281 143c4 60 29 109.333 75 148s102.333 58 169 58c70 0 126 -16 168 -48s63 -65.667 63 -101c0 -23.333 -7.33301 -43.166 -22 -59.499s-34 -24.5 -58 -24.5c-26.667 0 -47.334 10.667 -62.001 32c-19.333 29.333 -47 44 -83 44
c-51.333 0 -80.333 -25.667 -87 -77c-2.66699 -28.667 -2.66699 -57.334 0 -86.001c6.66699 -54.667 35.667 -82 87 -82c37.333 0 65 14.667 83 44c14.667 21.333 35.334 32 62.001 32c24 0 43.333 -8.16699 58 -24.5s22 -36.166 22 -59.499
c0 -31.333 -16.833 -62.333 -50.5 -93s-78.834 -49.334 -135.501 -56.001l-11 -26c35.333 -3.33301 62.166 -14.666 80.499 -33.999s27.833 -44.333 28.5 -75c0 -32 -11.5 -59.167 -34.5 -81.5s-56.833 -41.5 -101.5 -57.5
c-18.667 -6.66699 -36.834 -6.33398 -54.501 0.999023s-26.5 22.333 -26.5 45c0 23.333 12 39.666 36 48.999c41.333 16.667 64 26.667 68 30c3.33301 4 5 9.33301 5 16c0 5.33301 -2.33301 10.333 -7 15s-11.334 7 -20.001 7c-4.66699 0 -10.5 -0.666992 -17.5 -2
s-13.167 -2 -18.5 -2c-15.333 0 -27.5 6.66699 -36.5 20s-10.5 27.333 -4.5 42l20 54c-54 9.33301 -98.833 33.333 -134.5 72s-55.834 84.334 -60.501 137.001z" />
    <glyph glyph-name="egrave" unicode="&#xe8;" horiz-adv-x="569" 
d="M48 202c-4 50 -4 95 0 135c6 65.333 31.167 117.666 75.5 156.999s100.166 59 167.499 59c70.667 0 128 -21.667 172 -65s66 -101.666 66 -174.999v-23c0 -22.667 -6.16699 -41 -18.5 -55s-30.833 -21 -55.5 -21l-251 -1v-6c0 -23.333 9.33301 -41.333 28 -54
s42 -19 70 -19c28.667 0 61.667 8.33301 99 25c28.667 13.333 53.5 12.333 74.5 -3s31.5 -35.333 31.5 -60c0 -28 -16 -51.333 -48 -70c-39.333 -23.333 -93.666 -35 -162.999 -35c-68 0 -124.833 19.833 -170.5 59.5s-71.5 90.167 -77.5 151.5zM124 723
c0 17.333 6.16895 32.833 18.502 46.5s27.166 20.5 44.499 20.5c11.333 0 22.666 -3.33301 33.999 -10l134 -70c25.333 -13.333 38 -32 38 -56c0 -17.333 -6.16699 -32.5 -18.5 -45.5s-26.833 -19.5 -43.5 -19.5c-11.333 0 -22.333 3 -33 9l-136 69
c-25.333 14 -38 32.667 -38 56zM204.002 320h167c6.66699 0 10 4 10 12c0.666992 26 -6.83301 47.167 -22.5 63.5s-37.167 24.5 -64.5 24.5c-30 0 -52.5 -9 -67.5 -27s-22.5 -42.333 -22.5 -73z" />
    <glyph glyph-name="eacute" unicode="&#xe9;" horiz-adv-x="569" 
d="M48 202c-4 50 -4 95 0 135c6 65.333 31.167 117.666 75.5 156.999s100.166 59 167.499 59c70.667 0 128 -21.667 172 -65s66 -101.666 66 -174.999v-23c0 -22.667 -6.16699 -41 -18.5 -55s-30.833 -21 -55.5 -21l-251 -1v-6c0 -23.333 9.33301 -41.333 28 -54
s42 -19 70 -19c28.667 0 61.667 8.33301 99 25c28.667 13.333 53.5 12.333 74.5 -3s31.5 -35.333 31.5 -60c0 -28 -16 -51.333 -48 -70c-39.333 -23.333 -93.666 -35 -162.999 -35c-68 0 -124.833 19.833 -170.5 59.5s-71.5 90.167 -77.5 151.5zM192 654
c0 24 12.667 42.667 38 56l135 70c10.667 6.66699 22 10 34 10c16.667 0 31.167 -6.83301 43.5 -20.5s18.5 -29.167 18.5 -46.5c0 -23.333 -12.667 -42 -38 -56l-135 -69c-12 -6 -23.333 -9 -34 -9c-16.667 0 -31.167 6.5 -43.5 19.5s-18.5 28.167 -18.5 45.5zM204 320h167
c6.66699 0 10 4 10 12c0.666992 26 -6.83301 47.167 -22.5 63.5s-37.167 24.5 -64.5 24.5c-30 0 -52.5 -9 -67.5 -27s-22.5 -42.333 -22.5 -73z" />
    <glyph glyph-name="ecircumflex" unicode="&#xea;" horiz-adv-x="569" 
d="M48 202c-4 50 -4 95 0 135c6 65.333 31.167 117.666 75.5 156.999s100.166 59 167.499 59c70.667 0 128 -21.667 172 -65s66 -101.666 66 -174.999v-23c0 -22.667 -6.16699 -41 -18.5 -55s-30.833 -21 -55.5 -21l-251 -1v-6c0 -23.333 9.33301 -41.333 28 -54
s42 -19 70 -19c28.667 0 61.667 8.33301 99 25c28.667 13.333 53.5 12.333 74.5 -3s31.5 -35.333 31.5 -60c0 -28 -16 -51.333 -48 -70c-39.333 -23.333 -93.666 -35 -162.999 -35c-68 0 -124.833 19.833 -170.5 59.5s-71.5 90.167 -77.5 151.5zM106 655
c0 20.667 9.66797 38 29.001 52l115 90c16 11.333 30.333 17 43 17c13.333 0 27.333 -5.66699 42 -17l115 -90c20 -14.667 30 -32 30 -52c0 -16.667 -6.66699 -31.5 -20 -44.5s-28.333 -19.5 -45 -19.5c-12.667 0 -26.334 5.33301 -41.001 16l-81 62l-81 -62
c-14.667 -10.667 -28.667 -16 -42 -16c-16 0 -30.667 6.5 -44 19.5s-20 27.833 -20 44.5zM204.001 320h167c6.66699 0 10 4 10 12c0.666992 26 -6.83301 47.167 -22.5 63.5s-37.167 24.5 -64.5 24.5c-30 0 -52.5 -9 -67.5 -27s-22.5 -42.333 -22.5 -73z" />
    <glyph glyph-name="edieresis" unicode="&#xeb;" horiz-adv-x="569" 
d="M48 202c-4 50 -4 95 0 135c6 65.333 31.167 117.666 75.5 156.999s100.166 59 167.499 59c70.667 0 128 -21.667 172 -65s66 -101.666 66 -174.999v-23c0 -22.667 -6.16699 -41 -18.5 -55s-30.833 -21 -55.5 -21l-251 -1v-6c0 -23.333 9.33301 -41.333 28 -54
s42 -19 70 -19c28.667 0 61.667 8.33301 99 25c28.667 13.333 53.5 12.333 74.5 -3s31.5 -35.333 31.5 -60c0 -28 -16 -51.333 -48 -70c-39.333 -23.333 -93.666 -35 -162.999 -35c-68 0 -124.833 19.833 -170.5 59.5s-71.5 90.167 -77.5 151.5zM123 669
c0 21.333 7.33301 39.5 22 54.5s32.667 22.5 54 22.5s39.333 -7.5 54 -22.5s22 -33.167 22 -54.5s-7.33301 -39.333 -22 -54s-32.667 -22 -54 -22s-39.333 7.33301 -54 22s-22 32.667 -22 54zM204 320h167c6.66699 0 10 4 10 12c0.666992 26 -6.83301 47.167 -22.5 63.5
s-37.167 24.5 -64.5 24.5c-30 0 -52.5 -9 -67.5 -27s-22.5 -42.333 -22.5 -73zM317 669c0 21.333 7.33301 39.5 22 54.5s32.667 22.5 54 22.5s39.333 -7.5 54 -22.5s22 -33.167 22 -54.5s-7.33301 -39.333 -22 -54s-32.667 -22 -54 -22s-39.333 7.33301 -54 22
s-22 32.667 -22 54z" />
    <glyph glyph-name="igrave" unicode="&#xec;" horiz-adv-x="297" 
d="M-23 723c0 17.333 6.16895 32.833 18.502 46.5s27.166 20.5 44.499 20.5c11.333 0 22.666 -3.33301 33.999 -10l134 -70c25.333 -13.333 38 -32 38 -56c0 -17.333 -6.16699 -32.5 -18.5 -45.5s-26.833 -19.5 -43.5 -19.5c-10.667 0 -21.667 3 -33 9l-136 69
c-25.333 14 -38 32.667 -38 56zM66.002 79v383c0 24 7.83301 44.167 23.5 60.5s35.167 24.5 58.5 24.5s43 -8.16699 59 -24.5s24 -36.5 24 -60.5v-383c0 -23.333 -8 -43.333 -24 -60s-35.667 -25 -59 -25c-22 0 -41.167 8.5 -57.5 25.5s-24.5 36.833 -24.5 59.5z" />
    <glyph glyph-name="iacute" unicode="&#xed;" horiz-adv-x="297" 
d="M50 654c0 24 12.667 42.667 38 56l135 70c10.667 6.66699 22 10 34 10c16.667 0 31.167 -6.83301 43.5 -20.5s18.5 -29.167 18.5 -46.5c0 -23.333 -12.667 -42 -38 -56l-135 -69c-12 -6 -23.333 -9 -34 -9c-16.667 0 -31.167 6.5 -43.5 19.5s-18.5 28.167 -18.5 45.5z
M66 79v383c0 24 7.83301 44.167 23.5 60.5s35.167 24.5 58.5 24.5s43 -8.16699 59 -24.5s24 -36.5 24 -60.5v-383c0 -23.333 -8 -43.333 -24 -60s-35.667 -25 -59 -25c-22 0 -41.167 8.5 -57.5 25.5s-24.5 36.833 -24.5 59.5z" />
    <glyph glyph-name="icircumflex" unicode="&#xee;" horiz-adv-x="297" 
d="M-37 655c0 20.667 9.66797 38 29.001 52l115 90c16 11.333 30.333 17 43 17c13.333 0 27.333 -5.66699 42 -17l115 -90c20 -14.667 30 -32 30 -52c0 -16.667 -6.66699 -31.5 -20 -44.5s-28.333 -19.5 -45 -19.5c-12.667 0 -26.334 5.33301 -41.001 16l-81 62l-81 -62
c-14.667 -10.667 -28.667 -16 -42 -16c-16 0 -30.667 6.5 -44 19.5s-20 27.833 -20 44.5zM66.001 79v383c0 24 7.83301 44.167 23.5 60.5s35.167 24.5 58.5 24.5s43 -8.16699 59 -24.5s24 -36.5 24 -60.5v-383c0 -23.333 -8 -43.333 -24 -60s-35.667 -25 -59 -25
c-22 0 -41.167 8.5 -57.5 25.5s-24.5 36.833 -24.5 59.5z" />
    <glyph glyph-name="idieresis" unicode="&#xef;" horiz-adv-x="297" 
d="M-24 669c0 21.333 7.33301 39.5 22 54.5s32.667 22.5 54 22.5s39.333 -7.5 54 -22.5s22 -33.167 22 -54.5s-7.33301 -39.333 -22 -54s-32.667 -22 -54 -22s-39.333 7.33301 -54 22s-22 32.667 -22 54zM66 79v383c0 24 7.83301 44.167 23.5 60.5s35.167 24.5 58.5 24.5
s43 -8.16699 59 -24.5s24 -36.5 24 -60.5v-383c0 -23.333 -8 -43.333 -24 -60s-35.667 -25 -59 -25c-22 0 -41.167 8.5 -57.5 25.5s-24.5 36.833 -24.5 59.5zM170 669c0 21.333 7.33301 39.5 22 54.5s32.667 22.5 54 22.5s39.333 -7.5 54 -22.5s22 -33.167 22 -54.5
s-7.33301 -39.333 -22 -54s-32.667 -22 -54 -22s-39.333 7.33301 -54 22s-22 32.667 -22 54z" />
    <glyph glyph-name="eth" unicode="&#xf0;" horiz-adv-x="627" 
d="M48 205c-3.33301 43.333 -3.33398 80.998 -0.000976562 112.998c4.66699 61.333 29 110.833 73 148.5s101 56.5 171 56.5c38.667 0 75.667 -10.333 111 -31c-3.33301 30.667 -11.333 57.667 -24 81l-62 -26c-16.667 -7.33301 -33.167 -8.16602 -49.5 -2.49902
s-28.5 15.834 -36.5 30.501c-6.66699 16.667 -6.83398 33.167 -0.500977 49.5s17.833 28.166 34.5 35.499l19 8c-17.333 23.333 -19.666 47.666 -6.99902 72.999c7.33301 14.667 19.333 24.667 36 30s34.334 4 53.001 -4c22.667 -10 43.667 -23 63 -39l45 19
c15.333 7.33301 31.333 8.33301 48 3s28.667 -16 36 -32c6.66699 -16 6.83398 -32.167 0.500977 -48.5s-17.5 -27.833 -33.5 -34.5l-21 -9c27.333 -59.333 41 -125.666 41 -198.999v-205c0 -64.667 -23.333 -118.667 -70 -162s-106 -65 -178 -65
c-66.667 0 -123.334 19.833 -170.001 59.5s-73 89.834 -79 150.501zM213.999 224.998c2.66699 -21.333 11.334 -38.667 26.001 -52s33.667 -20 57 -20c22.667 0 41.5 6.66699 56.5 20s23.833 31 26.5 53c1.33301 14 1.33301 36 0 66c-2 21.333 -10.5 38.833 -25.5 52.5
s-34.167 20.5 -57.5 20.5s-42.333 -7 -57 -21s-23.334 -31.667 -26.001 -53c-2 -22.667 -2 -44.667 0 -66z" />
    <glyph glyph-name="ntilde" unicode="&#xf1;" horiz-adv-x="589" 
d="M56 80l0.000976562 362c0 24 9.33301 42.667 28 56c53.333 36.667 125.333 55 216 55c77.333 0 135.833 -19.5 175.5 -58.5s59.5 -95.167 59.5 -168.5v-246c0 -24 -7.83301 -44.167 -23.5 -60.5s-35.5 -24.5 -59.5 -24.5c-22 0 -41.167 8.33301 -57.5 25
s-24.5 36.667 -24.5 60v238c0 24 -7 42.167 -21 54.5s-31.667 18.5 -53 18.5c-30.667 0 -55.334 -6.33301 -74.001 -19v-292c0 -23.333 -8 -43.333 -24 -60s-35.667 -25 -59 -25c-22 0 -41.333 8.33301 -58 25s-25 36.667 -25 60zM94.001 655c0 15.333 8 31 24 47
c34 32.667 65.333 49 94 49c20.667 0 45.334 -6.33301 74.001 -19s47.334 -19 56.001 -19c11.333 0 24.166 5.5 38.499 16.5s26.5 16.5 36.5 16.5c16 0 29.167 -6 39.5 -18s15.5 -25.667 15.5 -41s-8 -31 -24 -47c-32.667 -32.667 -63.667 -49 -93 -49
c-17.333 0 -40.833 6.33301 -70.5 19s-49.834 19 -60.501 19c-11.333 0 -24 -5.5 -38 -16.5s-26.333 -16.5 -37 -16.5c-15.333 0 -28.333 6 -39 18s-16 25.667 -16 41z" />
    <glyph glyph-name="ograve" unicode="&#xf2;" horiz-adv-x="594" 
d="M48 201c-4.66699 48 -4.66699 96.667 0 146c5.33301 60.667 31.333 110.167 78 148.5s103.667 57.5 171 57.5c68 0 125.167 -19.167 171.5 -57.5s72.166 -87.833 77.499 -148.5c4.66699 -49.333 4.66699 -98 0 -146c-5.33301 -61.333 -31.166 -111.833 -77.499 -151.5
s-103.5 -59.5 -171.5 -59.5c-67.333 0 -124.333 20 -171 60s-72.667 90.333 -78 151zM127 723c0 17.333 6.16895 32.833 18.502 46.5s27.166 20.5 44.499 20.5c11.333 0 22.666 -3.33301 33.999 -10l134 -70c25.333 -13.333 38 -32 38 -56
c0 -17.333 -6.16699 -32.5 -18.5 -45.5s-26.833 -19.5 -43.5 -19.5c-10.667 0 -21.667 3 -33 9l-136 69c-25.333 14 -38 32.667 -38 56zM211.002 229c2.66699 -24.667 11.501 -44.167 26.501 -58.5s34.833 -21.5 59.5 -21.5c25.333 0 45.666 7.16699 60.999 21.5
s23.333 33.833 24 58.5c1.33301 29.333 1.33301 59.333 0 90c-1.33301 23.333 -9.5 42 -24.5 56s-35.167 21 -60.5 21c-24.667 0 -44.5 -7 -59.5 -21s-23.833 -32.667 -26.5 -56c-2.66699 -30.667 -2.66699 -60.667 0 -90z" />
    <glyph glyph-name="oacute" unicode="&#xf3;" horiz-adv-x="594" 
d="M48 201c-4.66699 48 -4.66699 96.667 0 146c5.33301 60.667 31.333 110.167 78 148.5s103.667 57.5 171 57.5c68 0 125.167 -19.167 171.5 -57.5s72.166 -87.833 77.499 -148.5c4.66699 -49.333 4.66699 -98 0 -146c-5.33301 -61.333 -31.166 -111.833 -77.499 -151.5
s-103.5 -59.5 -171.5 -59.5c-67.333 0 -124.333 20 -171 60s-72.667 90.333 -78 151zM188 654c0 24 12.667 42.667 38 56l135 70c10.667 6.66699 22 10 34 10c16.667 0 31.167 -6.83301 43.5 -20.5s18.5 -29.167 18.5 -46.5c0 -23.333 -12.667 -42 -38 -56l-135 -69
c-12 -6 -23.333 -9 -34 -9c-16.667 0 -31.167 6.5 -43.5 19.5s-18.5 28.167 -18.5 45.5zM211 229c2.66699 -24.667 11.501 -44.167 26.501 -58.5s34.833 -21.5 59.5 -21.5c25.333 0 45.666 7.16699 60.999 21.5s23.333 33.833 24 58.5c1.33301 29.333 1.33301 59.333 0 90
c-1.33301 23.333 -9.5 42 -24.5 56s-35.167 21 -60.5 21c-24.667 0 -44.5 -7 -59.5 -21s-23.833 -32.667 -26.5 -56c-2.66699 -30.667 -2.66699 -60.667 0 -90z" />
    <glyph glyph-name="ocircumflex" unicode="&#xf4;" horiz-adv-x="594" 
d="M48 201c-4.66699 48 -4.66699 96.667 0 146c5.33301 60.667 31.333 110.167 78 148.5s103.667 57.5 171 57.5c68 0 125.167 -19.167 171.5 -57.5s72.166 -87.833 77.499 -148.5c4.66699 -49.333 4.66699 -98 0 -146c-5.33301 -61.333 -31.166 -111.833 -77.499 -151.5
s-103.5 -59.5 -171.5 -59.5c-67.333 0 -124.333 20 -171 60s-72.667 90.333 -78 151zM113 654c0 20.667 9.66797 38 29.001 52l115 90c16 11.333 30.333 17 43 17c13.333 0 27.333 -5.66699 42 -17l115 -90c20 -14.667 30 -32 30 -52c0 -16.667 -6.66699 -31.5 -20 -44.5
s-28.333 -19.5 -45 -19.5c-12.667 0 -26.334 5.33301 -41.001 16l-81 62l-81 -62c-14.667 -10.667 -28.667 -16 -42 -16c-16 0 -30.667 6.5 -44 19.5s-20 27.833 -20 44.5zM211.001 229c2.66699 -24.667 11.501 -44.167 26.501 -58.5s34.833 -21.5 59.5 -21.5
c25.333 0 45.666 7.16699 60.999 21.5s23.333 33.833 24 58.5c1.33301 29.333 1.33301 59.333 0 90c-1.33301 23.333 -9.5 42 -24.5 56s-35.167 21 -60.5 21c-24.667 0 -44.5 -7 -59.5 -21s-23.833 -32.667 -26.5 -56c-2.66699 -30.667 -2.66699 -60.667 0 -90z" />
    <glyph glyph-name="otilde" unicode="&#xf5;" horiz-adv-x="594" 
d="M48 201c-4.66699 48 -4.66699 96.667 0 146c5.33301 60.667 31.333 110.167 78 148.5s103.667 57.5 171 57.5c68 0 125.167 -19.167 171.5 -57.5s72.166 -87.833 77.499 -148.5c4.66699 -49.333 4.66699 -98 0 -146c-5.33301 -61.333 -31.166 -111.833 -77.499 -151.5
s-103.5 -59.5 -171.5 -59.5c-67.333 0 -124.333 20 -171 60s-72.667 90.333 -78 151zM104 655c0 15.333 8 31 24 47c34 32.667 65.333 49 94 49c20.667 0 45.334 -6.33301 74.001 -19s47.334 -19 56.001 -19c11.333 0 24.166 5.5 38.499 16.5s26.5 16.5 36.5 16.5
c16 0 29.167 -6 39.5 -18s15.5 -25.667 15.5 -41s-8 -31 -24 -47c-32.667 -32.667 -63.667 -49 -93 -49c-17.333 0 -40.833 6.33301 -70.5 19s-49.834 19 -60.501 19c-11.333 0 -24 -5.5 -38 -16.5s-26.333 -16.5 -37 -16.5c-15.333 0 -28.333 6 -39 18s-16 25.667 -16 41z
M211 229c2.66699 -24.667 11.501 -44.167 26.501 -58.5s34.833 -21.5 59.5 -21.5c25.333 0 45.666 7.16699 60.999 21.5s23.333 33.833 24 58.5c1.33301 29.333 1.33301 59.333 0 90c-1.33301 23.333 -9.5 42 -24.5 56s-35.167 21 -60.5 21c-24.667 0 -44.5 -7 -59.5 -21
s-23.833 -32.667 -26.5 -56c-2.66699 -30.667 -2.66699 -60.667 0 -90z" />
    <glyph glyph-name="odieresis" unicode="&#xf6;" horiz-adv-x="594" 
d="M48 201c-4.66699 48 -4.66699 96.667 0 146c5.33301 60.667 31.333 110.167 78 148.5s103.667 57.5 171 57.5c68 0 125.167 -19.167 171.5 -57.5s72.166 -87.833 77.499 -148.5c4.66699 -49.333 4.66699 -98 0 -146c-5.33301 -61.333 -31.166 -111.833 -77.499 -151.5
s-103.5 -59.5 -171.5 -59.5c-67.333 0 -124.333 20 -171 60s-72.667 90.333 -78 151zM124 669c0 21.333 7.33301 39.5 22 54.5s32.667 22.5 54 22.5s39.333 -7.5 54 -22.5s22 -33.167 22 -54.5s-7.33301 -39.333 -22 -54s-32.667 -22 -54 -22s-39.333 7.33301 -54 22
s-22 32.667 -22 54zM211 229c2.66699 -24.667 11.501 -44.167 26.501 -58.5s34.833 -21.5 59.5 -21.5c25.333 0 45.666 7.16699 60.999 21.5s23.333 33.833 24 58.5c1.33301 29.333 1.33301 59.333 0 90c-1.33301 23.333 -9.5 42 -24.5 56s-35.167 21 -60.5 21
c-24.667 0 -44.5 -7 -59.5 -21s-23.833 -32.667 -26.5 -56c-2.66699 -30.667 -2.66699 -60.667 0 -90zM318.001 669c0 21.333 7.33301 39.5 22 54.5s32.667 22.5 54 22.5s39.333 -7.5 54 -22.5s22 -33.167 22 -54.5s-7.33301 -39.333 -22 -54s-32.667 -22 -54 -22
s-39.333 7.33301 -54 22s-22 32.667 -22 54z" />
    <glyph glyph-name="divide" unicode="&#xf7;" horiz-adv-x="628" 
d="M59 349c0 22 7.66699 40.5 23 55.5s34 22.5 56 22.5h351c22 0 40.667 -7.5 56 -22.5s23 -33.5 23 -55.5c0 -21.333 -7.83301 -39.666 -23.5 -54.999s-34.167 -23 -55.5 -23h-351c-22 0 -40.667 7.66699 -56 23s-23 33.666 -23 54.999zM225 129
c0 24 8.83301 44.667 26.5 62s38.167 26 61.5 26c24 0 44.833 -8.66699 62.5 -26s26.5 -38 26.5 -62c0 -24.667 -8.83301 -45.667 -26.5 -63s-38.5 -26 -62.5 -26c-23.333 0 -43.833 8.66699 -61.5 26s-26.5 38.333 -26.5 63zM225 572c0 24.667 8.83301 45.834 26.5 63.501
s38.167 26.5 61.5 26.5c24 0 44.833 -8.83301 62.5 -26.5s26.5 -38.834 26.5 -63.501c0 -23.333 -8.83301 -43.833 -26.5 -61.5s-38.5 -26.5 -62.5 -26.5c-23.333 0 -43.833 8.83301 -61.5 26.5s-26.5 38.167 -26.5 61.5z" />
    <glyph glyph-name="oslash" unicode="&#xf8;" horiz-adv-x="602" 
d="M51.5 51c-0.333008 17.333 5.8291 33.334 18.4961 48.001l10 11c-15.333 26 -24.666 56.333 -27.999 91c-4.66699 48 -4.66699 96.667 0 146c5.33301 60.667 31.333 110.167 78 148.5s103.667 57.5 171 57.5c48 0 91.333 -10 130 -30l7 8
c12 13.333 26.833 20.333 44.5 21s33.167 -4.66602 46.5 -15.999c12.667 -11.333 19.334 -26 20.001 -44s-4.66602 -33.667 -15.999 -47l-10 -11c15.333 -26 24.333 -55 27 -87c4.66699 -49.333 4.66699 -98 0 -146c-5.33301 -61.333 -31.166 -111.833 -77.499 -151.5
s-103.5 -59.5 -171.5 -59.5c-48 0 -91.667 10.667 -131 32l-7 -8c-12.667 -14.667 -28 -22.334 -46 -23.001s-32.667 4.66602 -44 15.999c-14 12 -21.167 26.667 -21.5 44zM212.995 253.001l118 139c-8 2.66699 -18 4 -30 4c-24.667 0 -44.5 -7 -59.5 -21
s-23.833 -32.667 -26.5 -56c-1.33301 -11.333 -2 -33.333 -2 -66zM273.995 152.001c8 -2 17.001 -3 27.001 -3c25.333 0 45.666 7.16699 60.999 21.5s23.333 33.833 24 58.5c0 3.33301 0.166992 11.333 0.5 24s0.5 23 0.5 31z" />
    <glyph glyph-name="ugrave" unicode="&#xf9;" horiz-adv-x="589" 
d="M56 221l0.000976562 238c0 26 7 47.167 21 63.5s33.667 24.5 59 24.5c24 0 44.167 -8.5 60.5 -25.5s24.5 -37.833 24.5 -62.5v-231c0 -23.333 6.83301 -41.166 20.5 -53.499s31.5 -18.5 53.5 -18.5c29.333 0 54 6.33301 74 19v286c0 24 7.83301 44.333 23.5 61
s35.167 25 58.5 25s43 -8.33301 59 -25s24 -37 24 -61v-356c0 -24.667 -9.33301 -43.334 -28 -56.001c-19.333 -14 -47.833 -26.667 -85.5 -38s-80.834 -17 -129.501 -17c-76.667 0 -135 19.5 -175 58.5s-60 95.167 -60 168.5zM128.001 723
c0 17.333 6.16895 32.833 18.502 46.5s27.166 20.5 44.499 20.5c11.333 0 22.666 -3.33301 33.999 -10l134 -70c25.333 -13.333 38 -32 38 -56c0 -17.333 -6.16699 -32.5 -18.5 -45.5s-26.833 -19.5 -43.5 -19.5c-11.333 0 -22.333 3 -33 9l-136 69
c-25.333 14 -38 32.667 -38 56z" />
    <glyph glyph-name="uacute" unicode="&#xfa;" horiz-adv-x="589" 
d="M56 221l0.000976562 238c0 26 7 47.167 21 63.5s33.667 24.5 59 24.5c24 0 44.167 -8.5 60.5 -25.5s24.5 -37.833 24.5 -62.5v-231c0 -23.333 6.83301 -41.166 20.5 -53.499s31.5 -18.5 53.5 -18.5c29.333 0 54 6.33301 74 19v286c0 24 7.83301 44.333 23.5 61
s35.167 25 58.5 25s43 -8.33301 59 -25s24 -37 24 -61v-356c0 -24.667 -9.33301 -43.334 -28 -56.001c-19.333 -14 -47.833 -26.667 -85.5 -38s-80.834 -17 -129.501 -17c-76.667 0 -135 19.5 -175 58.5s-60 95.167 -60 168.5zM205.001 654c0 24 12.667 42.667 38 56l135 70
c10.667 6.66699 22 10 34 10c16.667 0 31.167 -6.83301 43.5 -20.5s18.5 -29.167 18.5 -46.5c0 -23.333 -12.667 -42 -38 -56l-135 -69c-12 -6 -23.333 -9 -34 -9c-16.667 0 -31.167 6.5 -43.5 19.5s-18.5 28.167 -18.5 45.5z" />
    <glyph glyph-name="ucircumflex" unicode="&#xfb;" horiz-adv-x="589" 
d="M56 221l0.000976562 238c0 26 7 47.167 21 63.5s33.667 24.5 59 24.5c24 0 44.167 -8.5 60.5 -25.5s24.5 -37.833 24.5 -62.5v-231c0 -23.333 6.83301 -41.166 20.5 -53.499s31.5 -18.5 53.5 -18.5c29.333 0 54 6.33301 74 19v286c0 24 7.83301 44.333 23.5 61
s35.167 25 58.5 25s43 -8.33301 59 -25s24 -37 24 -61v-356c0 -24.667 -9.33301 -43.334 -28 -56.001c-19.333 -14 -47.833 -26.667 -85.5 -38s-80.834 -17 -129.501 -17c-76.667 0 -135 19.5 -175 58.5s-60 95.167 -60 168.5zM106.001 655c0 20.667 9.66797 38 29.001 52
l115 90c16 11.333 30.333 17 43 17c13.333 0 27.333 -5.66699 42 -17l115 -90c20 -14.667 30 -32 30 -52c0 -16.667 -6.66699 -31.5 -20 -44.5s-28.333 -19.5 -45 -19.5c-12.667 0 -26.334 5.33301 -41.001 16l-81 62l-81 -62c-14.667 -10.667 -28.667 -16 -42 -16
c-16 0 -30.667 6.5 -44 19.5s-20 27.833 -20 44.5z" />
    <glyph glyph-name="udieresis" unicode="&#xfc;" horiz-adv-x="589" 
d="M56 221l0.000976562 238c0 26 7 47.167 21 63.5s33.667 24.5 59 24.5c24 0 44.167 -8.5 60.5 -25.5s24.5 -37.833 24.5 -62.5v-231c0 -23.333 6.83301 -41.166 20.5 -53.499s31.5 -18.5 53.5 -18.5c29.333 0 54 6.33301 74 19v286c0 24 7.83301 44.333 23.5 61
s35.167 25 58.5 25s43 -8.33301 59 -25s24 -37 24 -61v-356c0 -24.667 -9.33301 -43.334 -28 -56.001c-19.333 -14 -47.833 -26.667 -85.5 -38s-80.834 -17 -129.501 -17c-76.667 0 -135 19.5 -175 58.5s-60 95.167 -60 168.5zM125.001 669c0 21.333 7.33301 39.5 22 54.5
s32.667 22.5 54 22.5s39.333 -7.5 54 -22.5s22 -33.167 22 -54.5s-7.33301 -39.333 -22 -54s-32.667 -22 -54 -22s-39.333 7.33301 -54 22s-22 32.667 -22 54zM319.001 669c0 21.333 7.33301 39.5 22 54.5s32.667 22.5 54 22.5s39.333 -7.5 54 -22.5s22 -33.167 22 -54.5
s-7.33301 -39.333 -22 -54s-32.667 -22 -54 -22s-39.333 7.33301 -54 22s-22 32.667 -22 54z" />
    <glyph glyph-name="yacute" unicode="&#xfd;" horiz-adv-x="553" 
d="M20 425c-12.667 31.333 -10.167 59.833 7.5 85.5s42.5 38.5 74.5 38.5c18.667 0 35.834 -6 51.501 -18s26.834 -28 33.501 -48c42.667 -122.667 70.667 -214.667 84 -276c1.33301 -4 3.66602 -6 6.99902 -6s5.66602 2 6.99902 6c15.333 69.333 42.333 161 81 275
c6.66699 20 17.834 36.167 33.501 48.5s32.5 18.5 50.5 18.5c32 0 57.167 -13.167 75.5 -39.5s20.5 -54.833 6.5 -85.5l-185 -422c-40 -90 -83.667 -151.333 -131 -184c-20.667 -15.333 -42.334 -23 -65.001 -23c-23.333 0 -42.333 7.16699 -57 21.5s-22 32.833 -22 55.5
c0 26.667 10.667 48.667 32 66c28.667 24 54.667 59 78 105zM207 655c0 24 12.667 42.667 38 56l135 70c10.667 6.66699 22 10 34 10c16.667 0 31.167 -6.83301 43.5 -20.5s18.5 -29.167 18.5 -46.5c0 -23.333 -12.667 -42 -38 -56l-135 -69c-12 -6 -23.333 -9 -34 -9
c-16.667 0 -31.167 6.5 -43.5 19.5s-18.5 28.167 -18.5 45.5z" />
    <glyph glyph-name="thorn" unicode="&#xfe;" horiz-adv-x="599" 
d="M61 -121l0.000976562 755.999c0 23.333 7.83301 43.5 23.5 60.5s35.167 25.5 58.5 25.5c22.667 0 42.167 -8.5 58.5 -25.5s24.5 -37.167 24.5 -60.5v-91c27.333 6 54.333 9 81 9c69.333 0 126 -19.5 170 -58.5s69 -89.5 75 -151.5c4 -46.667 4 -94 0 -142
c-6.66699 -63.333 -29.334 -113.666 -68.001 -150.999s-91 -56 -157 -56c-37.333 0 -71 6.66699 -101 20v-135c0 -24 -7.83301 -44.167 -23.5 -60.5s-35.5 -24.5 -59.5 -24.5c-22.667 0 -42 8.16699 -58 24.5s-24 36.5 -24 60.5zM226.001 171.999
c22 -14 49.333 -21.001 82 -21.001c50 0 76.667 26 80 78c1.33301 26.667 1.33301 54.334 0 83.001c-3.33301 54.667 -31.666 82 -84.999 82c-30.667 0 -56.334 -8 -77.001 -24v-198z" />
    <glyph glyph-name="ydieresis" unicode="&#xff;" horiz-adv-x="553" 
d="M20 425c-12.667 31.333 -10.167 59.833 7.5 85.5s42.5 38.5 74.5 38.5c18.667 0 35.834 -6 51.501 -18s26.834 -28 33.501 -48c42.667 -122.667 70.667 -214.667 84 -276c1.33301 -4 3.66602 -6 6.99902 -6s5.66602 2 6.99902 6c15.333 69.333 42.333 161 81 275
c6.66699 20 17.834 36.167 33.501 48.5s32.5 18.5 50.5 18.5c32 0 57.167 -13.167 75.5 -39.5s20.5 -54.833 6.5 -85.5l-185 -422c-40 -90 -83.667 -151.333 -131 -184c-20.667 -15.333 -42.334 -23 -65.001 -23c-23.333 0 -42.333 7.16699 -57 21.5s-22 32.833 -22 55.5
c0 26.667 10.667 48.667 32 66c28.667 24 54.667 59 78 105zM104 669c0 21.333 7.33301 39.5 22 54.5s32.667 22.5 54 22.5s39.333 -7.5 54 -22.5s22 -33.167 22 -54.5s-7.33301 -39.333 -22 -54s-32.667 -22 -54 -22s-39.333 7.33301 -54 22s-22 32.667 -22 54zM298 669
c0 21.333 7.33301 39.5 22 54.5s32.667 22.5 54 22.5s39.333 -7.5 54 -22.5s22 -33.167 22 -54.5s-7.33301 -39.333 -22 -54s-32.667 -22 -54 -22s-39.333 7.33301 -54 22s-22 32.667 -22 54z" />
    <glyph glyph-name="Amacron" unicode="&#x100;" horiz-adv-x="700" 
d="M22 112l179 497.002c27.333 73.333 77.333 110 150 110c73.333 0 123.666 -36.667 150.999 -110l176 -497c8 -20.667 7.5 -42 -1.5 -64s-24.167 -37 -45.5 -45c-22 -8.66699 -44 -8.33398 -66 0.999023s-36.333 24.666 -43 45.999l-43 128h-258l-43 -128
c-8.66699 -21.333 -23.667 -36.833 -45 -46.5s-42.666 -10.167 -63.999 -1.5c-21.333 8 -36.5 23 -45.5 45s-9.5 43.667 -1.5 65zM208 826.002c0 19.333 6.33496 35.333 19.002 48s28.334 19 47.001 19h154c19.333 0 35.166 -6.33301 47.499 -19s18.5 -28.667 18.5 -48
c0 -18.667 -6.33301 -34.334 -19 -47.001s-28.334 -19 -47.001 -19h-154c-18.667 0 -34.334 6.33301 -47.001 19s-19 28.334 -19 47.001zM270.002 322.002h161l-70 213c-2 5.33301 -5.33301 8 -10 8s-7.66699 -2.66699 -9 -8z" />
    <glyph glyph-name="amacron" unicode="&#x101;" horiz-adv-x="555" 
d="M39 166c0 46.667 16.501 85.501 49.501 116.501s83.5 46.5 151.5 46.5c40.667 0 75 -4.33301 103 -13v34c0 18.667 -5.83301 33 -17.5 43s-31.834 15 -60.501 15c-19.333 0 -47 -4.66699 -83 -14c-33.333 -8 -60.333 -5.83301 -81 6.5s-31 30.833 -31 55.5
c0 33.333 19.333 57.666 58 72.999c40 16 85.667 24 137 24c156.667 0 235 -70.667 235 -212v-242c0 -24 -9.33301 -42.333 -28 -55c-56 -36 -127.667 -54 -215 -54c-72 0 -126.333 16.833 -163 50.5s-55 75.5 -55 125.5zM142.001 663.001
c0 19.333 6.33496 35.333 19.002 48s28.334 19 47.001 19h154c19.333 0 35.166 -6.33301 47.499 -19s18.5 -28.667 18.5 -48c0 -18.667 -6.33301 -34.334 -19 -47.001s-28.334 -19 -47.001 -19h-154c-18.667 0 -34.334 6.33301 -47.001 19s-19 28.334 -19 47.001z
M194.003 171.001c0 -18 6.50195 -31.501 19.502 -40.501s29.833 -13.5 50.5 -13.5c30.667 0 57 7.33301 79 22v74c-24.667 8 -51.334 12 -80.001 12c-22.667 0 -39.834 -5.16699 -51.501 -15.5s-17.5 -23.166 -17.5 -38.499z" />
    <glyph glyph-name="Abreve" unicode="&#x102;" horiz-adv-x="700" 
d="M22 112l179 497.002c27.333 73.333 77.333 110 150 110c73.333 0 123.666 -36.667 150.999 -110l176 -497c8 -20.667 7.5 -42 -1.5 -64s-24.167 -37 -45.5 -45c-22 -8.66699 -44 -8.33398 -66 0.999023s-36.333 24.666 -43 45.999l-43 128h-258l-43 -128
c-8.66699 -21.333 -23.667 -36.833 -45 -46.5s-42.666 -10.167 -63.999 -1.5c-21.333 8 -36.5 23 -45.5 45s-9.5 43.667 -1.5 65zM186 885.002c0 16.667 5.66699 30.667 17 42s25.333 17 42 17c28 0 47 -14 57 -42c8.66699 -27.333 25 -41 49 -41s40.333 13.667 49 41
c10 28 29 42 57 42c16.667 0 30.667 -5.66699 42 -17s17 -25.333 17 -42c0 -7.33301 -1.33301 -14 -4 -20c-12 -33.333 -32 -61 -60 -83s-61.667 -33 -101 -33s-73 11 -101 33s-48 49.667 -60 83c-2.66699 6 -4 12.667 -4 20zM270 322.002h161l-70 213
c-2 5.33301 -5.33301 8 -10 8s-7.66699 -2.66699 -9 -8z" />
    <glyph glyph-name="abreve" unicode="&#x103;" horiz-adv-x="555" 
d="M39 166c0 46.667 16.501 85.501 49.501 116.501s83.5 46.5 151.5 46.5c40.667 0 75 -4.33301 103 -13v34c0 18.667 -5.83301 33 -17.5 43s-31.834 15 -60.501 15c-19.333 0 -47 -4.66699 -83 -14c-33.333 -8 -60.333 -5.83301 -81 6.5s-31 30.833 -31 55.5
c0 33.333 19.333 57.666 58 72.999c40 16 85.667 24 137 24c156.667 0 235 -70.667 235 -212v-242c0 -24 -9.33301 -42.333 -28 -55c-56 -36 -127.667 -54 -215 -54c-72 0 -126.333 16.833 -163 50.5s-55 75.5 -55 125.5zM114.001 721.001c0 16.667 5.66699 30.667 17 42
s25.333 17 42 17c28 0 47 -14 57 -42c8.66699 -27.333 25 -41 49 -41s40.333 13.667 49 41c10 28 29 42 57 42c16.667 0 30.667 -5.66699 42 -17s17 -25.333 17 -42c0 -7.33301 -1.33301 -14 -4 -20c-12 -33.333 -32 -61 -60 -83s-61.667 -33 -101 -33s-73 11 -101 33
s-48 49.667 -60 83c-2.66699 6 -4 12.667 -4 20zM194.001 171.001c0 -18 6.50195 -31.501 19.502 -40.501s29.833 -13.5 50.5 -13.5c30.667 0 57 7.33301 79 22v74c-24.667 8 -51.334 12 -80.001 12c-22.667 0 -39.834 -5.16699 -51.501 -15.5s-17.5 -23.166 -17.5 -38.499z
" />
    <glyph glyph-name="Aogonek" unicode="&#x104;" horiz-adv-x="704" 
d="M22 112l178.999 496.998c27.333 73.333 77.333 110 150 110c73.333 0 123.666 -36.667 150.999 -110l176 -497c6.66699 -17.333 7.33398 -35.5 2.00098 -54.5s-15.666 -33.5 -30.999 -43.5c-44.667 -30.667 -72.334 -52.667 -83.001 -66c-8 -10.667 -12 -21 -12 -31
c0 -12 3.83301 -21.833 11.5 -29.5s16.834 -11.5 27.501 -11.5c8 0 15.333 2.33301 22 7c25.333 14 46.333 10.667 63 -10c8 -12 10.833 -24.5 8.5 -37.5s-9.16602 -24.5 -20.499 -34.5c-28 -20.667 -59.333 -31 -94 -31c-38 0 -69.333 12.833 -94 38.5s-37 57.5 -37 95.5
c0 56 28 102.333 84 139l-47 140h-256l-44 -133c-6.66699 -21.333 -21 -36.666 -43 -45.999s-44 -10 -66 -2c-21.333 8.66699 -36.333 23.834 -45 45.501s-9.33398 43.167 -2.00098 64.5zM271.999 330.998h155.999l-67 204c-1.33301 5.33301 -4.66602 8 -9.99902 8
c-4.66699 0 -7.66699 -2.66699 -9 -8z" />
    <glyph glyph-name="aogonek" unicode="&#x105;" horiz-adv-x="555" 
d="M39 171c0 46.667 17.001 85.834 51.001 117.501s86.667 47.5 158 47.5c20.667 0 52.334 -3.66699 95.001 -11v25c0 18.667 -5.83301 33 -17.5 43s-31.834 15 -60.501 15c-19.333 0 -47 -4.66699 -83 -14c-33.333 -8 -60.333 -5.83301 -81 6.5s-31 30.833 -31 55.5
c0 33.333 19.333 57.666 58 72.999c40 16 85.667 24 137 24c156.667 0 235 -70.667 235 -212v-252c0 -10.667 -3.5 -20.5 -10.5 -29.5s-13.833 -15.5 -20.5 -19.5s-16 -8.66699 -28 -14c-47.333 -22 -71 -55.333 -71 -100c0 -33.333 13 -50 39 -50
c7.33301 0 14.666 2.33301 21.999 7c25.333 14 46 10.667 62 -10c8.66699 -11.333 11.667 -23.833 9 -37.5s-9.66699 -25.167 -21 -34.5c-26.667 -20.667 -58 -31 -94 -31c-38 0 -69.167 12.833 -93.5 38.5s-36.5 57.5 -36.5 95.5c0 33.333 8.66699 62.333 26 87
c-6 -0.666992 -14.667 -1 -26 -1c-72 0 -126.333 17.667 -163 53s-55 78 -55 128zM198.001 181c0 -16 6.5 -29 19.5 -39s29.167 -15 48.5 -15c27.333 0 53 6 77 18v72c-27.333 8 -53.333 12 -78 12c-22 0 -38.667 -4.5 -50 -13.5s-17 -20.5 -17 -34.5z" />
    <glyph glyph-name="Cacute" unicode="&#x106;" horiz-adv-x="670" 
d="M48 273c-5.33301 54.667 -5.33496 107.33 -0.00195312 157.997c7.33301 82.667 39 151.334 95 206.001s127 82 213 82c58.667 0 112.334 -13.167 161.001 -39.5s84 -64.166 106 -113.499c6 -16 9 -31.667 9 -47c0 -22 -8.66699 -40.667 -26 -56s-36.333 -23 -57 -23
c-18 0 -32.333 4.16699 -43 12.5s-21 20.166 -31 35.499c-28 46.667 -67.667 70 -119 70c-41.333 0 -74 -14 -98 -42s-37.667 -64.667 -41 -110c-2 -37.333 -2 -74.666 0 -111.999c3.33301 -45.333 17 -81 41 -107s56.667 -39 98 -39c51.333 0 91 23.333 119 70
c10 16 20.167 28 30.5 36s24.833 12 43.5 12c20.667 0 39.667 -7.66699 57 -23s26 -34 26 -56c0 -15.333 -3 -31 -9 -47c-21.333 -49.333 -56.5 -87.166 -105.5 -113.499s-102.5 -39.5 -160.5 -39.5c-86 0 -157.167 27.167 -213.5 81.5s-88.166 122.5 -95.499 204.5z
M263.998 817.996c0 24 12.667 42.667 38 56l135 70c10.667 6.66699 22 10 34 10c16.667 0 31.167 -6.83301 43.5 -20.5s18.5 -29.167 18.5 -46.5c0 -23.333 -12.667 -42 -38 -56l-135 -69c-12 -6 -23.333 -9 -34 -9c-16.667 0 -31.167 6.5 -43.5 19.5
s-18.5 28.167 -18.5 45.5z" />
    <glyph glyph-name="cacute" unicode="&#x107;" horiz-adv-x="561" 
d="M48 204c-4 41.333 -4.00098 88.999 -0.000976562 142.999c4 60 29 109.333 75 148s102.333 58 169 58c70 0 126 -16 168 -48s63 -65.667 63 -101c0 -23.333 -7.33301 -43.166 -22 -59.499s-34 -24.5 -58 -24.5c-27.333 0 -48 10.667 -62 32c-20 29.333 -47.667 44 -83 44
c-51.333 0 -80.333 -25.667 -87 -77c-2.66699 -28.667 -2.66699 -57.334 0 -86.001c6.66699 -54.667 35.667 -82 87 -82c35.333 0 63 14.667 83 44c14 21.333 34.667 32 62 32c24 0 43.333 -8.16699 58 -24.5s22 -36.166 22 -59.499c0 -36 -21.167 -70.5 -63.5 -103.5
s-98.166 -49.5 -167.499 -49.5c-65.333 0 -121 20.5 -167 61.5s-71.667 91.833 -77 152.5zM196.999 653.999c0 24 12.667 42.667 38 56l135 70c10.667 6.66699 22 10 34 10c16.667 0 31.167 -6.83301 43.5 -20.5s18.5 -29.167 18.5 -46.5c0 -23.333 -12.667 -42 -38 -56
l-135 -69c-12 -6 -23.333 -9 -34 -9c-16.667 0 -31.167 6.5 -43.5 19.5s-18.5 28.167 -18.5 45.5z" />
    <glyph glyph-name="Cdotaccent" unicode="&#x10a;" horiz-adv-x="670" 
d="M48 273c-5.33301 54.667 -5.33496 107.33 -0.00195312 157.997c7.33301 82.667 39 151.334 95 206.001s127 82 213 82c58.667 0 112.334 -13.167 161.001 -39.5s84 -64.166 106 -113.499c6 -16 9 -31.667 9 -47c0 -22 -8.66699 -40.667 -26 -56s-36.333 -23 -57 -23
c-18 0 -32.333 4.16699 -43 12.5s-21 20.166 -31 35.499c-28 46.667 -67.667 70 -119 70c-41.333 0 -74 -14 -98 -42s-37.667 -64.667 -41 -110c-2 -37.333 -2 -74.666 0 -111.999c3.33301 -45.333 17 -81 41 -107s56.667 -39 98 -39c51.333 0 91 23.333 119 70
c10 16 20.167 28 30.5 36s24.833 12 43.5 12c20.667 0 39.667 -7.66699 57 -23s26 -34 26 -56c0 -15.333 -3 -31 -9 -47c-21.333 -49.333 -56.5 -87.166 -105.5 -113.499s-102.5 -39.5 -160.5 -39.5c-86 0 -157.167 27.167 -213.5 81.5s-88.166 122.5 -95.499 204.5z
M273.998 830.996c0 21.333 7.33301 39.5 22 54.5s32.667 22.5 54 22.5s39.333 -7.5 54 -22.5s22 -33.167 22 -54.5s-7.33301 -39.333 -22 -54s-32.667 -22 -54 -22s-39.333 7.33301 -54 22s-22 32.667 -22 54z" />
    <glyph glyph-name="cdotaccent" unicode="&#x10b;" horiz-adv-x="561" 
d="M48 204c-4 41.333 -4.00098 88.999 -0.000976562 142.999c4 60 29 109.333 75 148s102.333 58 169 58c70 0 126 -16 168 -48s63 -65.667 63 -101c0 -23.333 -7.33301 -43.166 -22 -59.499s-34 -24.5 -58 -24.5c-27.333 0 -48 10.667 -62 32c-20 29.333 -47.667 44 -83 44
c-51.333 0 -80.333 -25.667 -87 -77c-2.66699 -28.667 -2.66699 -57.334 0 -86.001c6.66699 -54.667 35.667 -82 87 -82c35.333 0 63 14.667 83 44c14 21.333 34.667 32 62 32c24 0 43.333 -8.16699 58 -24.5s22 -36.166 22 -59.499c0 -36 -21.167 -70.5 -63.5 -103.5
s-98.166 -49.5 -167.499 -49.5c-65.333 0 -121 20.5 -167 61.5s-71.667 91.833 -77 152.5zM214.999 668.999c0 21.333 7.33301 39.5 22 54.5s32.667 22.5 54 22.5s39.333 -7.5 54 -22.5s22 -33.167 22 -54.5s-7.33301 -39.333 -22 -54s-32.667 -22 -54 -22
s-39.333 7.33301 -54 22s-22 32.667 -22 54z" />
    <glyph glyph-name="Ccaron" unicode="&#x10c;" horiz-adv-x="670" 
d="M48 273c-5.33301 54.667 -5.33496 107.33 -0.00195312 157.997c7.33301 82.667 39 151.334 95 206.001s127 82 213 82c58.667 0 112.334 -13.167 161.001 -39.5s84 -64.166 106 -113.499c6 -16 9 -31.667 9 -47c0 -22 -8.66699 -40.667 -26 -56s-36.333 -23 -57 -23
c-18 0 -32.333 4.16699 -43 12.5s-21 20.166 -31 35.499c-28 46.667 -67.667 70 -119 70c-41.333 0 -74 -14 -98 -42s-37.667 -64.667 -41 -110c-2 -37.333 -2 -74.666 0 -111.999c3.33301 -45.333 17 -81 41 -107s56.667 -39 98 -39c51.333 0 91 23.333 119 70
c10 16 20.167 28 30.5 36s24.833 12 43.5 12c20.667 0 39.667 -7.66699 57 -23s26 -34 26 -56c0 -15.333 -3 -31 -9 -47c-21.333 -49.333 -56.5 -87.166 -105.5 -113.499s-102.5 -39.5 -160.5 -39.5c-86 0 -157.167 27.167 -213.5 81.5s-88.166 122.5 -95.499 204.5z
M163.998 913.996c0 16.667 6.66602 31.5 19.999 44.5s28 19.5 44 19.5c13.333 0 27.333 -5.33301 42 -16l81 -62l81 62c14.667 10.667 28.334 16 41.001 16c16.667 0 31.667 -6.5 45 -19.5s20 -27.833 20 -44.5c0 -20 -10 -37.333 -30 -52l-115 -90
c-14.667 -11.333 -28.667 -17 -42 -17c-12.667 0 -27 5.66699 -43 17l-115 90c-19.333 14 -29 31.333 -29 52z" />
    <glyph glyph-name="ccaron" unicode="&#x10d;" horiz-adv-x="561" 
d="M48 204c-4 41.333 -4.00098 88.999 -0.000976562 142.999c4 60 29 109.333 75 148s102.333 58 169 58c70 0 126 -16 168 -48s63 -65.667 63 -101c0 -23.333 -7.33301 -43.166 -22 -59.499s-34 -24.5 -58 -24.5c-27.333 0 -48 10.667 -62 32c-20 29.333 -47.667 44 -83 44
c-51.333 0 -80.333 -25.667 -87 -77c-2.66699 -28.667 -2.66699 -57.334 0 -86.001c6.66699 -54.667 35.667 -82 87 -82c35.333 0 63 14.667 83 44c14 21.333 34.667 32 62 32c24 0 43.333 -8.16699 58 -24.5s22 -36.166 22 -59.499c0 -36 -21.167 -70.5 -63.5 -103.5
s-98.166 -49.5 -167.499 -49.5c-65.333 0 -121 20.5 -167 61.5s-71.667 91.833 -77 152.5zM99.999 749.999c0 16.667 6.66602 31.5 19.999 44.5s28 19.5 44 19.5c13.333 0 27.333 -5.33301 42 -16l81 -62l81 62c14.667 10.667 28.334 16 41.001 16
c16.667 0 31.667 -6.5 45 -19.5s20 -27.833 20 -44.5c0 -20 -10 -37.333 -30 -52l-115 -90c-14.667 -11.333 -28.667 -17 -42 -17c-12.667 0 -27 5.66699 -43 17l-115 90c-19.333 14 -29 31.333 -29 52z" />
    <glyph glyph-name="Dcaron" unicode="&#x10e;" horiz-adv-x="716" 
d="M66 114l0.00292969 481.999c0 33.333 10.167 60.5 30.5 81.5s49.166 31.5 86.499 31.5h145c108 0 190.167 -26.333 246.5 -79s87.833 -124.667 94.5 -216c3.33301 -41.333 3.66602 -77.333 0.999023 -108c-6.66699 -94 -37.834 -168.5 -93.501 -223.5
s-138.5 -82.5 -248.5 -82.5h-145c-36 0 -64.5 10.833 -85.5 32.5s-31.5 48.834 -31.5 81.501zM159.003 913.999c0 16.667 6.66602 31.5 19.999 44.5s28 19.5 44 19.5c13.333 0 27.333 -5.33301 42 -16l81 -62l81 62c14.667 10.667 28.334 16 41.001 16
c16.667 0 31.667 -6.5 45 -19.5s20 -27.833 20 -44.5c0 -20 -10 -37.333 -30 -52l-115 -90c-14.667 -11.333 -28.667 -17 -42 -17c-12.667 0 -27 5.66699 -43 17l-115 90c-19.333 14 -29 31.333 -29 52zM236.002 166.999h97c104 0 159.667 49.667 167 149
c2 22 2.33301 45 1 69c-4 106 -60 159 -168 159h-97v-377z" />
    <glyph glyph-name="dcaron" unicode="&#x10f;" horiz-adv-x="737" 
d="M48 204c-4.66699 53.333 -4.66895 100.667 -0.00195312 142c5.33301 63.333 27.333 113.666 66 150.999s91 56 157 56c38 0 72 -6.66699 102 -20v105c0 23.333 8.16699 43.333 24.5 60s35.833 25 58.5 25c24 0 43.833 -8.16699 59.5 -24.5s23.5 -36.5 23.5 -60.5v-529
c0 -23.333 -9.33301 -41.666 -28 -54.999c-59.333 -42 -132 -63 -218 -63c-69.333 0 -126.166 20 -170.499 60s-69.166 91 -74.499 153zM211.998 234.001c1.33301 -26 9.33301 -46.167 24 -60.5s35 -21.5 61 -21.5c13.333 0 27.5 2.66699 42.5 8s26.167 11 33.5 17v198
c-22 14 -49.667 21 -83 21c-50 0 -76 -26 -78 -78c-2.66699 -26 -2.66699 -54 0 -84zM590.998 608.001c0 9.33301 5.16797 24.667 15.501 46s15.5 40.666 15.5 57.999v38c0 20.667 5.5 37.5 16.5 50.5s26.833 19.5 47.5 19.5c19.333 0 34.666 -6.66699 45.999 -20
s17 -30 17 -50v-30c0 -44 -11 -86 -33 -126c-16 -28.667 -38 -43 -66 -43c-17.333 0 -31.5 5.83301 -42.5 17.5s-16.5 24.834 -16.5 39.501z" />
    <glyph glyph-name="Dcroat" unicode="&#x110;" horiz-adv-x="712" 
d="M-29 355c0 20 6.83301 36.998 20.5 50.998s30.834 21 51.501 21h19v169c0 32.667 10.333 60 31 82s49.334 33 86.001 33h145c108 0 190.167 -26.667 246.5 -80s87.833 -125.666 94.5 -216.999c3.33301 -39.333 3.33301 -78 0 -116
c-6.66699 -92 -38.167 -164.667 -94.5 -218s-138.5 -80 -246.5 -80h-145c-36.667 0 -65.334 10.833 -86.001 32.5s-31 48.834 -31 81.501v168h-19c-20.667 0 -37.834 7 -51.501 21s-20.5 31.333 -20.5 52zM232 166.998l96 -0.000976562
c104.667 0 160.334 49.667 167.001 149c2 26.667 2 53.334 0 80.001c-6.66699 98.667 -62.334 148 -167.001 148h-96v-117h85c20.667 0 38 -7 52 -21s21 -31 21 -51c0 -20.667 -7 -38 -21 -52s-31.333 -21 -52 -21h-85v-115z" />
    <glyph glyph-name="dcroat" unicode="&#x111;" horiz-adv-x="604" 
d="M48 204c-4.66699 53.333 -4.66895 100.667 -0.00195312 142c5.33301 63.333 27.333 113.666 66 150.999s91 56 157 56c38 0 72 -6.66699 102 -20v39h-62c-19.333 0 -35 5.83301 -47 17.5s-18 27.167 -18 46.5c0 18 6 32.833 18 44.5s27.667 17.5 47 17.5h66v13
c0 12 7.16699 23.333 21.5 34s33.5 16 57.5 16c25.333 0 45.5 -5.33301 60.5 -16s22.5 -22 22.5 -34v-12h10c14 0 26.833 -5.5 38.5 -16.5s17.5 -26.5 17.5 -46.5c0 -21.333 -6 -37.333 -18 -48s-26 -16 -42 -16h-6v-463c0 -23.333 -9.33301 -41.666 -28 -54.999
c-59.333 -42 -132 -63 -218 -63c-69.333 0 -126.166 20 -170.499 60s-69.166 91 -74.499 153zM211.998 234.001c1.33301 -26 9.33301 -46.168 24 -60.501s35 -21.5 61 -21.5c13.333 0 27.5 2.66699 42.5 8s26.167 11 33.5 17v198c-22 14 -49.667 21 -83 21
c-26 0 -45 -7 -57 -21s-19 -34.667 -21 -62c-2 -23.333 -2 -49.666 0 -78.999z" />
    <glyph glyph-name="Emacron" unicode="&#x112;" horiz-adv-x="631" 
d="M66 115v481.001c0 32.667 10.333 59.667 31 81s49.334 32 86.001 32h321c22.667 0 41.834 -7.33301 57.501 -22s23.5 -33 23.5 -55c0 -21.333 -8.16699 -39.833 -24.5 -55.5s-35.166 -23.5 -56.499 -23.5h-268v-125h230c23.333 0 41.833 -6.5 55.5 -19.5
s20.5 -30.5 20.5 -52.5c0 -20 -7.16699 -37.167 -21.5 -51.5s-32.5 -21.5 -54.5 -21.5h-230v-126h270c21.333 0 40.166 -7.83301 56.499 -23.5s24.5 -33.834 24.5 -54.501c0 -22.667 -7.83301 -41.5 -23.5 -56.5s-34.834 -22.5 -57.501 -22.5h-323
c-36.667 0 -65.334 11 -86.001 33s-31 49.333 -31 82zM186 826.001c0 19.333 6.33496 35.333 19.002 48s28.334 19 47.001 19h154c19.333 0 35.166 -6.33301 47.499 -19s18.5 -28.667 18.5 -48c0 -18.667 -6.33301 -34.334 -19 -47.001s-28.334 -19 -47.001 -19h-154
c-18.667 0 -34.334 6.33301 -47.001 19s-19 28.334 -19 47.001z" />
    <glyph glyph-name="emacron" unicode="&#x113;" horiz-adv-x="569" 
d="M48 202c-4 50 -4 95 0 135c6 65.333 31.167 117.666 75.5 156.999s100.166 59 167.499 59c70.667 0 128 -21.667 172 -65s66 -101.666 66 -174.999v-23c0 -22.667 -6.16699 -41 -18.5 -55s-30.833 -21 -55.5 -21l-251 -1v-6c0 -23.333 9.33301 -41.333 28 -54
s42 -19 70 -19c28.667 0 61.667 8.33301 99 25c28.667 13.333 53.5 12.333 74.5 -3s31.5 -35.333 31.5 -60c0 -28 -16 -51.333 -48 -70c-39.333 -23.333 -93.666 -35 -162.999 -35c-68 0 -124.833 19.833 -170.5 59.5s-71.5 90.167 -77.5 151.5zM146 664
c0 19.333 6.33496 35.333 19.002 48s28.334 19 47.001 19h154c19.333 0 35.166 -6.33301 47.499 -19s18.5 -28.667 18.5 -48c0 -18.667 -6.33301 -34.334 -19 -47.001s-28.334 -19 -47.001 -19h-154c-18.667 0 -34.334 6.33301 -47.001 19s-19 28.334 -19 47.001z
M204.002 320h167c6.66699 0 10 4 10 12c0.666992 26 -6.83301 47.167 -22.5 63.5s-37.167 24.5 -64.5 24.5c-30 0 -52.5 -9 -67.5 -27s-22.5 -42.333 -22.5 -73z" />
    <glyph glyph-name="Edotaccent" unicode="&#x116;" horiz-adv-x="631" 
d="M66 115v481.001c0 32.667 10.333 59.667 31 81s49.334 32 86.001 32h321c22.667 0 41.834 -7.33301 57.501 -22s23.5 -33 23.5 -55c0 -21.333 -8.16699 -39.833 -24.5 -55.5s-35.166 -23.5 -56.499 -23.5h-268v-125h230c23.333 0 41.833 -6.5 55.5 -19.5
s20.5 -30.5 20.5 -52.5c0 -20 -7.16699 -37.167 -21.5 -51.5s-32.5 -21.5 -54.5 -21.5h-230v-126h270c21.333 0 40.166 -7.83301 56.499 -23.5s24.5 -33.834 24.5 -54.501c0 -22.667 -7.83301 -41.5 -23.5 -56.5s-34.834 -22.5 -57.501 -22.5h-323
c-36.667 0 -65.334 11 -86.001 33s-31 49.333 -31 82zM255 831.001c0 21.333 7.33301 39.5 22 54.5s32.667 22.5 54 22.5s39.333 -7.5 54 -22.5s22 -33.167 22 -54.5s-7.33301 -39.333 -22 -54s-32.667 -22 -54 -22s-39.333 7.33301 -54 22s-22 32.667 -22 54z" />
    <glyph glyph-name="edotaccent" unicode="&#x117;" horiz-adv-x="569" 
d="M48 202c-4 50 -4 95 0 135c6 65.333 31.167 117.666 75.5 156.999s100.166 59 167.499 59c70.667 0 128 -21.667 172 -65s66 -101.666 66 -174.999v-23c0 -22.667 -6.16699 -41 -18.5 -55s-30.833 -21 -55.5 -21l-251 -1v-6c0 -23.333 9.33301 -41.333 28 -54
s42 -19 70 -19c28.667 0 61.667 8.33301 99 25c28.667 13.333 53.5 12.333 74.5 -3s31.5 -35.333 31.5 -60c0 -28 -16 -51.333 -48 -70c-39.333 -23.333 -93.666 -35 -162.999 -35c-68 0 -124.833 19.833 -170.5 59.5s-71.5 90.167 -77.5 151.5zM204 320h167
c6.66699 0 10 4 10 12c0.666992 26 -6.83301 47.167 -22.5 63.5s-37.167 24.5 -64.5 24.5c-30 0 -52.5 -9 -67.5 -27s-22.5 -42.333 -22.5 -73zM214 668c0 21.333 7.33301 39.5 22 54.5s32.667 22.5 54 22.5s39.333 -7.5 54 -22.5s22 -33.167 22 -54.5
s-7.33301 -39.333 -22 -54s-32.667 -22 -54 -22s-39.333 7.33301 -54 22s-22 32.667 -22 54z" />
    <glyph glyph-name="Eogonek" unicode="&#x118;" horiz-adv-x="632" 
d="M66 115l-0.000976562 480.999c0 32.667 10.333 59.667 31 81s49.334 32 86.001 32h321c22.667 0 41.834 -7.33301 57.501 -22s23.5 -33 23.5 -55c0 -21.333 -8.16699 -39.833 -24.5 -55.5s-35.166 -23.5 -56.499 -23.5h-268v-125h252c21.333 0 39.333 -6.66699 54 -20
s22 -30.666 22 -51.999c0 -19.333 -7.66699 -36.333 -23 -51s-33 -22 -53 -22h-252v-126h270c21.333 0 40.166 -7.83301 56.499 -23.5s24.5 -33.834 24.5 -54.501c0 -29.333 -11 -50.666 -33 -63.999c-18.667 -10.667 -33.834 -20 -45.501 -28s-23.5 -18.667 -35.5 -32
s-18 -26 -18 -38s3.83301 -21.833 11.5 -29.5s16.5 -11.5 26.5 -11.5c8 0 15.667 2.33301 23 7c24.667 14 45.334 10.667 62.001 -10c8.66699 -11.333 11.667 -23.833 9 -37.5s-9.66699 -25.167 -21 -34.5c-26.667 -20.667 -58 -31 -94 -31c-38 0 -69.167 12.833 -93.5 38.5
s-36.5 57.167 -36.5 94.5c0 38 12.333 70.333 37 97h-196c-36.667 0 -65.334 11 -86.001 33s-31 49.333 -31 82z" />
    <glyph glyph-name="eogonek" unicode="&#x119;" horiz-adv-x="570" 
d="M48 206c-4.66699 46.667 -4.66895 91.998 -0.00195312 135.998c5.33301 62.667 31 113.5 77 152.5s102 58.5 168 58.5c62.667 0 115.334 -17.167 158.001 -51.5s68.334 -81.5 77.001 -141.5c2 -22 3 -46.333 3 -73c0 -48 -24.667 -72 -74 -72h-246v-6
c0 -46.667 31 -70 93 -70c26.667 0 59 7 97 21c30 11.333 55.333 9.5 76 -5.5s31 -34.5 31 -58.5c0 -25.333 -10 -45.666 -30 -60.999c-5.33301 -4 -16.5 -11 -33.5 -21s-29 -17.833 -36 -23.5s-14.167 -14.5 -21.5 -26.5s-11 -25.667 -11 -41s3.83301 -27 11.5 -35
s16.834 -12 27.501 -12c7.33301 0 14.666 2.33301 21.999 7c10 6 20.833 8.33301 32.5 7s21.5 -7 29.5 -17c16.667 -20.667 14.667 -43 -6 -67s-54 -36 -100 -36c-36 0 -66.833 11.5 -92.5 34.5s-38.5 53.5 -38.5 91.5c0 35.333 9.66699 67 29 95
c-66.667 1.33301 -122.667 21.833 -168 61.5s-70.333 90.834 -75 153.501zM210.998 322.998h150c5.33301 0 8 2.33301 8 7c0.666992 20.667 -6 38.5 -20 53.5s-32.667 22.5 -56 22.5c-27.333 0 -47.833 -7.66699 -61.5 -23s-20.5 -35.333 -20.5 -60z" />
    <glyph glyph-name="Ecaron" unicode="&#x11a;" horiz-adv-x="631" 
d="M66 115v481.001c0 32.667 10.333 59.667 31 81s49.334 32 86.001 32h321c22.667 0 41.834 -7.33301 57.501 -22s23.5 -33 23.5 -55c0 -21.333 -8.16699 -39.833 -24.5 -55.5s-35.166 -23.5 -56.499 -23.5h-268v-125h230c23.333 0 41.833 -6.5 55.5 -19.5
s20.5 -30.5 20.5 -52.5c0 -20 -7.16699 -37.167 -21.5 -51.5s-32.5 -21.5 -54.5 -21.5h-230v-126h270c21.333 0 40.166 -7.83301 56.499 -23.5s24.5 -33.834 24.5 -54.501c0 -22.667 -7.83301 -41.5 -23.5 -56.5s-34.834 -22.5 -57.501 -22.5h-323
c-36.667 0 -65.334 11 -86.001 33s-31 49.333 -31 82zM151 914.001c0 16.667 6.66602 31.5 19.999 44.5s28 19.5 44 19.5c13.333 0 27.333 -5.33301 42 -16l81 -62l81 62c14.667 10.667 28.334 16 41.001 16c16.667 0 31.667 -6.5 45 -19.5s20 -27.833 20 -44.5
c0 -20 -10 -37.333 -30 -52l-115 -90c-14.667 -11.333 -28.667 -17 -42 -17c-12.667 0 -27 5.66699 -43 17l-115 90c-19.333 14 -29 31.333 -29 52z" />
    <glyph glyph-name="ecaron" unicode="&#x11b;" horiz-adv-x="569" 
d="M48 202c-4 50 -4 95 0 135c6 65.333 31.167 117.666 75.5 156.999s100.166 59 167.499 59c70.667 0 128 -21.667 172 -65s66 -101.666 66 -174.999v-23c0 -22.667 -6.16699 -41 -18.5 -55s-30.833 -21 -55.5 -21l-251 -1v-6c0 -23.333 9.33301 -41.333 28 -54
s42 -19 70 -19c28.667 0 61.667 8.33301 99 25c28.667 13.333 53.5 12.333 74.5 -3s31.5 -35.333 31.5 -60c0 -28 -16 -51.333 -48 -70c-39.333 -23.333 -93.666 -35 -162.999 -35c-68 0 -124.833 19.833 -170.5 59.5s-71.5 90.167 -77.5 151.5zM110 749
c0 16.667 6.66602 31.5 19.999 44.5s28 19.5 44 19.5c13.333 0 27.333 -5.33301 42 -16l81 -62l81 62c14.667 10.667 28.334 16 41.001 16c16.667 0 31.667 -6.5 45 -19.5s20 -27.833 20 -44.5c0 -20 -10 -37.333 -30 -52l-115 -90c-14.667 -11.333 -28.667 -17 -42 -17
c-12.667 0 -27 5.66699 -43 17l-115 90c-19.333 14 -29 31.333 -29 52zM203.999 320h167c6.66699 0 10 4 10 12c0.666992 26 -6.83301 47.167 -22.5 63.5s-37.167 24.5 -64.5 24.5c-30 0 -52.5 -9 -67.5 -27s-22.5 -42.333 -22.5 -73z" />
    <glyph glyph-name="Gbreve" unicode="&#x11e;" horiz-adv-x="698" 
d="M48 273c-5.33301 54.667 -5.33105 107.334 0.00195312 158.001c8 82.667 40.167 151.334 96.5 206.001s127.166 82 212.499 82c116 0 202 -44 258 -132c10.667 -14.667 16 -32.334 16 -53.001c0 -21.333 -8 -39.833 -24 -55.5s-35.333 -23.5 -58 -23.5
c-25.333 0 -47 12.333 -65 37c-15.333 22.667 -31.666 39.667 -48.999 51s-42 17 -74 17c-86.667 0 -134.667 -51.333 -144 -154c-2.66699 -27.333 -2.66699 -65.333 0 -114c7.33301 -101.333 57.666 -152 150.999 -152c41.333 0 72.5 9.66699 93.5 29
s31.5 41.666 31.5 66.999v19h-68c-21.333 0 -39.5 7.5 -54.5 22.5s-22.5 32.833 -22.5 53.5c0 21.333 7.5 39.333 22.5 54s33.167 22 54.5 22h120c33.333 0 59.666 -10.333 78.999 -31s29 -46 29 -76v-48c0 -78 -28.333 -141.667 -85 -191s-126.667 -74 -210 -74
c-86 0 -157.333 27.167 -214 81.5s-88.667 122.5 -96 204.5zM192.002 885c0 16.667 5.66699 30.667 17 42s25.333 17 42 17c28 0 47 -14 57 -42c8.66699 -27.333 25 -41 49 -41s40.333 13.667 49 41c10 28 29 42 57 42c16.667 0 30.667 -5.66699 42 -17s17 -25.333 17 -42
c0 -7.33301 -1.33301 -14 -4 -20c-12 -33.333 -32 -61 -60 -83s-61.667 -33 -101 -33s-73 11 -101 33s-48 49.667 -60 83c-2.66699 6 -4 12.667 -4 20z" />
    <glyph glyph-name="gbreve" unicode="&#x11f;" horiz-adv-x="599" 
d="M48 208c-4 38 -3.99805 82 0.00195312 132c5.33301 62 30 113 74 153s100.333 60 169 60c84.667 0 157.667 -20.667 219 -62c18.667 -12.667 28 -31.334 28 -56.001v-409c0 -74 -24.333 -131.333 -73 -172s-114.334 -61 -197.001 -61c-40 0 -80.667 4.66699 -122 14
c-46.667 10.667 -70 35.667 -70 75c0 22.667 8.66699 41.834 26 57.501s41.666 20.167 72.999 13.5c32.667 -7.33301 62.667 -11 90 -11c42.667 0 71.5 8.33301 86.5 25s22.5 39.667 22.5 69c-33.333 -14.667 -68.333 -22 -105 -22c-66 0 -118 17.167 -156 51.5
s-59.667 81.833 -65 142.5zM136.002 721c0 16.667 5.66699 30.667 17 42s25.333 17 42 17c28 0 47 -14 57 -42c8.66699 -27.333 25 -41 49 -41s40.333 13.667 49 41c10 28 29 42 57 42c16.667 0 30.667 -5.66699 42 -17s17 -25.333 17 -42c0 -7.33301 -1.33301 -14 -4 -20
c-12 -33.333 -32 -61 -60 -83s-61.667 -33 -101 -33s-73 11 -101 33s-48 49.667 -60 83c-2.66699 6 -4 12.667 -4 20zM211.002 240c1.33301 -26 8.50098 -46.668 21.501 -62.001s31.833 -23 56.5 -23c34 0 62 7.66699 84 23v195c-18.667 15.333 -44.334 23 -77.001 23
c-25.333 0 -45.5 -7.83301 -60.5 -23.5s-23.167 -36.5 -24.5 -62.5c-1.33301 -25.333 -1.33301 -48.666 0 -69.999z" />
    <glyph glyph-name="Gdotaccent" unicode="&#x120;" horiz-adv-x="698" 
d="M48 273c-5.33301 54.667 -5.33105 107.334 0.00195312 158.001c8 82.667 40.167 151.334 96.5 206.001s127.166 82 212.499 82c116 0 202 -44 258 -132c10.667 -14.667 16 -32.334 16 -53.001c0 -21.333 -8 -39.833 -24 -55.5s-35.333 -23.5 -58 -23.5
c-25.333 0 -47 12.333 -65 37c-15.333 22.667 -31.666 39.667 -48.999 51s-42 17 -74 17c-86.667 0 -134.667 -51.333 -144 -154c-2.66699 -27.333 -2.66699 -65.333 0 -114c7.33301 -101.333 57.666 -152 150.999 -152c41.333 0 72.5 9.66699 93.5 29
s31.5 41.666 31.5 66.999v19h-68c-21.333 0 -39.5 7.5 -54.5 22.5s-22.5 32.833 -22.5 53.5c0 21.333 7.5 39.333 22.5 54s33.167 22 54.5 22h120c33.333 0 59.666 -10.333 78.999 -31s29 -46 29 -76v-48c0 -78 -28.333 -141.667 -85 -191s-126.667 -74 -210 -74
c-86 0 -157.333 27.167 -214 81.5s-88.667 122.5 -96 204.5zM281.002 830c0 21.333 7.33301 39.5 22 54.5s32.667 22.5 54 22.5s39.333 -7.5 54 -22.5s22 -33.167 22 -54.5s-7.33301 -39.333 -22 -54s-32.667 -22 -54 -22s-39.333 7.33301 -54 22s-22 32.667 -22 54z" />
    <glyph glyph-name="gdotaccent" unicode="&#x121;" horiz-adv-x="599" 
d="M48 208c-4 38 -3.99805 82 0.00195312 132c5.33301 62 30 113 74 153s100.333 60 169 60c84.667 0 157.667 -20.667 219 -62c18.667 -12.667 28 -31.334 28 -56.001v-409c0 -74 -24.333 -131.333 -73 -172s-114.334 -61 -197.001 -61c-40 0 -80.667 4.66699 -122 14
c-46.667 10.667 -70 35.667 -70 75c0 22.667 8.66699 41.834 26 57.501s41.666 20.167 72.999 13.5c32.667 -7.33301 62.667 -11 90 -11c42.667 0 71.5 8.33301 86.5 25s22.5 39.667 22.5 69c-33.333 -14.667 -68.333 -22 -105 -22c-66 0 -118 17.167 -156 51.5
s-59.667 81.833 -65 142.5zM211.002 240c1.33301 -26 8.50098 -46.668 21.501 -62.001s31.833 -23 56.5 -23c34 0 62 7.66699 84 23v195c-18.667 15.333 -44.334 23 -77.001 23c-25.333 0 -45.5 -7.83301 -60.5 -23.5s-23.167 -36.5 -24.5 -62.5
c-1.33301 -25.333 -1.33301 -48.666 0 -69.999zM225.003 668.999c0 21.333 7.33301 39.5 22 54.5s32.667 22.5 54 22.5s39.333 -7.5 54 -22.5s22 -33.167 22 -54.5s-7.33301 -39.333 -22 -54s-32.667 -22 -54 -22s-39.333 7.33301 -54 22s-22 32.667 -22 54z" />
    <glyph glyph-name="Gcommaaccent" unicode="&#x122;" horiz-adv-x="698" 
d="M48 273c-5.33301 54.667 -5.33105 107.334 0.00195312 158.001c8 82.667 40.167 151.334 96.5 206.001s127.166 82 212.499 82c116 0 202 -44 258 -132c10.667 -14.667 16 -32.334 16 -53.001c0 -21.333 -8 -39.833 -24 -55.5s-35.333 -23.5 -58 -23.5
c-25.333 0 -47 12.333 -65 37c-15.333 22.667 -31.666 39.667 -48.999 51s-42 17 -74 17c-86.667 0 -134.667 -51.333 -144 -154c-2.66699 -27.333 -2.66699 -65.333 0 -114c7.33301 -101.333 57.666 -152 150.999 -152c41.333 0 72.5 9.66699 93.5 29
s31.5 41.666 31.5 66.999v19h-68c-21.333 0 -39.5 7.5 -54.5 22.5s-22.5 32.833 -22.5 53.5c0 21.333 7.5 39.333 22.5 54s33.167 22 54.5 22h120c33.333 0 59.666 -10.333 78.999 -31s29 -46 29 -76v-48c0 -78 -28.333 -141.667 -85 -191s-126.667 -74 -210 -74
c-86 0 -157.333 27.167 -214 81.5s-88.667 122.5 -96 204.5zM280.002 -228c0 10 5.16895 25.8311 15.502 47.498s15.5 40.834 15.5 57.501v26c0 20.667 5.33301 37.334 16 50.001s26 19 46 19c19.333 0 34.666 -6.5 45.999 -19.5s17 -29.5 17 -49.5v-18
c0 -43.333 -11 -85.333 -33 -126c-16.667 -28.667 -38.334 -43 -65.001 -43c-17.333 0 -31.333 5.66699 -42 17s-16 24.333 -16 39z" />
    <glyph glyph-name="gcommaaccent" unicode="&#x123;" horiz-adv-x="599" 
d="M48 208c-4 38 -3.99805 82 0.00195312 132c5.33301 62 30 113 74 153s100.333 60 169 60c84.667 0 157.667 -20.667 219 -62c18.667 -12.667 28 -31.334 28 -56.001v-409c0 -74 -24.333 -131.333 -73 -172s-114.334 -61 -197.001 -61c-40 0 -80.667 4.66699 -122 14
c-46.667 10.667 -70 35.667 -70 75c0 22.667 8.66699 41.834 26 57.501s41.666 20.167 72.999 13.5c32.667 -7.33301 62.667 -11 90 -11c42.667 0 71.5 8.33301 86.5 25s22.5 39.667 22.5 69c-33.333 -14.667 -68.333 -22 -105 -22c-66 0 -118 17.167 -156 51.5
s-59.667 81.833 -65 142.5zM211.002 240c1.33301 -26 8.50098 -46.668 21.501 -62.001s31.833 -23 56.5 -23c34 0 62 7.66699 84 23v195c-18.667 15.333 -44.334 23 -77.001 23c-25.333 0 -45.5 -7.83301 -60.5 -23.5s-23.167 -36.5 -24.5 -62.5
c-1.33301 -25.333 -1.33301 -48.666 0 -69.999zM238.003 657.999c0 10 5.16895 25.8311 15.502 47.498s15.5 40.834 15.5 57.501v26c0 20.667 5.33301 37.334 16 50.001s26 19 46 19c19.333 0 34.666 -6.5 45.999 -19.5s17 -29.5 17 -49.5v-18
c0 -43.333 -11 -85.333 -33 -126c-16.667 -28.667 -38.334 -43 -65.001 -43c-17.333 0 -31.333 5.66699 -42 17s-16 24.333 -16 39z" />
    <glyph glyph-name="Imacron" unicode="&#x12a;" horiz-adv-x="294" 
d="M5 826c0 19.333 6.33496 35.333 19.002 48s28.334 19 47.001 19h154c19.333 0 35.166 -6.33301 47.499 -19s18.5 -28.667 18.5 -48c0 -18.667 -6.33301 -34.334 -19 -47.001s-28.334 -19 -47.001 -19h-154c-18.667 0 -34.334 6.33301 -47.001 19s-19 28.334 -19 47.001z
M62.002 84v538c0 24 8.5 44.5 25.5 61.5s36.833 25.5 59.5 25.5c24 0 44.167 -8.5 60.5 -25.5s24.5 -37.5 24.5 -61.5v-538c0 -24.667 -8.16699 -45.5 -24.5 -62.5s-36.5 -25.5 -60.5 -25.5c-23.333 0 -43.333 8.5 -60 25.5s-25 37.833 -25 62.5z" />
    <glyph glyph-name="imacron" unicode="&#x12b;" horiz-adv-x="297" 
d="M6 664c0 19.333 6.33496 35.333 19.002 48s28.334 19 47.001 19h154c19.333 0 35.166 -6.33301 47.499 -19s18.5 -28.667 18.5 -48c0 -18.667 -6.33301 -34.334 -19 -47.001s-28.334 -19 -47.001 -19h-154c-18.667 0 -34.334 6.33301 -47.001 19s-19 28.334 -19 47.001z
M66.002 79v383c0 24 7.83301 44.167 23.5 60.5s35.167 24.5 58.5 24.5s43 -8.16699 59 -24.5s24 -36.5 24 -60.5v-383c0 -23.333 -8 -43.333 -24 -60s-35.667 -25 -59 -25c-22 0 -41.167 8.5 -57.5 25.5s-24.5 36.833 -24.5 59.5z" />
    <glyph glyph-name="Iogonek" unicode="&#x12e;" horiz-adv-x="294" 
d="M21 -96c0 49.333 20.999 90.333 62.999 123c-14.667 21.333 -22 45 -22 71v523c0 24 8.33301 44.667 25 62s36.667 26 60 26c24.667 0 45 -9.33301 61 -28s24 -41 24 -67v-530c0 -30.667 -12 -54.667 -36 -72c-41.333 -29.333 -62 -61 -62 -95
c0 -12 3.83301 -21.833 11.5 -29.5s16.834 -11.5 27.501 -11.5c7.33301 0 14.666 2.33301 21.999 7c24.667 14 45.334 10.667 62.001 -10s14.667 -43 -6 -67s-53.667 -36 -99 -36c-38 0 -69.333 12.833 -94 38.5s-37 57.5 -37 95.5z" />
    <glyph glyph-name="iogonek" unicode="&#x12f;" horiz-adv-x="297" 
d="M17 -96c0 50.667 22 93.001 66 127.001c-11.333 19.333 -17 36.666 -17 51.999v378c0 24 7.66699 44.333 23 61s35 25 59 25c22.667 0 42.167 -8.5 58.5 -25.5s24.5 -36.833 24.5 -59.5v-381c0 -34 -13.333 -58.667 -40 -74c-40.667 -22.667 -61 -52.667 -61 -90
c0 -12 3.83301 -21.833 11.5 -29.5s16.834 -11.5 27.501 -11.5c7.33301 0 14.666 2.33301 21.999 7c10 6 20.833 8.33301 32.5 7s21.5 -7 29.5 -17c16 -20.667 13.833 -43 -6.5 -67s-53.5 -36 -99.5 -36c-38 0 -69.167 12.833 -93.5 38.5s-36.5 57.5 -36.5 95.5zM64 673.001
c0 23.333 7.99902 43.166 23.999 59.499s36 24.5 60 24.5c23.333 0 43.166 -8.16699 59.499 -24.5s24.5 -36.166 24.5 -59.499s-8.16699 -43.5 -24.5 -60.5s-36.166 -25.5 -59.499 -25.5s-43.166 8.5 -59.499 25.5s-24.5 37.167 -24.5 60.5z" />
    <glyph glyph-name="Idotaccent" unicode="&#x130;" horiz-adv-x="294" 
d="M62 84v538c0 24 8.5 44.5 25.5 61.5s36.833 25.5 59.5 25.5c24 0 44.167 -8.5 60.5 -25.5s24.5 -37.5 24.5 -61.5v-538c0 -24.667 -8.16699 -45.5 -24.5 -62.5s-36.5 -25.5 -60.5 -25.5c-23.333 0 -43.333 8.5 -60 25.5s-25 37.833 -25 62.5zM73 831
c0 21.333 7.33301 39.5 22 54.5s32.667 22.5 54 22.5s39.333 -7.5 54 -22.5s22 -33.167 22 -54.5s-7.33301 -39.333 -22 -54s-32.667 -22 -54 -22s-39.333 7.33301 -54 22s-22 32.667 -22 54z" />
    <glyph glyph-name="dotlessi" unicode="&#x131;" horiz-adv-x="297" 
d="M66 79v383c0 24 7.83301 44.167 23.5 60.5s35.167 24.5 58.5 24.5s43 -8.16699 59 -24.5s24 -36.5 24 -60.5v-383c0 -23.333 -8 -43.333 -24 -60s-35.667 -25 -59 -25c-22 0 -41.167 8.5 -57.5 25.5s-24.5 36.833 -24.5 59.5z" />
    <glyph glyph-name="Kcommaaccent" unicode="&#x136;" horiz-adv-x="664" 
d="M66 84l-0.000976562 538.002c0 24 8.5 44.5 25.5 61.5s36.833 25.5 59.5 25.5c24 0 44.167 -8.5 60.5 -25.5s24.5 -37.5 24.5 -61.5v-186h4c22.667 0 41 7.66699 55 23l201 220c17.333 20 38.5 30 63.5 30s44.833 -8.33301 59.5 -25
c15.333 -16.667 23 -35.334 23 -56.001s-6.66699 -38.334 -20 -53.001l-203 -214l197 -219c15.333 -18 23.5 -38 24.5 -60s-6.16699 -42 -21.5 -60c-16 -17.333 -36.167 -26 -60.5 -26s-45.166 9.66699 -62.499 29l-201 225c-12.667 15.333 -31 23 -55 23h-4v-189
c0 -24.667 -8.16699 -45.5 -24.5 -62.5s-36.5 -25.5 -60.5 -25.5c-22.667 0 -42.5 8.83301 -59.5 26.5s-25.5 38.167 -25.5 61.5zM249.999 -227.998c0 10 5.16895 25.8311 15.502 47.498s15.5 40.834 15.5 57.501v26c0 20.667 5.33301 37.334 16 50.001s26 19 46 19
c19.333 0 34.666 -6.5 45.999 -19.5s17 -29.5 17 -49.5v-18c0 -43.333 -11 -85.333 -33 -126c-16.667 -28.667 -38.334 -43 -65.001 -43c-17.333 0 -31.333 5.66699 -42 17s-16 24.333 -16 39z" />
    <glyph glyph-name="kcommaaccent" unicode="&#x137;" horiz-adv-x="575" 
d="M61 80l-0.000976562 555.998c0 24 7.83301 44.167 23.5 60.5s35.167 24.5 58.5 24.5s43 -8.16699 59 -24.5s24 -36.5 24 -60.5v-286h6c10.667 0 18.834 1.16699 24.501 3.5s13.167 8.5 22.5 18.5l136 146c18 19.333 39.333 29.333 64 30s44.334 -7.33301 59.001 -24
c15.333 -17.333 23.166 -36.666 23.499 -57.999s-6.5 -38.666 -20.5 -51.999l-137 -137l127 -136c16.667 -18 25.334 -38 26.001 -60s-7.33301 -42.333 -24 -61c-15.333 -16.667 -35.333 -25 -60 -25s-45.334 9.66699 -62.001 29l-132 148
c-8.66699 10 -15.667 16.167 -21 18.5s-13 3.5 -23 3.5h-9v-114c0 -24 -7.83301 -44.167 -23.5 -60.5s-35.5 -24.5 -59.5 -24.5c-22 0 -41.167 8.5 -57.5 25.5s-24.5 36.833 -24.5 59.5zM200.999 -229.002c0 10 5.16895 25.8311 15.502 47.498s15.5 40.834 15.5 57.501v26
c0 20.667 5.33301 37.334 16 50.001s26 19 46 19c19.333 0 34.666 -6.5 45.999 -19.5s17 -29.5 17 -49.5v-18c0 -43.333 -11 -85.333 -33 -126c-16.667 -28.667 -38.334 -43 -65.001 -43c-17.333 0 -31.333 5.66699 -42 17s-16 24.333 -16 39z" />
    <glyph glyph-name="Lacute" unicode="&#x139;" horiz-adv-x="583" 
d="M68 818c0 24 12.667 42.667 38 56l135 70c10.667 6.66699 22 10 34 10c16.667 0 31.167 -6.83301 43.5 -20.5s18.5 -29.167 18.5 -46.5c0 -23.333 -12.667 -42 -38 -56l-135 -69c-12 -6 -23.333 -9 -34 -9c-16.667 0 -31.167 6.5 -43.5 19.5s-18.5 28.167 -18.5 45.5z
M74 88v534.001c0 24 8.5 44.5 25.5 61.5s36.833 25.5 59.5 25.5c24 0 44.167 -8.5 60.5 -25.5s24.5 -37.5 24.5 -61.5v-455h247c22.667 0 42.667 -8.33301 60 -25s26 -36.334 26 -59.001c0 -23.333 -8.33301 -43 -25 -59s-37 -24 -61 -24h-328
c-27.333 -0 -49 8.33301 -65 25s-24 37.667 -24 63z" />
    <glyph glyph-name="lacute" unicode="&#x13a;" horiz-adv-x="297" 
d="M29 819c0 24 12.667 42.667 38 56l135 70c10.667 6.66699 22 10 34 10c16.667 0 31.167 -6.83301 43.5 -20.5s18.5 -29.167 18.5 -46.5c0 -23.333 -12.667 -42 -38 -56l-135 -69c-12 -6 -23.333 -9 -34 -9c-16.667 0 -31.167 6.5 -43.5 19.5s-18.5 28.167 -18.5 45.5z
M66 80v555c0 24 7.83301 44.333 23.5 61s35.167 25 58.5 25c22.667 0 42.167 -8.33301 58.5 -25s24.5 -37 24.5 -61v-555c0 -24 -7.83301 -44.167 -23.5 -60.5s-35.5 -24.5 -59.5 -24.5c-22.667 0 -42 8.33301 -58 25s-24 36.667 -24 60z" />
    <glyph glyph-name="Lcommaaccent" unicode="&#x13b;" horiz-adv-x="575" 
d="M66 88v534.001c0 24 8.5 44.5 25.5 61.5s36.833 25.5 59.5 25.5c24 0 44.167 -8.5 60.5 -25.5s24.5 -37.5 24.5 -61.5v-455h247c22.667 0 42.667 -8.33301 60 -25s26 -36.334 26 -59.001c0 -23.333 -8.33301 -43 -25 -59s-37 -24 -61 -24h-328
c-27.333 -0 -49 8.33301 -65 25s-24 37.667 -24 63zM224 -227.999c0 10 5.16895 25.8311 15.502 47.498s15.5 40.834 15.5 57.501v26c0 20.667 5.33301 37.334 16 50.001s26 19 46 19c19.333 0 34.666 -6.5 45.999 -19.5s17 -29.5 17 -49.5v-18
c0 -43.333 -11 -85.333 -33 -126c-16.667 -28.667 -38.334 -43 -65.001 -43c-17.333 0 -31.333 5.66699 -42 17s-16 24.333 -16 39z" />
    <glyph glyph-name="lcommaaccent" unicode="&#x13c;" horiz-adv-x="300" 
d="M60 -229c0 10 5.16895 25.8311 15.502 47.498s15.5 40.834 15.5 57.501v26c0 20.667 5.33301 37.334 16 50.001s26 19 46 19c19.333 0 34.666 -6.5 45.999 -19.5s17 -29.5 17 -49.5v-18c0 -43.333 -11 -85.333 -33 -126c-16.667 -28.667 -38.334 -43 -65.001 -43
c-17.333 0 -31.333 5.66699 -42 17s-16 24.333 -16 39zM69.002 79.998v555c0 24 7.83301 44.333 23.5 61s35.167 25 58.5 25c22.667 0 42.167 -8.33301 58.5 -25s24.5 -37 24.5 -61v-555c0 -24 -7.83301 -44.167 -23.5 -60.5s-35.5 -24.5 -59.5 -24.5
c-22.667 0 -42 8.33301 -58 25s-24 36.667 -24 60z" />
    <glyph glyph-name="Lcaron" unicode="&#x13d;" horiz-adv-x="575" 
d="M66 88v534.001c0 24 8.5 44.5 25.5 61.5s36.833 25.5 59.5 25.5c24 0 44.167 -8.5 60.5 -25.5s24.5 -37.5 24.5 -61.5v-455h247c22.667 0 42.667 -8.33301 60 -25s26 -36.334 26 -59.001c0 -23.333 -8.33301 -43 -25 -59s-37 -24 -61 -24h-328
c-27.333 -0 -49 8.33301 -65 25s-24 37.667 -24 63zM312 604.001c0 9.33301 5.16797 24.667 15.501 46s15.5 40.666 15.5 57.999v38c0 20.667 5.5 37.5 16.5 50.5s26.833 19.5 47.5 19.5c19.333 0 34.666 -6.66699 45.999 -20s17 -30 17 -50v-30c0 -44 -11 -86 -33 -126
c-16 -28.667 -38 -43 -66 -43c-17.333 0 -31.5 5.83301 -42.5 17.5s-16.5 24.834 -16.5 39.501z" />
    <glyph glyph-name="lcaron" unicode="&#x13e;" horiz-adv-x="426" 
d="M61 80v555c0 24 7.83301 44.333 23.5 61s35.167 25 58.5 25c22.667 0 42.167 -8.33301 58.5 -25s24.5 -37 24.5 -61v-555c0 -24 -7.83301 -44.167 -23.5 -60.5s-35.5 -24.5 -59.5 -24.5c-22.667 0 -42 8.33301 -58 25s-24 36.667 -24 60zM281 608
c0 9.33301 5.16797 24.667 15.501 46s15.5 40.666 15.5 57.999v38c0 20.667 5.5 37.5 16.5 50.5s26.833 19.5 47.5 19.5c19.333 0 34.666 -6.66699 45.999 -20s17 -30 17 -50v-30c0 -44 -11 -86 -33 -126c-16 -28.667 -38 -43 -66 -43c-17.333 0 -31.5 5.83301 -42.5 17.5
s-16.5 24.834 -16.5 39.501z" />
    <glyph glyph-name="Lslash" unicode="&#x141;" horiz-adv-x="571" 
d="M-58 267.5c4.66699 19 15.668 34.167 33.001 45.5l87 52v257c0 24 8.33301 44.5 25 61.5s36.667 25.5 60 25.5c24 0 44.167 -8.5 60.5 -25.5s24.5 -37.5 24.5 -61.5v-155l64 41c18 10.667 36.667 13.5 56 8.5s34.333 -16.167 45 -33.5s13.667 -35.666 9 -54.999
s-16 -34.333 -34 -45l-140 -86v-130h247c22 0 41.667 -8.33301 59 -25s26 -36.334 26 -59.001c0 -23.333 -8.33301 -43 -25 -59s-36.667 -24 -60 -24h-328c-28 -0 -49.833 8.33301 -65.5 25s-23.5 37.667 -23.5 63v107l-12 -7c-18 -10 -36.333 -12.667 -55 -8
s-33.334 15.667 -44.001 33s-13.667 35.5 -9 54.5z" />
    <glyph glyph-name="lslash" unicode="&#x142;" horiz-adv-x="386" 
d="M5.5 315c4.33301 16.667 14.832 30.335 31.499 41.002l70 45v234c0 24 7.83301 44.333 23.5 61s35.167 25 58.5 25c22.667 0 42.167 -8.33301 58.5 -25s24.5 -37 24.5 -61v-125l14 9c14.667 10 30.5 13 47.5 9s30.5 -14 40.5 -30
c8.66699 -14.667 10.834 -30.5 6.50098 -47.5s-13.833 -30.167 -28.5 -39.5l-80 -52v-279c0 -24 -7.83301 -44.167 -23.5 -60.5s-35.5 -24.5 -59.5 -24.5c-22.667 0 -42 8.33301 -58 25s-24 36.667 -24 60v172l-14 -8c-15.333 -6.66699 -30.5 -7.83398 -45.5 -3.50098
s-26.5 13.166 -34.5 26.499c-9.33301 15.333 -11.833 31.333 -7.5 48z" />
    <glyph glyph-name="Nacute" unicode="&#x143;" horiz-adv-x="766" 
d="M66 81v493.002c0 37.333 11.667 68.666 35 93.999s53.333 38 90 38c59.333 0 100.333 -23.667 123 -71l224 -419v-1l3 1c-7.33301 76.667 -11 169 -11 277v129c0 24 8.33301 44.5 25 61.5s36.667 25.5 60 25.5c24.667 0 45 -8.33301 61 -25s24 -37.334 24 -62.001v-496
c0 -36.667 -11.5 -67.667 -34.5 -93s-52.833 -38 -89.5 -38c-58 0 -98.667 23.333 -122 70l-229 428l-3 -1c8 -83.333 12 -165.333 12 -246v-165c0 -24.667 -7.83301 -45.5 -23.5 -62.5s-35.5 -25.5 -59.5 -25.5c-22.667 0 -42.5 8.83301 -59.5 26.5
s-25.5 38.167 -25.5 61.5zM275 818.002c0 24 12.667 42.667 38 56l135 70c10.667 6.66699 22 10 34 10c16.667 0 31.167 -6.83301 43.5 -20.5s18.5 -29.167 18.5 -46.5c0 -23.333 -12.667 -42 -38 -56l-135 -69c-12 -6 -23.333 -9 -34 -9c-16.667 0 -31.167 6.5 -43.5 19.5
s-18.5 28.167 -18.5 45.5z" />
    <glyph glyph-name="nacute" unicode="&#x144;" horiz-adv-x="589" 
d="M56 80l0.000976562 362c0 24 9.33301 42.667 28 56c53.333 36.667 125.333 55 216 55c77.333 0 135.833 -19.5 175.5 -58.5s59.5 -95.167 59.5 -168.5v-246c0 -24 -7.83301 -44.167 -23.5 -60.5s-35.5 -24.5 -59.5 -24.5c-22 0 -41.167 8.33301 -57.5 25
s-24.5 36.667 -24.5 60v238c0 24 -7 42.167 -21 54.5s-31.667 18.5 -53 18.5c-30.667 0 -55.334 -6.33301 -74.001 -19v-292c0 -23.333 -8 -43.333 -24 -60s-35.667 -25 -59 -25c-22 0 -41.333 8.33301 -58 25s-25 36.667 -25 60zM203.001 654c0 24 12.667 42.667 38 56
l135 70c10.667 6.66699 22 10 34 10c16.667 0 31.167 -6.83301 43.5 -20.5s18.5 -29.167 18.5 -46.5c0 -23.333 -12.667 -42 -38 -56l-135 -69c-12 -6 -23.333 -9 -34 -9c-16.667 0 -31.167 6.5 -43.5 19.5s-18.5 28.167 -18.5 45.5z" />
    <glyph glyph-name="Ncommaaccent" unicode="&#x145;" horiz-adv-x="766" 
d="M66 81v493.002c0 37.333 11.667 68.666 35 93.999s53.333 38 90 38c59.333 0 100.333 -23.667 123 -71l224 -419v-1l3 1c-7.33301 76.667 -11 169 -11 277v129c0 24 8.33301 44.5 25 61.5s36.667 25.5 60 25.5c24.667 0 45 -8.33301 61 -25s24 -37.334 24 -62.001v-496
c0 -36.667 -11.5 -67.667 -34.5 -93s-52.833 -38 -89.5 -38c-58 0 -98.667 23.333 -122 70l-229 428l-3 -1c8 -83.333 12 -165.333 12 -246v-165c0 -24.667 -7.83301 -45.5 -23.5 -62.5s-35.5 -25.5 -59.5 -25.5c-22.667 0 -42.5 8.83301 -59.5 26.5
s-25.5 38.167 -25.5 61.5zM293 -228.998c0 10 5.16895 25.8311 15.502 47.498s15.5 40.834 15.5 57.501v26c0 20.667 5.33301 37.334 16 50.001s26 19 46 19c19.333 0 34.666 -6.5 45.999 -19.5s17 -29.5 17 -49.5v-18c0 -43.333 -11 -85.333 -33 -126
c-16.667 -28.667 -38.334 -43 -65.001 -43c-17.333 0 -31.333 5.66699 -42 17s-16 24.333 -16 39z" />
    <glyph glyph-name="ncommaaccent" unicode="&#x146;" horiz-adv-x="589" 
d="M56 80l0.000976562 362c0 24 9.33301 42.667 28 56c53.333 36.667 125.333 55 216 55c77.333 0 135.833 -19.5 175.5 -58.5s59.5 -95.167 59.5 -168.5v-246c0 -24 -7.83301 -44.167 -23.5 -60.5s-35.5 -24.5 -59.5 -24.5c-22 0 -41.167 8.33301 -57.5 25
s-24.5 36.667 -24.5 60v238c0 24 -7 42.167 -21 54.5s-31.667 18.5 -53 18.5c-30.667 0 -55.334 -6.33301 -74.001 -19v-292c0 -23.333 -8 -43.333 -24 -60s-35.667 -25 -59 -25c-22 0 -41.333 8.33301 -58 25s-25 36.667 -25 60zM200.001 -229
c0 10 5.16895 25.8311 15.502 47.498s15.5 40.834 15.5 57.501v26c0 20.667 5.33301 37.334 16 50.001s26 19 46 19c19.333 0 34.666 -6.5 45.999 -19.5s17 -29.5 17 -49.5v-18c0 -43.333 -11 -85.333 -33 -126c-16.667 -28.667 -38.334 -43 -65.001 -43
c-17.333 0 -31.333 5.66699 -42 17s-16 24.333 -16 39z" />
    <glyph glyph-name="Ncaron" unicode="&#x147;" horiz-adv-x="766" 
d="M66 81v493.002c0 37.333 11.667 68.666 35 93.999s53.333 38 90 38c59.333 0 100.333 -23.667 123 -71l224 -419v-1l3 1c-7.33301 76.667 -11 169 -11 277v129c0 24 8.33301 44.5 25 61.5s36.667 25.5 60 25.5c24.667 0 45 -8.33301 61 -25s24 -37.334 24 -62.001v-496
c0 -36.667 -11.5 -67.667 -34.5 -93s-52.833 -38 -89.5 -38c-58 0 -98.667 23.333 -122 70l-229 428l-3 -1c8 -83.333 12 -165.333 12 -246v-165c0 -24.667 -7.83301 -45.5 -23.5 -62.5s-35.5 -25.5 -59.5 -25.5c-22.667 0 -42.5 8.83301 -59.5 26.5
s-25.5 38.167 -25.5 61.5zM218 914.002c0 16.667 6.66602 31.5 19.999 44.5s28 19.5 44 19.5c13.333 0 27.333 -5.33301 42 -16l81 -62l81 62c14.667 10.667 28.334 16 41.001 16c16.667 0 31.667 -6.5 45 -19.5s20 -27.833 20 -44.5c0 -20 -10 -37.333 -30 -52l-115 -90
c-14.667 -11.333 -28.667 -17 -42 -17c-12.667 0 -27 5.66699 -43 17l-115 90c-19.333 14 -29 31.333 -29 52z" />
    <glyph glyph-name="ncaron" unicode="&#x148;" horiz-adv-x="589" 
d="M56 80l0.000976562 362c0 24 9.33301 42.667 28 56c53.333 36.667 125.333 55 216 55c77.333 0 135.833 -19.5 175.5 -58.5s59.5 -95.167 59.5 -168.5v-246c0 -24 -7.83301 -44.167 -23.5 -60.5s-35.5 -24.5 -59.5 -24.5c-22 0 -41.167 8.33301 -57.5 25
s-24.5 36.667 -24.5 60v238c0 24 -7 42.167 -21 54.5s-31.667 18.5 -53 18.5c-30.667 0 -55.334 -6.33301 -74.001 -19v-292c0 -23.333 -8 -43.333 -24 -60s-35.667 -25 -59 -25c-22 0 -41.333 8.33301 -58 25s-25 36.667 -25 60zM99.001 750
c0 16.667 6.66602 31.5 19.999 44.5s28 19.5 44 19.5c13.333 0 27.333 -5.33301 42 -16l81 -62l81 62c14.667 10.667 28.334 16 41.001 16c16.667 0 31.667 -6.5 45 -19.5s20 -27.833 20 -44.5c0 -20 -10 -37.333 -30 -52l-115 -90c-14.667 -11.333 -28.667 -17 -42 -17
c-12.667 0 -27 5.66699 -43 17l-115 90c-19.333 14 -29 31.333 -29 52z" />
    <glyph glyph-name="Omacron" unicode="&#x14c;" horiz-adv-x="737" 
d="M48 273c-5.33301 54.667 -5.33301 107.335 0 158.002c7.33301 82 40.833 150.5 100.5 205.5s132.5 82.5 218.5 82.5s159.333 -27.833 220 -83.5s94.667 -123.834 102 -204.501c4 -52.667 4 -105.334 0 -158.001c-7.33301 -80.667 -41.333 -148.5 -102 -203.5
s-134 -82.5 -220 -82.5s-158.833 27.333 -218.5 82s-93.167 122.667 -100.5 204zM217 298.001c3.33301 -44 18.666 -80 45.999 -108s62 -42 104 -42c42.667 0 78 14 106 42s43.333 64 46 108c3.33301 36.667 3.33301 74 0 112c-2.66699 43.333 -18 79 -46 107
s-63.333 42 -106 42c-42 0 -76.667 -13.833 -104 -41.5s-42.666 -63.5 -45.999 -107.5c-2 -38 -2 -75.333 0 -112zM226 826.001c0 19.333 6.33496 35.333 19.002 48s28.334 19 47.001 19h154c19.333 0 35.166 -6.33301 47.499 -19s18.5 -28.667 18.5 -48
c0 -18.667 -6.33301 -34.334 -19 -47.001s-28.334 -19 -47.001 -19h-154c-18.667 0 -34.334 6.33301 -47.001 19s-19 28.334 -19 47.001z" />
    <glyph glyph-name="omacron" unicode="&#x14d;" horiz-adv-x="594" 
d="M48 201c-4.66699 48 -4.66699 96.667 0 146c5.33301 60.667 31.333 110.167 78 148.5s103.667 57.5 171 57.5c68 0 125.167 -19.167 171.5 -57.5s72.166 -87.833 77.499 -148.5c4.66699 -49.333 4.66699 -98 0 -146c-5.33301 -61.333 -31.166 -111.833 -77.499 -151.5
s-103.5 -59.5 -171.5 -59.5c-67.333 0 -124.333 20 -171 60s-72.667 90.333 -78 151zM154 664c0 19.333 6.33496 35.333 19.002 48s28.334 19 47.001 19h154c19.333 0 35.166 -6.33301 47.499 -19s18.5 -28.667 18.5 -48c0 -18.667 -6.33301 -34.334 -19 -47.001
s-28.334 -19 -47.001 -19h-154c-18.667 0 -34.334 6.33301 -47.001 19s-19 28.334 -19 47.001zM211.002 229c2.66699 -24.667 11.501 -44.167 26.501 -58.5s34.833 -21.5 59.5 -21.5c25.333 0 45.666 7.16699 60.999 21.5s23.333 33.833 24 58.5
c1.33301 29.333 1.33301 59.333 0 90c-1.33301 23.333 -9.5 42 -24.5 56s-35.167 21 -60.5 21c-24.667 0 -44.5 -7 -59.5 -21s-23.833 -32.667 -26.5 -56c-2.66699 -30.667 -2.66699 -60.667 0 -90z" />
    <glyph glyph-name="Ohungarumlaut" unicode="&#x150;" horiz-adv-x="737" 
d="M48 273c-5.33301 54.667 -5.33301 107.335 0 158.002c7.33301 82 40.833 150.5 100.5 205.5s132.5 82.5 218.5 82.5s159.333 -27.833 220 -83.5s94.667 -123.834 102 -204.501c4 -52.667 4 -105.334 0 -158.001c-7.33301 -80.667 -41.333 -148.5 -102 -203.5
s-134 -82.5 -220 -82.5s-158.833 27.333 -218.5 82s-93.167 122.667 -100.5 204zM205 818.001c0 17.333 5.33496 31.667 16.002 43l86 102c11.333 16.667 28 25 50 25c17.333 0 33.166 -6.5 47.499 -19.5s21.5 -28.833 21.5 -47.5c0 -15.333 -5.33301 -29.333 -16 -42
l-87 -101c-14 -16.667 -30.333 -25 -49 -25c-16.667 0 -32.334 6.33301 -47.001 19s-22 28 -22 46zM217.002 298.002c3.33301 -44 18.666 -80 45.999 -108s62 -42 104 -42c42.667 0 78 14 106 42s43.333 64 46 108c3.33301 36.667 3.33301 74 0 112
c-2.66699 43.333 -18 79 -46 107s-63.333 42 -106 42c-42 0 -76.667 -13.833 -104 -41.5s-42.666 -63.5 -45.999 -107.5c-2 -38 -2 -75.333 0 -112zM414.002 818.002c0 17.333 5.33398 31.667 16.001 43l86 102c12.667 16.667 29.334 25 50.001 25
c17.333 0 33.166 -6.5 47.499 -19.5s21.5 -28.833 21.5 -47.5c0 -15.333 -5.33301 -29.333 -16 -42l-87 -101c-14 -16.667 -30.333 -25 -49 -25c-16.667 0 -32.334 6.33301 -47.001 19s-22 28 -22 46z" />
    <glyph glyph-name="ohungarumlaut" unicode="&#x151;" horiz-adv-x="623" 
d="M48 201c-4.66699 48 -4.66699 96.667 0 146c5.33301 60.667 31.333 110.167 78 148.5s103.667 57.5 171 57.5c68 0 125.167 -19.167 171.5 -57.5s72.166 -87.833 77.499 -148.5c4.66699 -49.333 4.66699 -98 0 -146c-5.33301 -61.333 -31.166 -111.833 -77.499 -151.5
s-103.5 -59.5 -171.5 -59.5c-67.333 0 -124.333 20 -171 60s-72.667 90.333 -78 151zM132 654c0 17.333 5.33496 31.667 16.002 43l86 102c11.333 16.667 28 25 50 25c17.333 0 33.166 -6.5 47.499 -19.5s21.5 -28.833 21.5 -47.5c0 -15.333 -5.33301 -29.333 -16 -42
l-87 -101c-14 -16.667 -30.333 -25 -49 -25c-16.667 0 -32.334 6.33301 -47.001 19s-22 28 -22 46zM211.002 229.001c2.66699 -24.667 11.501 -44.167 26.501 -58.5s34.833 -21.5 59.5 -21.5c25.333 0 45.666 7.16699 60.999 21.5s23.333 33.833 24 58.5
c1.33301 29.333 1.33301 59.333 0 90c-1.33301 23.333 -9.5 42 -24.5 56s-35.167 21 -60.5 21c-24.667 0 -44.5 -7 -59.5 -21s-23.833 -32.667 -26.5 -56c-2.66699 -30.667 -2.66699 -60.667 0 -90zM341.003 654.001c0 17.333 5.33398 31.667 16.001 43l86 102
c12.667 16.667 29.334 25 50.001 25c17.333 0 33.166 -6.5 47.499 -19.5s21.5 -28.833 21.5 -47.5c0 -15.333 -5.33301 -29.333 -16 -42l-87 -101c-14 -16.667 -30.333 -25 -49 -25c-16.667 0 -32.334 6.33301 -47.001 19s-22 28 -22 46z" />
    <glyph glyph-name="OE" unicode="&#x152;" horiz-adv-x="1104" 
d="M48 276c-5.33301 52.667 -5.3291 103 0.00390625 151c7.33301 84 41.333 153.667 102 209s137 83 229 83c43.333 0 91.333 -1.33301 144 -4s97 -4 133 -4h321c22.667 0 41.834 -7.5 57.501 -22.5s23.5 -33.833 23.5 -56.5c0 -21.333 -8 -39.833 -24 -55.5
s-35 -23.5 -57 -23.5h-268v-125h241c21.333 0 39.166 -6.66699 53.499 -20s21.5 -30.666 21.5 -51.999c0 -19.333 -7.66699 -36.333 -23 -51s-32.666 -22 -51.999 -22h-241v-126h270c21.333 0 40.166 -7.83301 56.499 -23.5s24.5 -33.834 24.5 -54.501
c0 -22.667 -7.83301 -41.5 -23.5 -56.5s-34.834 -22.5 -57.501 -22.5h-327c-28 -0 -69.333 -2.16699 -124 -6.5s-104.334 -6.5 -149.001 -6.5c-92.667 0 -169.334 27.5 -230.001 82.5s-94.334 123.833 -101.001 206.5zM217.004 300c2.66699 -45.333 18.167 -82 46.5 -110
s66.833 -42 115.5 -42c64.667 0 118 3 160 9v394c-51.333 5.33301 -104.666 8 -159.999 8c-48 0 -86.333 -14 -115 -42s-44.334 -64.667 -47.001 -110c-2 -35.333 -2 -71 0 -107z" />
    <glyph glyph-name="oe" unicode="&#x153;" horiz-adv-x="906" 
d="M48 204c-4.66699 48 -4.66699 95.666 0 142.999c5.33301 60.667 31.333 110.167 78 148.5s103.667 57.5 171 57.5s123.333 -19 168 -57c44.667 38 99 57 163 57c70.667 0 128.167 -22 172.5 -66s66.5 -103 66.5 -177c0 -32 -6 -55.5 -18 -70.5s-31 -22.5 -57 -22.5h-248
v-7c0 -23.333 8.83301 -41.333 26.5 -54s40.834 -19 69.501 -19c23.333 0 55.666 7.66699 96.999 23c30 11.333 55.333 9.5 76 -5.5s31 -34.5 31 -58.5c0 -32 -19.167 -57.5 -57.5 -76.5s-89.5 -28.5 -153.5 -28.5c-65.333 0 -121.666 20.333 -168.999 61
c-44.667 -38.667 -100.334 -58 -167.001 -58c-67.333 0 -124.333 19.833 -171 59.5s-72.667 89.834 -78 150.501zM211 228.999c2.66699 -24.667 11.501 -44.167 26.501 -58.5s34.833 -21.5 59.5 -21.5c25.333 0 45.666 7.16699 60.999 21.5s23.333 33.833 24 58.5
c1.33301 29.333 1.33301 59.333 0 90c-1.33301 23.333 -9.5 42 -24.5 56s-35.167 21 -60.5 21c-24.667 0 -44.5 -7 -59.5 -21s-23.833 -32.667 -26.5 -56c-2.66699 -30.667 -2.66699 -60.667 0 -90zM544.001 323.999h156c5.33301 0 8 3.33301 8 10
c0.666992 23.333 -6 42.333 -20 57s-33.667 22 -59 22c-27.333 0 -48.333 -8.16699 -63 -24.5s-22 -37.833 -22 -64.5z" />
    <glyph glyph-name="Racute" unicode="&#x154;" horiz-adv-x="678" 
d="M66 82l-0.00195312 524.997c0 29.333 9.33301 53.666 28 72.999s44.334 29 77.001 29h206c71.333 0 131 -21 179 -63s72 -100.333 72 -175c0 -54 -12 -97.333 -36 -130s-53 -56 -87 -70l118 -132c14.667 -15.333 21.834 -35.166 21.501 -59.499
s-8.16602 -44.166 -23.499 -59.499c-18.667 -17.333 -39.667 -26.166 -63 -26.499s-43 7.83398 -59 24.501l-144 178c-9.33301 11.333 -17.833 19.5 -25.5 24.5s-17.834 7.5 -30.501 7.5h-62v-146c0 -23.333 -8.5 -43.833 -25.5 -61.5s-37.167 -26.5 -60.5 -26.5
c-22.667 0 -42.5 8.83301 -59.5 26.5s-25.5 38.167 -25.5 61.5zM236.998 381.997h121.999c65.333 0 98 28.333 98 85c0 27.333 -7.66699 48.833 -23 64.5s-38.666 23.5 -69.999 23.5h-127v-173zM252.997 817.997c0 24 12.667 42.667 38 56l135 70
c10.667 6.66699 22 10 34 10c16.667 0 31.167 -6.83301 43.5 -20.5s18.5 -29.167 18.5 -46.5c0 -23.333 -12.667 -42 -38 -56l-135 -69c-12 -6 -23.333 -9 -34 -9c-16.667 0 -31.167 6.5 -43.5 19.5s-18.5 28.167 -18.5 45.5z" />
    <glyph glyph-name="racute" unicode="&#x155;" horiz-adv-x="399" 
d="M51 78v297c0 55.333 15.833 98.833 47.5 130.5s77.167 47.5 136.5 47.5c38 0 71.333 -4 100 -12c42 -10.667 63 -36.667 63 -78c0 -20 -6.5 -38.333 -19.5 -55s-31.167 -25 -54.5 -25c-3.33301 0 -12.5 1.33301 -27.5 4s-27.833 4 -38.5 4c-27.333 0 -41 -17 -41 -51
v-262c0 -23.333 -8 -43 -24 -59s-35.667 -24 -59 -24c-22.667 0 -42.167 8.16699 -58.5 24.5s-24.5 35.833 -24.5 58.5zM122 653c0 24 12.667 42.667 38 56l135 70c10.667 6.66699 22 10 34 10c16.667 0 31.167 -6.83301 43.5 -20.5s18.5 -29.167 18.5 -46.5
c0 -23.333 -12.667 -42 -38 -56l-135 -69c-12 -6 -23.333 -9 -34 -9c-16.667 0 -31.167 6.5 -43.5 19.5s-18.5 28.167 -18.5 45.5z" />
    <glyph glyph-name="Rcommaaccent" unicode="&#x156;" horiz-adv-x="678" 
d="M66 82l-0.00195312 524.997c0 29.333 9.33301 53.666 28 72.999s44.334 29 77.001 29h206c71.333 0 131 -21 179 -63s72 -100.333 72 -175c0 -54 -12 -97.333 -36 -130s-53 -56 -87 -70l118 -132c14.667 -15.333 21.834 -35.166 21.501 -59.499
s-8.16602 -44.166 -23.499 -59.499c-18.667 -17.333 -39.667 -26.166 -63 -26.499s-43 7.83398 -59 24.501l-144 178c-9.33301 11.333 -17.833 19.5 -25.5 24.5s-17.834 7.5 -30.501 7.5h-62v-146c0 -23.333 -8.5 -43.833 -25.5 -61.5s-37.167 -26.5 -60.5 -26.5
c-22.667 0 -42.5 8.83301 -59.5 26.5s-25.5 38.167 -25.5 61.5zM236.998 381.997h121.999c65.333 0 98 28.333 98 85c0 27.333 -7.66699 48.833 -23 64.5s-38.666 23.5 -69.999 23.5h-127v-173zM251.997 -228.003c0 10 5.16895 25.8311 15.502 47.498
s15.5 40.834 15.5 57.501v26c0 20.667 5.33301 37.334 16 50.001s26 19 46 19c19.333 0 34.666 -6.5 45.999 -19.5s17 -29.5 17 -49.5v-18c0 -43.333 -11 -85.333 -33 -126c-16.667 -28.667 -38.334 -43 -65.001 -43c-17.333 0 -31.333 5.66699 -42 17s-16 24.333 -16 39z
" />
    <glyph glyph-name="rcommaaccent" unicode="&#x157;" horiz-adv-x="399" 
d="M42 -229c0 10 5.16895 25.8311 15.502 47.498s15.5 40.834 15.5 57.501v26c0 20.667 5.33301 37.334 16 50.001s26 19 46 19c19.333 0 34.666 -6.5 45.999 -19.5s17 -29.5 17 -49.5v-18c0 -43.333 -11 -85.333 -33 -126c-16.667 -28.667 -38.334 -43 -65.001 -43
c-17.333 0 -31.333 5.66699 -42 17s-16 24.333 -16 39zM51.002 77.998v297c0 55.333 15.833 98.833 47.5 130.5s77.167 47.5 136.5 47.5c38 0 71.333 -4 100 -12c42 -10.667 63 -36.667 63 -78c0 -20 -6.5 -38.333 -19.5 -55s-31.167 -25 -54.5 -25
c-3.33301 0 -12.5 1.33301 -27.5 4s-27.833 4 -38.5 4c-27.333 0 -41 -17 -41 -51v-262c0 -23.333 -8 -43 -24 -59s-35.667 -24 -59 -24c-22.667 0 -42.167 8.16699 -58.5 24.5s-24.5 35.833 -24.5 58.5z" />
    </font>
</defs>
</svg>
