<?xml version="1.0" encoding="utf-8"?>
<!-- Generator: Adobe Illustrator 19.2.0, SVG Export Plug-In . SVG Version: 6.00 Build 0)  -->
<svg version="1.1" id="Layer_1" xmlns="http://www.w3.org/2000/svg" xmlns:xlink="http://www.w3.org/1999/xlink" x="0px" y="0px"
	 viewBox="0 0 30 30" style="enable-background:new 0 0 30 30;" xml:space="preserve">
<style type="text/css">
	.st0{fill:#1CA8E2;}
	.st1{fill:#FFFFFF;}
</style>
<g>
	<circle class="st0" cx="15" cy="15" r="15"/>
	<g>
		<path class="st1" d="M5.3,17.1c4.9,6.6,15.5,3.8,16.9-2.4c1.1,0,1.8-0.4,2.4-0.9c-0.7,0.2-1.6,0-2.2-0.2c1.1,0,1.8-0.5,2-1.3
			c-0.4,0.2-1.6,0.5-2.2,0.2c0-0.2,0-0.4-0.2-0.4c-0.5-1.8-2.2-3.5-4-3.3c0.2,0,0.4-0.2,0.4-0.2c0.4,0,1.5-0.2,1.3-0.5
			c-0.2-0.4-1.6,0.4-1.8,0.4c0.4-0.2,0.9-0.5,0.9-0.9c-0.5,0-1.1,0.4-1.5,0.7c0.2-0.2,0.4-0.4,0.4-0.5c-1.5,0.9-2.4,2.7-3.1,4.7
			c-0.5-0.5-1.1-0.9-1.5-1.1c-1.3-0.7-2.7-1.3-4.9-2.2c0,0.7,0.4,1.8,1.6,2.4c-0.4,0-0.7,0-1.1,0.2c0.2,0.9,0.7,1.6,2.2,2
			c-0.7,0-1.1,0.2-1.3,0.5c0.2,0.4,0.9,1.1,2.2,0.9c-1.5,0.5-0.5,1.8,0.5,1.6C10.4,19.1,7.2,18.9,5.3,17.1z"/>
	</g>
</g>
</svg>
